<svg width="960" height="720" xmlns="http://www.w3.org/2000/svg" xmlns:xlink="http://www.w3.org/1999/xlink" overflow="hidden"><defs><clipPath id="clip0"><rect x="0" y="0" width="960" height="720"/></clipPath></defs><g clip-path="url(#clip0)"><rect x="0" y="0" width="960" height="720" fill="#FFFFFF"/><rect x="0.500053" y="0.500053" width="960" height="76" stroke="#DEEBF7" stroke-width="1.33333" stroke-miterlimit="8" fill="#DEEBF7"/><text fill="#898989" font-family="Source Han Sans JP Medium,Source Han Sans JP Medium_MSFontService,sans-serif" font-weight="500" font-size="16" transform="translate(865.933 692)">40</text><text font-family="Cambria Math,Cambria Math_MSFontService,sans-serif" font-weight="400" font-size="42.6667" transform="translate(75.6 55)">SAT</text><text font-family="Source Han Sans JP Medium,Source Han Sans JP Medium_MSFontService,sans-serif" font-weight="500" font-size="42.6667" transform="translate(148.767 55)">-</text><text font-family="Cambria Math,Cambria Math_MSFontService,sans-serif" font-weight="400" font-size="42.6667" transform="translate(163.933 55)">RECONF</text><text font-family="Source Han Sans JP Medium,Source Han Sans JP Medium_MSFontService,sans-serif" font-weight="500" font-size="42.6667" transform="translate(328.267 55)">is</text><text font-family="Cambria Math,Cambria Math_MSFontService,sans-serif" font-weight="400" font-size="42.6667" transform="translate(370.6 55)">PSPACE</text><text font-family="Source Han Sans JP Medium,Source Han Sans JP Medium_MSFontService,sans-serif" font-weight="500" font-size="42.6667" transform="translate(515.267 55)">-</text><text font-family="Source Han Sans JP Medium,Source Han Sans JP Medium_MSFontService,sans-serif" font-weight="500" font-size="42.6667" transform="translate(530.433 55)">complete</text><text font-family="Cambria Math,Cambria Math_MSFontService,sans-serif" font-weight="400" font-size="24" transform="translate(71.726 116)">𝛿</text><path d="M132.868 97.6768C135.149 98.2784 136.901 99.5772 138.124 101.573 139.346 103.569 139.958 105.978 139.958 108.798 139.958 111.626 139.348 114.034 138.129 116.023 136.911 118.011 135.157 119.306 132.868 119.907L132.586 119.005C134.391 118.403 135.733 117.216 136.612 115.442 137.491 113.669 137.93 111.415 137.93 108.681 137.93 106.04 137.493 103.847 136.618 102.101 135.743 100.355 134.387 99.1808 132.551 98.5792ZM94.6985 97.6768 95.0149 98.5792C93.1868 99.1808 91.8333 100.355 90.9544 102.101 90.0755 103.847 89.636 106.04 89.636 108.681 89.636 111.415 90.0755 113.669 90.9544 115.442 91.8333 117.216 93.1751 118.403 94.9798 119.005L94.6985 119.907C92.4095 119.306 90.6556 118.011 89.4368 116.023 88.2181 114.034 87.6087 111.626 87.6087 108.798 87.6087 105.978 88.22 103.569 89.4427 101.573 90.6653 99.5772 92.4173 98.2784 94.6985 97.6768Z" fill-rule="evenodd"/><text font-family="Cambria Math,Cambria Math_MSFontService,sans-serif" font-weight="400" font-size="24" transform="translate(95.4593 116)">𝑞</text><text font-family="Cambria Math,Cambria Math_MSFontService,sans-serif" font-weight="400" font-size="24" transform="translate(109.186 116)">,</text><text font-family="Cambria Math,Cambria Math_MSFontService,sans-serif" font-weight="400" font-size="24" transform="translate(118.186 116)">𝑎</text><text font-family="Cambria Math,Cambria Math_MSFontService,sans-serif" font-weight="400" font-size="24" transform="translate(148.733 116)">=</text><text font-family="Cambria Math,Cambria Math_MSFontService,sans-serif" font-weight="400" font-size="24" transform="translate(173.399 116)">(</text><text font-family="Cambria Math,Cambria Math_MSFontService,sans-serif" font-weight="400" font-size="24" transform="translate(183.399 116)">𝑞</text><text font-family="Cambria Math,Cambria Math_MSFontService,sans-serif" font-weight="400" font-size="17.52" transform="translate(197.126 107)">′</text><text font-family="Cambria Math,Cambria Math_MSFontService,sans-serif" font-weight="400" font-size="24" transform="translate(204.286 116)">,</text><text font-family="Cambria Math,Cambria Math_MSFontService,sans-serif" font-weight="400" font-size="24" transform="translate(213.286 116)">𝑏</text><text font-family="Cambria Math,Cambria Math_MSFontService,sans-serif" font-weight="400" font-size="24" transform="translate(226.813 116)">,</text><text font-family="Cambria Math,Cambria Math_MSFontService,sans-serif" font-weight="400" font-size="24" transform="translate(235.813 116)">R</text><text font-family="Cambria Math,Cambria Math_MSFontService,sans-serif" font-weight="400" font-size="24" transform="translate(250.646 116)">)</text><text font-family="Cambria Math,Cambria Math_MSFontService,sans-serif" font-weight="400" font-size="24" transform="translate(71.2049 212)">𝑥</text><path d="M126.833 193.695C129.115 194.297 130.866 195.596 132.089 197.592 133.312 199.588 133.923 201.996 133.923 204.816 133.923 207.644 133.314 210.053 132.095 212.041 130.876 214.029 129.122 215.324 126.833 215.926L126.552 215.023C128.357 214.422 129.699 213.234 130.577 211.461 131.456 209.687 131.896 207.433 131.896 204.699 131.896 202.058 131.458 199.865 130.583 198.119 129.708 196.373 128.353 195.199 126.517 194.597ZM93.9641 193.695 94.2805 194.597C92.4524 195.199 91.0989 196.373 90.22 198.119 89.341 199.865 88.9016 202.058 88.9016 204.699 88.9016 207.433 89.341 209.687 90.22 211.461 91.0989 213.234 92.4407 214.422 94.2453 215.023L93.9641 215.926C91.675 215.324 89.9211 214.029 88.7024 212.041 87.4836 210.053 86.8743 207.644 86.8743 204.816 86.8743 201.996 87.4856 199.588 88.7082 197.592 89.9309 195.596 91.6828 194.297 93.9641 193.695Z" fill-rule="evenodd"/><text font-family="Cambria Math,Cambria Math_MSFontService,sans-serif" font-weight="400" font-size="24" transform="translate(94.7249 212)">𝑖</text><text font-family="Cambria Math,Cambria Math_MSFontService,sans-serif" font-weight="400" font-size="24" transform="translate(103.152 212)">,</text><text font-family="Cambria Math,Cambria Math_MSFontService,sans-serif" font-weight="400" font-size="24" transform="translate(112.152 212)">𝑎</text><text font-family="Cambria Math,Cambria Math_MSFontService,sans-serif" font-weight="400" font-size="24" transform="translate(142.698 212)">=</text><text font-family="Cambria Math,Cambria Math_MSFontService,sans-serif" font-weight="400" font-size="24" transform="translate(167.365 212)">1</text><text font-family="Cambria Math,Cambria Math_MSFontService,sans-serif" font-weight="400" font-size="24" transform="translate(180.698 212)">,</text><text font-family="Cambria Math,Cambria Math_MSFontService,sans-serif" font-weight="400" font-size="24" transform="translate(189.698 212)">𝑥</text><path d="M244.933 193.695C247.215 194.297 248.966 195.596 250.189 197.592 251.412 199.588 252.023 201.996 252.023 204.816 252.023 207.644 251.414 210.053 250.195 212.041 248.976 214.029 247.222 215.324 244.933 215.926L244.652 215.023C246.457 214.422 247.798 213.234 248.677 211.461 249.556 209.687 249.996 207.433 249.996 204.699 249.996 202.058 249.558 199.865 248.683 198.119 247.808 196.373 246.453 195.199 244.617 194.597ZM212.457 193.695 212.774 194.597C210.946 195.199 209.592 196.373 208.713 198.119 207.834 199.865 207.395 202.058 207.395 204.699 207.395 207.433 207.834 209.687 208.713 211.461 209.592 213.234 210.934 214.422 212.739 215.023L212.457 215.926C210.168 215.324 208.414 214.029 207.196 212.041 205.977 210.053 205.368 207.644 205.368 204.816 205.368 201.996 205.979 199.588 207.202 197.592 208.424 195.596 210.176 194.297 212.457 193.695Z" fill-rule="evenodd"/><text font-family="Cambria Math,Cambria Math_MSFontService,sans-serif" font-weight="400" font-size="24" transform="translate(213.218 212)">𝑖</text><text font-family="Cambria Math,Cambria Math_MSFontService,sans-serif" font-weight="400" font-size="24" transform="translate(221.645 212)">,</text><text font-family="Cambria Math,Cambria Math_MSFontService,sans-serif" font-weight="400" font-size="24" transform="translate(230.645 212)">𝑏</text><text font-family="Cambria Math,Cambria Math_MSFontService,sans-serif" font-weight="400" font-size="24" transform="translate(260.798 212)">=</text><text font-family="Cambria Math,Cambria Math_MSFontService,sans-serif" font-weight="400" font-size="24" transform="translate(285.465 212)">0</text><text font-family="Cambria Math,Cambria Math_MSFontService,sans-serif" font-weight="400" font-size="24" transform="translate(298.798 212)">,</text><text font-family="Cambria Math,Cambria Math_MSFontService,sans-serif" font-weight="400" font-size="24" transform="translate(307.798 212)">𝑦</text><path d="M340.86 193.695C343.141 194.297 344.893 195.596 346.116 197.592 347.338 199.588 347.95 201.996 347.95 204.816 347.95 207.644 347.34 210.053 346.122 212.041 344.903 214.029 343.149 215.324 340.86 215.926L340.579 215.023C342.383 214.422 343.725 213.234 344.604 211.461 345.483 209.687 345.922 207.433 345.922 204.699 345.922 202.058 345.485 199.865 344.61 198.119 343.735 196.373 342.379 195.199 340.544 194.597ZM330.911 193.695 331.227 194.597C329.399 195.199 328.046 196.373 327.167 198.119 326.288 199.865 325.848 202.058 325.848 204.699 325.848 207.433 326.288 209.687 327.167 211.461 328.046 213.234 329.387 214.422 331.192 215.023L330.911 215.926C328.622 215.324 326.868 214.029 325.649 212.041 324.43 210.053 323.821 207.644 323.821 204.816 323.821 201.996 324.432 199.588 325.655 197.592 326.878 195.596 328.63 194.297 330.911 193.695Z" fill-rule="evenodd"/><text font-family="Cambria Math,Cambria Math_MSFontService,sans-serif" font-weight="400" font-size="24" transform="translate(331.672 212)">𝑖</text><text font-family="Cambria Math,Cambria Math_MSFontService,sans-serif" font-weight="400" font-size="24" transform="translate(356.725 212)">=</text><text font-family="Cambria Math,Cambria Math_MSFontService,sans-serif" font-weight="400" font-size="24" transform="translate(381.392 212)">1</text><text font-family="Cambria Math,Cambria Math_MSFontService,sans-serif" font-weight="400" font-size="24" transform="translate(394.725 212)">,</text><text font-family="Cambria Math,Cambria Math_MSFontService,sans-serif" font-weight="400" font-size="24" transform="translate(403.725 212)">𝑦</text><path d="M478.787 193.695C481.068 194.297 482.82 195.596 484.042 197.592 485.265 199.588 485.876 201.996 485.876 204.816 485.876 207.644 485.267 210.053 484.048 212.041 482.83 214.029 481.076 215.324 478.787 215.926L478.505 215.023C480.31 214.422 481.652 213.234 482.531 211.461 483.41 209.687 483.849 207.433 483.849 204.699 483.849 202.058 483.412 199.865 482.537 198.119 481.662 196.373 480.306 195.199 478.47 194.597ZM426.837 193.695 427.154 194.597C425.326 195.199 423.972 196.373 423.093 198.119 422.214 199.865 421.775 202.058 421.775 204.699 421.775 207.433 422.214 209.687 423.093 211.461 423.972 213.234 425.314 214.422 427.119 215.023L426.837 215.926C424.548 215.324 422.794 214.029 421.576 212.041 420.357 210.053 419.748 207.644 419.748 204.816 419.748 201.996 420.359 199.588 421.582 197.592 422.804 195.596 424.556 194.297 426.837 193.695Z" fill-rule="evenodd"/><text font-family="Cambria Math,Cambria Math_MSFontService,sans-serif" font-weight="400" font-size="24" transform="translate(427.598 212)">𝑖</text><text font-family="Cambria Math,Cambria Math_MSFontService,sans-serif" font-weight="400" font-size="24" transform="translate(441.358 212)">+</text><text font-family="Cambria Math,Cambria Math_MSFontService,sans-serif" font-weight="400" font-size="24" transform="translate(464.692 212)">1</text><text font-family="Cambria Math,Cambria Math_MSFontService,sans-serif" font-weight="400" font-size="24" transform="translate(494.652 212)">=</text><text font-family="Cambria Math,Cambria Math_MSFontService,sans-serif" font-weight="400" font-size="24" transform="translate(519.318 212)">0</text><text font-family="Cambria Math,Cambria Math_MSFontService,sans-serif" font-weight="400" font-size="24" transform="translate(532.652 212)">,</text><text font-family="Cambria Math,Cambria Math_MSFontService,sans-serif" font-weight="400" font-size="24" transform="translate(541.652 212)">𝑧</text><path d="M578.18 193.695C580.461 194.297 582.213 195.596 583.436 197.592 584.658 199.588 585.27 201.996 585.27 204.816 585.27 207.644 584.66 210.053 583.442 212.041 582.223 214.029 580.469 215.324 578.18 215.926L577.899 215.023C579.703 214.422 581.045 213.234 581.924 211.461 582.803 209.687 583.242 207.433 583.242 204.699 583.242 202.058 582.805 199.865 581.93 198.119 581.055 196.373 579.699 195.199 577.864 194.597ZM562.931 193.695 563.247 194.597C561.419 195.199 560.066 196.373 559.187 198.119 558.308 199.865 557.868 202.058 557.868 204.699 557.868 207.433 558.308 209.687 559.187 211.461 560.066 213.234 561.407 214.422 563.212 215.023L562.931 215.926C560.642 215.324 558.888 214.029 557.669 212.041 556.45 210.053 555.841 207.644 555.841 204.816 555.841 201.996 556.452 199.588 557.675 197.592 558.898 195.596 560.65 194.297 562.931 193.695Z" fill-rule="evenodd"/><text font-family="Cambria Math,Cambria Math_MSFontService,sans-serif" font-weight="400" font-size="24" transform="translate(563.692 212)">𝑞</text><text font-family="Cambria Math,Cambria Math_MSFontService,sans-serif" font-weight="400" font-size="24" transform="translate(594.045 212)">=</text><text font-family="Cambria Math,Cambria Math_MSFontService,sans-serif" font-weight="400" font-size="24" transform="translate(618.712 212)">1</text><text font-family="Cambria Math,Cambria Math_MSFontService,sans-serif" font-weight="400" font-size="24" transform="translate(632.045 212)">,</text><text font-family="Cambria Math,Cambria Math_MSFontService,sans-serif" font-weight="400" font-size="24" transform="translate(641.045 212)">𝑧</text><path d="M684.733 193.695C687.015 194.297 688.766 195.596 689.989 197.592 691.212 199.588 691.823 201.996 691.823 204.816 691.823 207.644 691.214 210.053 689.995 212.041 688.776 214.029 687.022 215.324 684.733 215.926L684.452 215.023C686.257 214.422 687.599 213.234 688.477 211.461 689.356 209.687 689.796 207.433 689.796 204.699 689.796 202.058 689.358 199.865 688.483 198.119 687.608 196.373 686.253 195.199 684.417 194.597ZM662.324 193.695 662.641 194.597C660.812 195.199 659.459 196.373 658.58 198.119 657.701 199.865 657.262 202.058 657.262 204.699 657.262 207.433 657.701 209.687 658.58 211.461 659.459 213.234 660.801 214.422 662.605 215.023L662.324 215.926C660.035 215.324 658.281 214.029 657.062 212.041 655.844 210.053 655.234 207.644 655.234 204.816 655.234 201.996 655.846 199.588 657.068 197.592 658.291 195.596 660.043 194.297 662.324 193.695Z" fill-rule="evenodd"/><text font-family="Cambria Math,Cambria Math_MSFontService,sans-serif" font-weight="400" font-size="24" transform="translate(663.085 212)">𝑞</text><text font-family="Cambria Math,Cambria Math_MSFontService,sans-serif" font-weight="400" font-size="17.52" transform="translate(676.812 203)">′</text><text font-family="Cambria Math,Cambria Math_MSFontService,sans-serif" font-weight="400" font-size="24" transform="translate(700.598 212)">=</text><text font-family="Cambria Math,Cambria Math_MSFontService,sans-serif" font-weight="400" font-size="24" transform="translate(725.265 212)">0</text><text font-family="Cambria Math,Cambria Math_MSFontService,sans-serif" font-weight="400" font-size="24" transform="translate(71.2049 674)">𝑥</text><path d="M126.833 656.134C129.115 656.735 130.866 658.034 132.089 660.03 133.312 662.026 133.923 664.434 133.923 667.255 133.923 670.083 133.314 672.491 132.095 674.479 130.876 676.468 129.122 677.762 126.833 678.364L126.552 677.462C128.357 676.86 129.699 675.673 130.577 673.899 131.456 672.126 131.896 669.872 131.896 667.137 131.896 664.497 131.458 662.303 130.583 660.557 129.708 658.811 128.353 657.637 126.517 657.036ZM93.9641 656.134 94.2805 657.036C92.4524 657.637 91.0989 658.811 90.22 660.557 89.341 662.303 88.9016 664.497 88.9016 667.137 88.9016 669.872 89.341 672.126 90.22 673.899 91.0989 675.673 92.4407 676.86 94.2453 677.462L93.9641 678.364C91.675 677.762 89.9211 676.468 88.7024 674.479 87.4836 672.491 86.8743 670.083 86.8743 667.255 86.8743 664.434 87.4856 662.026 88.7082 660.03 89.9309 658.034 91.6828 656.735 93.9641 656.134Z" fill-rule="evenodd"/><text font-family="Cambria Math,Cambria Math_MSFontService,sans-serif" font-weight="400" font-size="24" transform="translate(94.7249 674)">𝑖</text><text font-family="Cambria Math,Cambria Math_MSFontService,sans-serif" font-weight="400" font-size="24" transform="translate(103.152 674)">,</text><text font-family="Cambria Math,Cambria Math_MSFontService,sans-serif" font-weight="400" font-size="24" transform="translate(112.152 674)">𝑎</text><text font-family="Cambria Math,Cambria Math_MSFontService,sans-serif" font-weight="400" font-size="24" transform="translate(142.698 674)">=</text><text font-family="Cambria Math,Cambria Math_MSFontService,sans-serif" font-weight="400" font-size="24" transform="translate(167.365 674)">0</text><text font-family="Cambria Math,Cambria Math_MSFontService,sans-serif" font-weight="400" font-size="24" transform="translate(180.698 674)">,</text><text font-family="Cambria Math,Cambria Math_MSFontService,sans-serif" font-weight="400" font-size="24" transform="translate(189.698 674)">𝑥</text><path d="M244.933 656.134C247.215 656.735 248.966 658.034 250.189 660.03 251.412 662.026 252.023 664.434 252.023 667.255 252.023 670.083 251.414 672.491 250.195 674.479 248.976 676.468 247.222 677.762 244.933 678.364L244.652 677.462C246.457 676.86 247.798 675.673 248.677 673.899 249.556 672.126 249.996 669.872 249.996 667.137 249.996 664.497 249.558 662.303 248.683 660.557 247.808 658.811 246.453 657.637 244.617 657.036ZM212.457 656.134 212.774 657.036C210.946 657.637 209.592 658.811 208.713 660.557 207.834 662.303 207.395 664.497 207.395 667.137 207.395 669.872 207.834 672.126 208.713 673.899 209.592 675.673 210.934 676.86 212.739 677.462L212.457 678.364C210.168 677.762 208.414 676.468 207.196 674.479 205.977 672.491 205.368 670.083 205.368 667.255 205.368 664.434 205.979 662.026 207.202 660.03 208.424 658.034 210.176 656.735 212.457 656.134Z" fill-rule="evenodd"/><text font-family="Cambria Math,Cambria Math_MSFontService,sans-serif" font-weight="400" font-size="24" transform="translate(213.218 674)">𝑖</text><text font-family="Cambria Math,Cambria Math_MSFontService,sans-serif" font-weight="400" font-size="24" transform="translate(221.645 674)">,</text><text font-family="Cambria Math,Cambria Math_MSFontService,sans-serif" font-weight="400" font-size="24" transform="translate(230.645 674)">𝑏</text><text font-family="Cambria Math,Cambria Math_MSFontService,sans-serif" font-weight="400" font-size="24" transform="translate(260.798 674)">=</text><text font-family="Cambria Math,Cambria Math_MSFontService,sans-serif" font-weight="400" font-size="24" transform="translate(285.465 674)">1</text><text font-family="Cambria Math,Cambria Math_MSFontService,sans-serif" font-weight="400" font-size="24" transform="translate(298.798 674)">,</text><text font-family="Cambria Math,Cambria Math_MSFontService,sans-serif" font-weight="400" font-size="24" transform="translate(307.798 674)">𝑦</text><path d="M340.86 656.134C343.141 656.735 344.893 658.034 346.116 660.03 347.338 662.026 347.95 664.434 347.95 667.255 347.95 670.083 347.34 672.491 346.122 674.479 344.903 676.468 343.149 677.762 340.86 678.364L340.579 677.462C342.383 676.86 343.725 675.673 344.604 673.899 345.483 672.126 345.922 669.872 345.922 667.137 345.922 664.497 345.485 662.303 344.61 660.557 343.735 658.811 342.379 657.637 340.544 657.036ZM330.911 656.134 331.227 657.036C329.399 657.637 328.046 658.811 327.167 660.557 326.288 662.303 325.848 664.497 325.848 667.137 325.848 669.872 326.288 672.126 327.167 673.899 328.046 675.673 329.387 676.86 331.192 677.462L330.911 678.364C328.622 677.762 326.868 676.468 325.649 674.479 324.43 672.491 323.821 670.083 323.821 667.255 323.821 664.434 324.432 662.026 325.655 660.03 326.878 658.034 328.63 656.735 330.911 656.134Z" fill-rule="evenodd"/><text font-family="Cambria Math,Cambria Math_MSFontService,sans-serif" font-weight="400" font-size="24" transform="translate(331.672 674)">𝑖</text><text font-family="Cambria Math,Cambria Math_MSFontService,sans-serif" font-weight="400" font-size="24" transform="translate(356.725 674)">=</text><text font-family="Cambria Math,Cambria Math_MSFontService,sans-serif" font-weight="400" font-size="24" transform="translate(381.392 674)">0</text><text font-family="Cambria Math,Cambria Math_MSFontService,sans-serif" font-weight="400" font-size="24" transform="translate(394.725 674)">,</text><text font-family="Cambria Math,Cambria Math_MSFontService,sans-serif" font-weight="400" font-size="24" transform="translate(403.725 674)">𝑦</text><path d="M478.787 656.134C481.068 656.735 482.82 658.034 484.042 660.03 485.265 662.026 485.876 664.434 485.876 667.255 485.876 670.083 485.267 672.491 484.048 674.479 482.83 676.468 481.076 677.762 478.787 678.364L478.505 677.462C480.31 676.86 481.652 675.673 482.531 673.899 483.41 672.126 483.849 669.872 483.849 667.137 483.849 664.497 483.412 662.303 482.537 660.557 481.662 658.811 480.306 657.637 478.47 657.036ZM426.837 656.134 427.154 657.036C425.326 657.637 423.972 658.811 423.093 660.557 422.214 662.303 421.775 664.497 421.775 667.137 421.775 669.872 422.214 672.126 423.093 673.899 423.972 675.673 425.314 676.86 427.119 677.462L426.837 678.364C424.548 677.762 422.794 676.468 421.576 674.479 420.357 672.491 419.748 670.083 419.748 667.255 419.748 664.434 420.359 662.026 421.582 660.03 422.804 658.034 424.556 656.735 426.837 656.134Z" fill-rule="evenodd"/><text font-family="Cambria Math,Cambria Math_MSFontService,sans-serif" font-weight="400" font-size="24" transform="translate(427.598 674)">𝑖</text><text font-family="Cambria Math,Cambria Math_MSFontService,sans-serif" font-weight="400" font-size="24" transform="translate(441.358 674)">+</text><text font-family="Cambria Math,Cambria Math_MSFontService,sans-serif" font-weight="400" font-size="24" transform="translate(464.692 674)">1</text><text font-family="Cambria Math,Cambria Math_MSFontService,sans-serif" font-weight="400" font-size="24" transform="translate(494.652 674)">=</text><text font-family="Cambria Math,Cambria Math_MSFontService,sans-serif" font-weight="400" font-size="24" transform="translate(519.318 674)">1</text><text font-family="Cambria Math,Cambria Math_MSFontService,sans-serif" font-weight="400" font-size="24" transform="translate(532.652 674)">,</text><text font-family="Cambria Math,Cambria Math_MSFontService,sans-serif" font-weight="400" font-size="24" transform="translate(541.652 674)">𝑧</text><path d="M578.18 656.134C580.461 656.735 582.213 658.034 583.436 660.03 584.658 662.026 585.27 664.434 585.27 667.255 585.27 670.083 584.66 672.491 583.442 674.479 582.223 676.468 580.469 677.762 578.18 678.364L577.899 677.462C579.703 676.86 581.045 675.673 581.924 673.899 582.803 672.126 583.242 669.872 583.242 667.137 583.242 664.497 582.805 662.303 581.93 660.557 581.055 658.811 579.699 657.637 577.864 657.036ZM562.931 656.134 563.247 657.036C561.419 657.637 560.066 658.811 559.187 660.557 558.308 662.303 557.868 664.497 557.868 667.137 557.868 669.872 558.308 672.126 559.187 673.899 560.066 675.673 561.407 676.86 563.212 677.462L562.931 678.364C560.642 677.762 558.888 676.468 557.669 674.479 556.45 672.491 555.841 670.083 555.841 667.255 555.841 664.434 556.452 662.026 557.675 660.03 558.898 658.034 560.65 656.735 562.931 656.134Z" fill-rule="evenodd"/><text font-family="Cambria Math,Cambria Math_MSFontService,sans-serif" font-weight="400" font-size="24" transform="translate(563.692 674)">𝑞</text><text font-family="Cambria Math,Cambria Math_MSFontService,sans-serif" font-weight="400" font-size="24" transform="translate(594.045 674)">=</text><text font-family="Cambria Math,Cambria Math_MSFontService,sans-serif" font-weight="400" font-size="24" transform="translate(618.712 674)">0</text><text font-family="Cambria Math,Cambria Math_MSFontService,sans-serif" font-weight="400" font-size="24" transform="translate(632.045 674)">,</text><text font-family="Cambria Math,Cambria Math_MSFontService,sans-serif" font-weight="400" font-size="24" transform="translate(641.045 674)">𝑧</text><path d="M684.733 656.134C687.015 656.735 688.766 658.034 689.989 660.03 691.212 662.026 691.823 664.434 691.823 667.255 691.823 670.083 691.214 672.491 689.995 674.479 688.776 676.468 687.022 677.762 684.733 678.364L684.452 677.462C686.257 676.86 687.599 675.673 688.477 673.899 689.356 672.126 689.796 669.872 689.796 667.137 689.796 664.497 689.358 662.303 688.483 660.557 687.608 658.811 686.253 657.637 684.417 657.036ZM662.324 656.134 662.641 657.036C660.812 657.637 659.459 658.811 658.58 660.557 657.701 662.303 657.262 664.497 657.262 667.137 657.262 669.872 657.701 672.126 658.58 673.899 659.459 675.673 660.801 676.86 662.605 677.462L662.324 678.364C660.035 677.762 658.281 676.468 657.062 674.479 655.844 672.491 655.234 670.083 655.234 667.255 655.234 664.434 655.846 662.026 657.068 660.03 658.291 658.034 660.043 656.735 662.324 656.134Z" fill-rule="evenodd"/><text font-family="Cambria Math,Cambria Math_MSFontService,sans-serif" font-weight="400" font-size="24" transform="translate(663.085 674)">𝑞</text><text font-family="Cambria Math,Cambria Math_MSFontService,sans-serif" font-weight="400" font-size="17.52" transform="translate(676.812 665)">′</text><text font-family="Cambria Math,Cambria Math_MSFontService,sans-serif" font-weight="400" font-size="24" transform="translate(700.598 674)">=</text><text font-family="Cambria Math,Cambria Math_MSFontService,sans-serif" font-weight="400" font-size="24" transform="translate(725.265 674)">1</text><text font-family="Cambria Math,Cambria Math_MSFontService,sans-serif" font-weight="400" font-size="24" transform="translate(152.01 353)">𝜓</text><text font-family="Cambria Math,Cambria Math_MSFontService,sans-serif" font-weight="400" font-size="17.52" transform="translate(168.844 358)">2</text><text font-family="Source Han Sans JP Medium,Source Han Sans JP Medium_MSFontService,sans-serif" font-weight="500" font-size="24" transform="translate(185.337 353)">has</text><text font-family="Cambria Math,Cambria Math_MSFontService,sans-serif" font-weight="400" font-size="24" transform="translate(230.837 353)">(</text><text font-family="Cambria Math,Cambria Math_MSFontService,sans-serif" font-weight="400" font-size="24" transform="translate(240.837 353)">𝑥</text><path d="M296.466 334.648C298.747 335.25 300.499 336.548 301.721 338.545 302.944 340.541 303.555 342.949 303.555 345.769 303.555 348.597 302.946 351.006 301.727 352.994 300.509 354.982 298.755 356.277 296.466 356.879L296.184 355.976C297.989 355.375 299.331 354.187 300.21 352.414 301.089 350.64 301.528 348.386 301.528 345.652 301.528 343.011 301.091 340.818 300.216 339.072 299.341 337.326 297.985 336.152 296.149 335.55ZM263.596 334.648 263.913 335.55C262.085 336.152 260.731 337.326 259.852 339.072 258.973 340.818 258.534 343.011 258.534 345.652 258.534 348.386 258.973 350.64 259.852 352.414 260.731 354.187 262.073 355.375 263.878 355.976L263.596 356.879C261.307 356.277 259.553 354.982 258.335 352.994 257.116 351.006 256.507 348.597 256.507 345.769 256.507 342.949 257.118 340.541 258.341 338.545 259.563 336.548 261.315 335.25 263.596 334.648Z" fill-rule="evenodd"/><text font-family="Cambria Math,Cambria Math_MSFontService,sans-serif" font-weight="400" font-size="24" transform="translate(264.357 353)">𝑖</text><text font-family="Cambria Math,Cambria Math_MSFontService,sans-serif" font-weight="400" font-size="24" transform="translate(272.784 353)">,</text><text font-family="Cambria Math,Cambria Math_MSFontService,sans-serif" font-weight="400" font-size="24" transform="translate(281.784 353)">𝑎</text><path d="M240.844 330.819 248.63 330.819 251.168 330.819 256.417 330.819 258.955 330.819 264.204 330.819 266.741 330.819 271.991 330.819 274.528 330.819 279.777 330.819 282.315 330.819 287.557 330.819 290.101 330.819 295.337 330.819 297.881 330.819 305.661 330.819 305.661 332.061 297.881 332.061 295.337 332.061 290.101 332.061 287.557 332.061 282.315 332.061 279.777 332.061 274.528 332.061 271.991 332.061 266.741 332.061 264.204 332.061 258.955 332.061 256.417 332.061 251.168 332.061 248.63 332.061 240.844 332.061Z" fill-rule="evenodd"/><text font-family="Cambria Math,Cambria Math_MSFontService,sans-serif" font-weight="400" font-size="24" transform="translate(310.997 353)">∨</text><text font-family="Cambria Math,Cambria Math_MSFontService,sans-serif" font-weight="400" font-size="24" transform="translate(330.497 353)">𝑥</text><path d="M385.732 334.648C388.013 335.25 389.765 336.548 390.988 338.545 392.211 340.541 392.822 342.949 392.822 345.769 392.822 348.597 392.213 351.006 390.994 352.994 389.775 354.982 388.021 356.277 385.732 356.879L385.451 355.976C387.256 355.375 388.597 354.187 389.476 352.414 390.355 350.64 390.795 348.386 390.795 345.652 390.795 343.011 390.357 340.818 389.482 339.072 388.607 337.326 387.252 336.152 385.416 335.55ZM353.256 334.648 353.573 335.55C351.745 336.152 350.391 337.326 349.512 339.072 348.633 340.818 348.194 343.011 348.194 345.652 348.194 348.386 348.633 350.64 349.512 352.414 350.391 354.187 351.733 355.375 353.538 355.976L353.256 356.879C350.967 356.277 349.213 354.982 347.995 352.994 346.776 351.006 346.167 348.597 346.167 345.769 346.167 342.949 346.778 340.541 348.001 338.545 349.223 336.548 350.975 335.25 353.256 334.648Z" fill-rule="evenodd"/><text font-family="Cambria Math,Cambria Math_MSFontService,sans-serif" font-weight="400" font-size="24" transform="translate(354.017 353)">𝑖</text><text font-family="Cambria Math,Cambria Math_MSFontService,sans-serif" font-weight="400" font-size="24" transform="translate(362.444 353)">,</text><text font-family="Cambria Math,Cambria Math_MSFontService,sans-serif" font-weight="400" font-size="24" transform="translate(371.444 353)">𝑏</text><path d="M330.504 330.819 338.237 330.819 340.828 330.819 345.964 330.819 348.561 330.819 353.69 330.819 356.288 330.819 361.417 330.819 364.015 330.819 369.144 330.819 371.741 330.819 376.87 330.819 379.468 330.819 384.597 330.819 387.195 330.819 394.921 330.819 394.921 332.061 387.195 332.061 384.597 332.061 379.468 332.061 376.87 332.061 371.741 332.061 369.144 332.061 364.015 332.061 361.417 332.061 356.288 332.061 353.69 332.061 348.561 332.061 345.964 332.061 340.828 332.061 338.237 332.061 330.504 332.061Z" fill-rule="evenodd"/><text font-family="Cambria Math,Cambria Math_MSFontService,sans-serif" font-weight="400" font-size="24" transform="translate(394.931 353)">)</text><text font-family="Source Han Sans JP Medium,Source Han Sans JP Medium_MSFontService,sans-serif" font-weight="500" font-size="24" transform="translate(404.931 353)">.</text><text font-family="Cambria Math,Cambria Math_MSFontService,sans-serif" font-weight="400" font-size="24" transform="translate(71.2049 284)">𝑥</text><path d="M126.833 266.049C129.115 266.651 130.866 267.95 132.089 269.946 133.312 271.942 133.923 274.35 133.923 277.17 133.923 279.998 133.314 282.407 132.095 284.395 130.876 286.383 129.122 287.678 126.833 288.28L126.552 287.377C128.357 286.776 129.699 285.588 130.577 283.815 131.456 282.041 131.896 279.787 131.896 277.053 131.896 274.412 131.458 272.219 130.583 270.473 129.708 268.727 128.353 267.553 126.517 266.951ZM93.9641 266.049 94.2805 266.951C92.4524 267.553 91.0989 268.727 90.22 270.473 89.341 272.219 88.9016 274.412 88.9016 277.053 88.9016 279.787 89.341 282.041 90.22 283.815 91.0989 285.588 92.4407 286.776 94.2453 287.377L93.9641 288.28C91.675 287.678 89.9211 286.383 88.7024 284.395 87.4836 282.407 86.8743 279.998 86.8743 277.17 86.8743 274.35 87.4856 271.942 88.7082 269.946 89.9309 267.95 91.6828 266.651 93.9641 266.049Z" fill-rule="evenodd"/><text font-family="Cambria Math,Cambria Math_MSFontService,sans-serif" font-weight="400" font-size="24" transform="translate(94.7249 284)">𝑖</text><text font-family="Cambria Math,Cambria Math_MSFontService,sans-serif" font-weight="400" font-size="24" transform="translate(103.152 284)">,</text><text font-family="Cambria Math,Cambria Math_MSFontService,sans-serif" font-weight="400" font-size="24" transform="translate(112.152 284)">𝑎</text><text font-family="Cambria Math,Cambria Math_MSFontService,sans-serif" font-weight="400" font-size="24" transform="translate(142.698 284)">=</text><text font-family="Cambria Math,Cambria Math_MSFontService,sans-serif" font-weight="400" font-size="24" transform="translate(167.365 284)">1</text><text font-family="Cambria Math,Cambria Math_MSFontService,sans-serif" font-weight="400" font-size="24" transform="translate(180.698 284)">,</text><text font-family="Cambria Math,Cambria Math_MSFontService,sans-serif" font-weight="400" font-size="24" transform="translate(189.698 284)">𝑥</text><path d="M244.933 266.049C247.215 266.651 248.966 267.95 250.189 269.946 251.412 271.942 252.023 274.35 252.023 277.17 252.023 279.998 251.414 282.407 250.195 284.395 248.976 286.383 247.222 287.678 244.933 288.28L244.652 287.377C246.457 286.776 247.798 285.588 248.677 283.815 249.556 282.041 249.996 279.787 249.996 277.053 249.996 274.412 249.558 272.219 248.683 270.473 247.808 268.727 246.453 267.553 244.617 266.951ZM212.457 266.049 212.774 266.951C210.946 267.553 209.592 268.727 208.713 270.473 207.834 272.219 207.395 274.412 207.395 277.053 207.395 279.787 207.834 282.041 208.713 283.815 209.592 285.588 210.934 286.776 212.739 287.377L212.457 288.28C210.168 287.678 208.414 286.383 207.196 284.395 205.977 282.407 205.368 279.998 205.368 277.17 205.368 274.35 205.979 271.942 207.202 269.946 208.424 267.95 210.176 266.651 212.457 266.049Z" fill-rule="evenodd"/><text font-family="Cambria Math,Cambria Math_MSFontService,sans-serif" font-weight="400" font-size="24" transform="translate(213.218 284)">𝑖</text><text font-family="Cambria Math,Cambria Math_MSFontService,sans-serif" font-weight="400" font-size="24" transform="translate(221.645 284)">,</text><text font-family="Cambria Math,Cambria Math_MSFontService,sans-serif" font-weight="400" font-size="24" transform="translate(230.645 284)">𝑏</text><text font-family="Cambria Math,Cambria Math_MSFontService,sans-serif" font-weight="400" font-size="24" transform="translate(260.798 284)">=</text><text fill="#FF0000" font-family="Cambria Math,Cambria Math_MSFontService,sans-serif" font-weight="400" font-size="24" transform="translate(285.465 284)">1</text><text font-family="Cambria Math,Cambria Math_MSFontService,sans-serif" font-weight="400" font-size="24" transform="translate(298.798 284)">,</text><text font-family="Cambria Math,Cambria Math_MSFontService,sans-serif" font-weight="400" font-size="24" transform="translate(307.798 284)">𝑦</text><path d="M340.86 266.049C343.141 266.651 344.893 267.95 346.116 269.946 347.338 271.942 347.95 274.35 347.95 277.17 347.95 279.998 347.34 282.407 346.122 284.395 344.903 286.383 343.149 287.678 340.86 288.28L340.579 287.377C342.383 286.776 343.725 285.588 344.604 283.815 345.483 282.041 345.922 279.787 345.922 277.053 345.922 274.412 345.485 272.219 344.61 270.473 343.735 268.727 342.379 267.553 340.544 266.951ZM330.911 266.049 331.227 266.951C329.399 267.553 328.046 268.727 327.167 270.473 326.288 272.219 325.848 274.412 325.848 277.053 325.848 279.787 326.288 282.041 327.167 283.815 328.046 285.588 329.387 286.776 331.192 287.377L330.911 288.28C328.622 287.678 326.868 286.383 325.649 284.395 324.43 282.407 323.821 279.998 323.821 277.17 323.821 274.35 324.432 271.942 325.655 269.946 326.878 267.95 328.63 266.651 330.911 266.049Z" fill-rule="evenodd"/><text font-family="Cambria Math,Cambria Math_MSFontService,sans-serif" font-weight="400" font-size="24" transform="translate(331.672 284)">𝑖</text><text font-family="Cambria Math,Cambria Math_MSFontService,sans-serif" font-weight="400" font-size="24" transform="translate(356.725 284)">=</text><text font-family="Cambria Math,Cambria Math_MSFontService,sans-serif" font-weight="400" font-size="24" transform="translate(381.392 284)">1</text><text font-family="Cambria Math,Cambria Math_MSFontService,sans-serif" font-weight="400" font-size="24" transform="translate(394.725 284)">,</text><text font-family="Cambria Math,Cambria Math_MSFontService,sans-serif" font-weight="400" font-size="24" transform="translate(403.725 284)">𝑦</text><path d="M478.787 266.049C481.068 266.651 482.82 267.95 484.042 269.946 485.265 271.942 485.876 274.35 485.876 277.17 485.876 279.998 485.267 282.407 484.048 284.395 482.83 286.383 481.076 287.678 478.787 288.28L478.505 287.377C480.31 286.776 481.652 285.588 482.531 283.815 483.41 282.041 483.849 279.787 483.849 277.053 483.849 274.412 483.412 272.219 482.537 270.473 481.662 268.727 480.306 267.553 478.47 266.951ZM426.837 266.049 427.154 266.951C425.326 267.553 423.972 268.727 423.093 270.473 422.214 272.219 421.775 274.412 421.775 277.053 421.775 279.787 422.214 282.041 423.093 283.815 423.972 285.588 425.314 286.776 427.119 287.377L426.837 288.28C424.548 287.678 422.794 286.383 421.576 284.395 420.357 282.407 419.748 279.998 419.748 277.17 419.748 274.35 420.359 271.942 421.582 269.946 422.804 267.95 424.556 266.651 426.837 266.049Z" fill-rule="evenodd"/><text font-family="Cambria Math,Cambria Math_MSFontService,sans-serif" font-weight="400" font-size="24" transform="translate(427.598 284)">𝑖</text><text font-family="Cambria Math,Cambria Math_MSFontService,sans-serif" font-weight="400" font-size="24" transform="translate(441.358 284)">+</text><text font-family="Cambria Math,Cambria Math_MSFontService,sans-serif" font-weight="400" font-size="24" transform="translate(464.692 284)">1</text><text font-family="Cambria Math,Cambria Math_MSFontService,sans-serif" font-weight="400" font-size="24" transform="translate(494.652 284)">=</text><text font-family="Cambria Math,Cambria Math_MSFontService,sans-serif" font-weight="400" font-size="24" transform="translate(519.318 284)">0</text><text font-family="Cambria Math,Cambria Math_MSFontService,sans-serif" font-weight="400" font-size="24" transform="translate(532.652 284)">,</text><text font-family="Cambria Math,Cambria Math_MSFontService,sans-serif" font-weight="400" font-size="24" transform="translate(541.652 284)">𝑧</text><path d="M578.18 266.049C580.461 266.651 582.213 267.95 583.436 269.946 584.658 271.942 585.27 274.35 585.27 277.17 585.27 279.998 584.66 282.407 583.442 284.395 582.223 286.383 580.469 287.678 578.18 288.28L577.899 287.377C579.703 286.776 581.045 285.588 581.924 283.815 582.803 282.041 583.242 279.787 583.242 277.053 583.242 274.412 582.805 272.219 581.93 270.473 581.055 268.727 579.699 267.553 577.864 266.951ZM562.931 266.049 563.247 266.951C561.419 267.553 560.066 268.727 559.187 270.473 558.308 272.219 557.868 274.412 557.868 277.053 557.868 279.787 558.308 282.041 559.187 283.815 560.066 285.588 561.407 286.776 563.212 287.377L562.931 288.28C560.642 287.678 558.888 286.383 557.669 284.395 556.45 282.407 555.841 279.998 555.841 277.17 555.841 274.35 556.452 271.942 557.675 269.946 558.898 267.95 560.65 266.651 562.931 266.049Z" fill-rule="evenodd"/><text font-family="Cambria Math,Cambria Math_MSFontService,sans-serif" font-weight="400" font-size="24" transform="translate(563.692 284)">𝑞</text><text font-family="Cambria Math,Cambria Math_MSFontService,sans-serif" font-weight="400" font-size="24" transform="translate(594.045 284)">=</text><text font-family="Cambria Math,Cambria Math_MSFontService,sans-serif" font-weight="400" font-size="24" transform="translate(618.712 284)">1</text><text font-family="Cambria Math,Cambria Math_MSFontService,sans-serif" font-weight="400" font-size="24" transform="translate(632.045 284)">,</text><text font-family="Cambria Math,Cambria Math_MSFontService,sans-serif" font-weight="400" font-size="24" transform="translate(641.045 284)">𝑧</text><path d="M684.733 266.049C687.015 266.651 688.766 267.95 689.989 269.946 691.212 271.942 691.823 274.35 691.823 277.17 691.823 279.998 691.214 282.407 689.995 284.395 688.776 286.383 687.022 287.678 684.733 288.28L684.452 287.377C686.257 286.776 687.599 285.588 688.477 283.815 689.356 282.041 689.796 279.787 689.796 277.053 689.796 274.412 689.358 272.219 688.483 270.473 687.608 268.727 686.253 267.553 684.417 266.951ZM662.324 266.049 662.641 266.951C660.812 267.553 659.459 268.727 658.58 270.473 657.701 272.219 657.262 274.412 657.262 277.053 657.262 279.787 657.701 282.041 658.58 283.815 659.459 285.588 660.801 286.776 662.605 287.377L662.324 288.28C660.035 287.678 658.281 286.383 657.062 284.395 655.844 282.407 655.234 279.998 655.234 277.17 655.234 274.35 655.846 271.942 657.068 269.946 658.291 267.95 660.043 266.651 662.324 266.049Z" fill-rule="evenodd"/><text font-family="Cambria Math,Cambria Math_MSFontService,sans-serif" font-weight="400" font-size="24" transform="translate(663.085 284)">𝑞</text><text font-family="Cambria Math,Cambria Math_MSFontService,sans-serif" font-weight="400" font-size="17.52" transform="translate(676.812 275)">′</text><text font-family="Cambria Math,Cambria Math_MSFontService,sans-serif" font-weight="400" font-size="24" transform="translate(700.598 284)">=</text><text font-family="Cambria Math,Cambria Math_MSFontService,sans-serif" font-weight="400" font-size="24" transform="translate(725.265 284)">0</text><text font-family="Cambria Math,Cambria Math_MSFontService,sans-serif" font-weight="400" font-size="24" transform="translate(734.151 133)">𝑡</text><path d="M809.033 115.501C811.314 116.103 813.066 117.401 814.289 119.398 815.511 121.394 816.123 123.802 816.123 126.622 816.123 129.45 815.513 131.859 814.295 133.847 813.076 135.835 811.322 137.13 809.033 137.732L808.752 136.829C810.556 136.228 811.898 135.04 812.777 133.267 813.656 131.493 814.095 129.239 814.095 126.505 814.095 123.864 813.658 121.671 812.783 119.925 811.908 118.179 810.552 117.005 808.716 116.403ZM753.437 115.501 753.753 116.403C751.925 117.005 750.572 118.179 749.693 119.925 748.814 121.671 748.375 123.864 748.375 126.505 748.375 129.239 748.814 131.493 749.693 133.267 750.572 135.04 751.914 136.228 753.718 136.829L753.437 137.732C751.148 137.13 749.394 135.835 748.175 133.847 746.957 131.859 746.347 129.45 746.347 126.622 746.347 123.802 746.959 121.394 748.181 119.398 749.404 117.401 751.156 116.103 753.437 115.501Z" fill-rule="evenodd"/><text font-family="Cambria Math,Cambria Math_MSFontService,sans-serif" font-weight="400" font-size="24" transform="translate(754.198 133)">𝑖</text><text font-family="Cambria Math,Cambria Math_MSFontService,sans-serif" font-weight="400" font-size="24" transform="translate(762.625 133)">,</text><text font-family="Cambria Math,Cambria Math_MSFontService,sans-serif" font-weight="400" font-size="24" transform="translate(771.625 133)">𝑞</text><text font-family="Cambria Math,Cambria Math_MSFontService,sans-serif" font-weight="400" font-size="24" transform="translate(785.351 133)">,</text><text font-family="Cambria Math,Cambria Math_MSFontService,sans-serif" font-weight="400" font-size="24" transform="translate(794.351 133)">𝑎</text><text font-family="Cambria Math,Cambria Math_MSFontService,sans-serif" font-weight="400" font-size="24" transform="translate(824.898 133)">=</text><text font-family="Cambria Math,Cambria Math_MSFontService,sans-serif" font-weight="400" font-size="24" transform="translate(849.565 133)">1</text><text font-family="Source Han Sans JP Medium,Source Han Sans JP Medium_MSFontService,sans-serif" font-weight="500" font-size="24" transform="translate(646.778 161)">The other values of</text><text font-family="Cambria Math,Cambria Math_MSFontService,sans-serif" font-weight="400" font-size="24" transform="translate(869.125 161)">𝑡</text><text font-family="Source Han Sans JP Medium,Source Han Sans JP Medium_MSFontService,sans-serif" font-weight="500" font-size="24" transform="translate(884.544 161)">are</text><text font-family="Cambria Math,Cambria Math_MSFontService,sans-serif" font-weight="400" font-size="24" transform="translate(926.778 161)">0</text><text font-family="Source Han Sans JP Medium,Source Han Sans JP Medium_MSFontService,sans-serif" font-weight="500" font-size="24" transform="translate(940.111 161)">.</text><text font-family="Cambria Math,Cambria Math_MSFontService,sans-serif" font-weight="400" font-size="24" transform="translate(149.463 412)">𝑥</text><path d="M205.091 393.576C207.372 394.178 209.124 395.477 210.347 397.473 211.569 399.469 212.181 401.877 212.181 404.697 212.181 407.525 211.571 409.934 210.353 411.922 209.134 413.91 207.38 415.205 205.091 415.807L204.81 414.904C206.614 414.303 207.956 413.115 208.835 411.342 209.714 409.568 210.153 407.314 210.153 404.58 210.153 401.939 209.716 399.746 208.841 398 207.966 396.254 206.61 395.08 204.775 394.479ZM172.222 393.576 172.538 394.479C170.71 395.08 169.357 396.254 168.478 398 167.599 399.746 167.159 401.939 167.159 404.58 167.159 407.314 167.599 409.568 168.478 411.342 169.357 413.115 170.698 414.303 172.503 414.904L172.222 415.807C169.933 415.205 168.179 413.91 166.96 411.922 165.741 409.934 165.132 407.525 165.132 404.697 165.132 401.877 165.743 399.469 166.966 397.473 168.189 395.477 169.941 394.178 172.222 393.576Z" fill-rule="evenodd"/><text font-family="Cambria Math,Cambria Math_MSFontService,sans-serif" font-weight="400" font-size="24" transform="translate(172.983 412)">𝑖</text><text font-family="Cambria Math,Cambria Math_MSFontService,sans-serif" font-weight="400" font-size="24" transform="translate(181.409 412)">,</text><text font-family="Cambria Math,Cambria Math_MSFontService,sans-serif" font-weight="400" font-size="24" transform="translate(190.409 412)">𝑎</text><text font-family="Cambria Math,Cambria Math_MSFontService,sans-serif" font-weight="400" font-size="24" transform="translate(220.956 412)">=</text><text font-family="Cambria Math,Cambria Math_MSFontService,sans-serif" font-weight="400" font-size="24" transform="translate(245.623 412)">1</text><text font-family="Cambria Math,Cambria Math_MSFontService,sans-serif" font-weight="400" font-size="24" transform="translate(258.956 412)">,</text><text font-family="Cambria Math,Cambria Math_MSFontService,sans-serif" font-weight="400" font-size="24" transform="translate(267.956 412)">𝑥</text><path d="M323.191 393.576C325.472 394.178 327.224 395.477 328.447 397.473 329.669 399.469 330.281 401.877 330.281 404.697 330.281 407.525 329.671 409.934 328.453 411.922 327.234 413.91 325.48 415.205 323.191 415.807L322.91 414.904C324.714 414.303 326.056 413.115 326.935 411.342 327.814 409.568 328.253 407.314 328.253 404.58 328.253 401.939 327.816 399.746 326.941 398 326.066 396.254 324.711 395.08 322.875 394.479ZM290.715 393.576 291.032 394.479C289.203 395.08 287.85 396.254 286.971 398 286.092 399.746 285.653 401.939 285.653 404.58 285.653 407.314 286.092 409.568 286.971 411.342 287.85 413.115 289.192 414.303 290.996 414.904L290.715 415.807C288.426 415.205 286.672 413.91 285.453 411.922 284.235 409.934 283.625 407.525 283.625 404.697 283.625 401.877 284.237 399.469 285.459 397.473 286.682 395.477 288.434 394.178 290.715 393.576Z" fill-rule="evenodd"/><text font-family="Cambria Math,Cambria Math_MSFontService,sans-serif" font-weight="400" font-size="24" transform="translate(291.476 412)">𝑖</text><text font-family="Cambria Math,Cambria Math_MSFontService,sans-serif" font-weight="400" font-size="24" transform="translate(299.903 412)">,</text><text font-family="Cambria Math,Cambria Math_MSFontService,sans-serif" font-weight="400" font-size="24" transform="translate(308.903 412)">𝑏</text><text font-family="Cambria Math,Cambria Math_MSFontService,sans-serif" font-weight="400" font-size="24" transform="translate(339.056 412)">=</text><text fill="#FF0000" font-family="Cambria Math,Cambria Math_MSFontService,sans-serif" font-weight="400" font-size="24" transform="translate(363.723 412)">1</text><text font-family="Source Han Sans JP Medium,Source Han Sans JP Medium_MSFontService,sans-serif" font-weight="500" font-size="24" transform="translate(382.389 412)">does not satisfy</text><path d="M731.857 390.198C734.295 390.839 736.174 392.499 737.494 395.179 738.814 397.858 739.474 401.03 739.474 404.694 739.474 408.358 738.814 411.53 737.494 414.21 736.174 416.89 734.295 418.55 731.857 419.19L731.564 418.229C733.455 417.518 734.887 415.97 735.859 413.583 736.832 411.196 737.318 408.237 737.318 404.706 737.318 401.167 736.832 398.202 735.859 395.811 734.887 393.421 733.455 391.87 731.564 391.159ZM575.656 390.198 575.949 391.159C574.058 391.87 572.627 393.421 571.654 395.811 570.681 398.202 570.195 401.167 570.195 404.706 570.195 408.237 570.681 411.196 571.654 413.583 572.627 415.97 574.058 417.518 575.949 418.229L575.656 419.19C573.218 418.55 571.339 416.89 570.019 414.21 568.699 411.53 568.039 408.358 568.039 404.694 568.039 401.03 568.699 397.858 570.019 395.179 571.339 392.499 573.218 390.839 575.656 390.198Z" fill-rule="evenodd"/><text font-family="Cambria Math,Cambria Math_MSFontService,sans-serif" font-weight="400" font-size="24" transform="translate(576.709 412)">𝑥</text><path d="M632.338 393.576C634.619 394.178 636.371 395.477 637.594 397.473 638.816 399.469 639.427 401.877 639.427 404.697 639.427 407.525 638.818 409.934 637.599 411.922 636.381 413.91 634.627 415.205 632.338 415.807L632.056 414.904C633.861 414.303 635.203 413.115 636.082 411.342 636.961 409.568 637.4 407.314 637.4 404.58 637.4 401.939 636.963 399.746 636.088 398 635.213 396.254 633.857 395.08 632.021 394.479ZM599.468 393.576 599.785 394.479C597.957 395.08 596.603 396.254 595.724 398 594.845 399.746 594.406 401.939 594.406 404.58 594.406 407.314 594.845 409.568 595.724 411.342 596.603 413.115 597.945 414.303 599.75 414.904L599.468 415.807C597.179 415.205 595.425 413.91 594.207 411.922 592.988 409.934 592.379 407.525 592.379 404.697 592.379 401.877 592.99 399.469 594.213 397.473 595.435 395.477 597.187 394.178 599.468 393.576Z" fill-rule="evenodd"/><text font-family="Cambria Math,Cambria Math_MSFontService,sans-serif" font-weight="400" font-size="24" transform="translate(600.229 412)">𝑖</text><text font-family="Cambria Math,Cambria Math_MSFontService,sans-serif" font-weight="400" font-size="24" transform="translate(608.656 412)">,</text><text font-family="Cambria Math,Cambria Math_MSFontService,sans-serif" font-weight="400" font-size="24" transform="translate(617.656 412)">𝑎</text><path d="M576.716 389.747 584.503 389.747 587.04 389.747 592.289 389.747 594.827 389.747 600.076 389.747 602.613 389.747 607.863 389.747 610.4 389.747 615.649 389.747 618.187 389.747 623.429 389.747 625.973 389.747 631.209 389.747 633.753 389.747 641.533 389.747 641.533 390.989 633.753 390.989 631.209 390.989 625.973 390.989 623.429 390.989 618.187 390.989 615.649 390.989 610.4 390.989 607.863 390.989 602.613 390.989 600.076 390.989 594.827 390.989 592.289 390.989 587.04 390.989 584.503 390.989 576.716 390.989Z" fill-rule="evenodd"/><text font-family="Cambria Math,Cambria Math_MSFontService,sans-serif" font-weight="400" font-size="24" transform="translate(646.869 412)">∨</text><text font-family="Cambria Math,Cambria Math_MSFontService,sans-serif" font-weight="400" font-size="24" transform="translate(666.369 412)">𝑥</text><path d="M721.604 393.576C723.886 394.178 725.638 395.477 726.86 397.473 728.083 399.469 728.694 401.877 728.694 404.697 728.694 407.525 728.085 409.934 726.866 411.922 725.647 413.91 723.893 415.205 721.604 415.807L721.323 414.904C723.128 414.303 724.47 413.115 725.348 411.342 726.227 409.568 726.667 407.314 726.667 404.58 726.667 401.939 726.229 399.746 725.354 398 724.479 396.254 723.124 395.08 721.288 394.479ZM689.128 393.576 689.445 394.479C687.617 395.08 686.263 396.254 685.384 398 684.505 399.746 684.066 401.939 684.066 404.58 684.066 407.314 684.505 409.568 685.384 411.342 686.263 413.115 687.605 414.303 689.41 414.904L689.128 415.807C686.839 415.205 685.086 413.91 683.867 411.922 682.648 409.934 682.039 407.525 682.039 404.697 682.039 401.877 682.65 399.469 683.873 397.473 685.095 395.477 686.847 394.178 689.128 393.576Z" fill-rule="evenodd"/><text font-family="Cambria Math,Cambria Math_MSFontService,sans-serif" font-weight="400" font-size="24" transform="translate(689.889 412)">𝑖</text><text font-family="Cambria Math,Cambria Math_MSFontService,sans-serif" font-weight="400" font-size="24" transform="translate(698.316 412)">,</text><text font-family="Cambria Math,Cambria Math_MSFontService,sans-serif" font-weight="400" font-size="24" transform="translate(707.316 412)">𝑏</text><path d="M666.376 389.747 674.109 389.747 676.7 389.747 681.836 389.747 684.433 389.747 689.563 389.747 692.16 389.747 697.289 389.747 699.887 389.747 705.016 389.747 707.613 389.747 712.743 389.747 715.34 389.747 720.469 389.747 723.067 389.747 730.793 389.747 730.793 390.989 723.067 390.989 720.469 390.989 715.34 390.989 712.743 390.989 707.613 390.989 705.016 390.989 699.887 390.989 697.289 390.989 692.16 390.989 689.563 390.989 684.433 390.989 681.836 390.989 676.7 390.989 674.109 390.989 666.376 390.989Z" fill-rule="evenodd"/><text font-family="Cambria Math,Cambria Math_MSFontService,sans-serif" font-weight="400" font-size="24" transform="translate(578.69 473)">𝑥</text><path d="M634.318 454.574C636.6 455.175 638.352 456.474 639.574 458.47 640.797 460.466 641.408 462.874 641.408 465.695 641.408 468.523 640.799 470.931 639.58 472.919 638.361 474.908 636.607 476.202 634.318 476.804L634.037 475.902C635.842 475.3 637.184 474.113 638.063 472.339 638.941 470.566 639.381 468.312 639.381 465.577 639.381 462.937 638.943 460.743 638.068 458.997 637.193 457.251 635.838 456.077 634.002 455.476ZM601.449 454.574 601.766 455.476C599.938 456.077 598.584 457.251 597.705 458.997 596.826 460.743 596.387 462.937 596.387 465.577 596.387 468.312 596.826 470.566 597.705 472.339 598.584 474.113 599.926 475.3 601.731 475.902L601.449 476.804C599.16 476.202 597.406 474.908 596.188 472.919 594.969 470.931 594.359 468.523 594.359 465.695 594.359 462.874 594.971 460.466 596.193 458.47 597.416 456.474 599.168 455.175 601.449 454.574Z" fill-rule="evenodd"/><text font-family="Cambria Math,Cambria Math_MSFontService,sans-serif" font-weight="400" font-size="24" transform="translate(602.21 473)">𝑖</text><text font-family="Cambria Math,Cambria Math_MSFontService,sans-serif" font-weight="400" font-size="24" transform="translate(610.637 473)">,</text><text font-family="Cambria Math,Cambria Math_MSFontService,sans-serif" font-weight="400" font-size="24" transform="translate(619.637 473)">𝑎</text><path d="M578.697 450.744 586.483 450.744 589.021 450.744 594.27 450.744 596.808 450.744 602.057 450.744 604.594 450.744 609.843 450.744 612.381 450.744 617.63 450.744 620.168 450.744 625.41 450.744 627.954 450.744 633.19 450.744 635.734 450.744 643.514 450.744 643.514 451.986 635.734 451.986 633.19 451.986 627.954 451.986 625.41 451.986 620.168 451.986 617.63 451.986 612.381 451.986 609.843 451.986 604.594 451.986 602.057 451.986 596.808 451.986 594.27 451.986 589.021 451.986 586.483 451.986 578.697 451.986Z" fill-rule="evenodd"/><text font-family="Cambria Math,Cambria Math_MSFontService,sans-serif" font-weight="400" font-size="24" transform="translate(648.85 473)">∨</text><text font-family="Cambria Math,Cambria Math_MSFontService,sans-serif" font-weight="400" font-size="24" transform="translate(668.35 473)">𝑥</text><path d="M723.585 454.574C725.866 455.175 727.618 456.474 728.841 458.47 730.064 460.466 730.675 462.874 730.675 465.695 730.675 468.523 730.066 470.931 728.847 472.919 727.628 474.908 725.874 476.202 723.585 476.804L723.304 475.902C725.109 475.3 726.45 474.113 727.329 472.339 728.208 470.566 728.648 468.312 728.648 465.577 728.648 462.937 728.21 460.743 727.335 458.997 726.46 457.251 725.105 456.077 723.269 455.476ZM691.109 454.574 691.426 455.476C689.598 456.077 688.244 457.251 687.365 458.997 686.486 460.743 686.047 462.937 686.047 465.577 686.047 468.312 686.486 470.566 687.365 472.339 688.244 474.113 689.586 475.3 691.391 475.902L691.109 476.804C688.82 476.202 687.066 474.908 685.848 472.919 684.629 470.931 684.019 468.523 684.019 465.695 684.019 462.874 684.631 460.466 685.853 458.47 687.076 456.474 688.828 455.175 691.109 454.574Z" fill-rule="evenodd"/><text font-family="Cambria Math,Cambria Math_MSFontService,sans-serif" font-weight="400" font-size="24" transform="translate(691.87 473)">𝑖</text><text font-family="Cambria Math,Cambria Math_MSFontService,sans-serif" font-weight="400" font-size="24" transform="translate(700.297 473)">,</text><text font-family="Cambria Math,Cambria Math_MSFontService,sans-serif" font-weight="400" font-size="24" transform="translate(709.297 473)">𝑏</text><path d="M668.357 450.744 676.09 450.744 678.681 450.744 683.817 450.744 686.414 450.744 691.543 450.744 694.141 450.744 699.27 450.744 701.868 450.744 706.997 450.744 709.594 450.744 714.723 450.744 717.321 450.744 722.45 450.744 725.048 450.744 732.774 450.744 732.774 451.986 725.048 451.986 722.45 451.986 717.321 451.986 714.723 451.986 709.594 451.986 706.997 451.986 701.868 451.986 699.27 451.986 694.141 451.986 691.543 451.986 686.414 451.986 683.817 451.986 678.681 451.986 676.09 451.986 668.357 451.986Z" fill-rule="evenodd"/><text font-family="Cambria Math,Cambria Math_MSFontService,sans-serif" font-weight="400" font-size="24" transform="translate(738.117 473)">∨</text><path d="M33.7383-29.7656 18.6328 16.0547 15.2109 16.0547 0.703125-29.7656 4.13672-29.7656 17.1445 11.9414 30.4688-29.7656Z" transform="translate(757.643 473)"/><text fill="#000000" fill-opacity="0" font-family="Arial,Arial_MSFontService,sans-serif" font-size="45.8203" x="0.703125" y="10.3271">ሧ</text><text font-family="Cambria Math,Cambria Math_MSFontService,sans-serif" font-weight="400" font-size="24" transform="translate(796.11 473)">𝑡</text><text font-family="Cambria Math,Cambria Math_MSFontService,sans-serif" font-weight="400" font-size="24" transform="translate(806.197 473)">(</text><text font-family="Cambria Math,Cambria Math_MSFontService,sans-serif" font-weight="400" font-size="24" transform="translate(816.197 473)">𝑖</text><text font-family="Cambria Math,Cambria Math_MSFontService,sans-serif" font-weight="400" font-size="24" transform="translate(824.623 473)">,</text><text font-family="Cambria Math,Cambria Math_MSFontService,sans-serif" font-weight="400" font-size="24" transform="translate(833.623 473)">𝑞</text><text font-family="Cambria Math,Cambria Math_MSFontService,sans-serif" font-weight="400" font-size="24" transform="translate(847.35 473)">,</text><text font-family="Cambria Math,Cambria Math_MSFontService,sans-serif" font-weight="400" font-size="24" transform="translate(856.35 473)">𝑎</text><text font-family="Cambria Math,Cambria Math_MSFontService,sans-serif" font-weight="400" font-size="24" transform="translate(870.27 473)">)</text><text font-family="Cambria Math,Cambria Math_MSFontService,sans-serif" font-weight="400" font-size="17.52" transform="translate(757.617 503)">𝑞</text><text font-family="Cambria Math,Cambria Math_MSFontService,sans-serif" font-weight="400" font-size="17.52" transform="translate(768.643 503)">∈</text><text font-family="Cambria Math,Cambria Math_MSFontService,sans-serif" font-weight="400" font-size="17.52" transform="translate(779.477 503)">𝑄</text><text font-family="Source Han Sans JP Medium,Source Han Sans JP Medium_MSFontService,sans-serif" font-weight="500" font-size="24" transform="translate(383.819 472)">but does satisfy</text><path d="M292 223 292 252.815 290 252.815 290 223ZM295 251.481 291 259.481 287 251.481Z" fill="#5B9BD5"/><text font-family="Source Han Sans JP Medium,Source Han Sans JP Medium_MSFontService,sans-serif" font-weight="500" font-size="24" transform="translate(204.453 248)">we flip</text></g></svg>