<svg width="960" height="720" xmlns="http://www.w3.org/2000/svg" xmlns:xlink="http://www.w3.org/1999/xlink" overflow="hidden"><defs><clipPath id="clip0"><rect x="0" y="0" width="960" height="720"/></clipPath></defs><g clip-path="url(#clip0)"><rect x="0" y="0" width="960" height="720" fill="#FFFFFF"/><rect x="0.500053" y="0.500053" width="960" height="76" stroke="#DEEBF7" stroke-width="1.33333" stroke-miterlimit="8" fill="#DEEBF7"/><text fill="#898989" font-family="Source Han Sans JP Medium,Source Han Sans JP Medium_MSFontService,sans-serif" font-weight="500" font-size="16" transform="translate(875.1 692)">4</text><text font-family="Source Han Sans JP Medium,Source Han Sans JP Medium_MSFontService,sans-serif" font-weight="500" font-size="42.6667" transform="translate(75.6 55)">(review) Polynomial time reducible</text><text font-family="Source Han Sans JP Medium,Source Han Sans JP Medium_MSFontService,sans-serif" font-weight="500" font-size="24" transform="translate(136.826 117)">Language</text><text font-family="Cambria Math,Cambria Math_MSFontService,sans-serif" font-weight="400" font-size="24" transform="translate(253.753 117)">ğ´</text><text font-family="Source Han Sans JP Medium,Source Han Sans JP Medium_MSFontService,sans-serif" font-weight="500" font-size="24" transform="translate(274.486 117)">is</text><text fill="#FF0000" font-family="Source Han Sans JP Medium,Source Han Sans JP Medium_MSFontService,sans-serif" font-weight="500" font-size="24" transform="translate(298.153 117)">polynomial time reducible to</text><text font-family="Source Han Sans JP Medium,Source Han Sans JP Medium_MSFontService,sans-serif" font-weight="500" font-size="24" transform="translate(136.826 145)">language</text><text font-family="Cambria Math,Cambria Math_MSFontService,sans-serif" font-weight="400" font-size="24" transform="translate(247.586 145)">ğµ</text><text font-family="Source Han Sans JP Medium,Source Han Sans JP Medium_MSFontService,sans-serif" font-weight="500" font-size="24" transform="translate(269.399 145)">if a polynomial time computable</text><text font-family="Source Han Sans JP Medium,Source Han Sans JP Medium_MSFontService,sans-serif" font-weight="500" font-size="24" transform="translate(136.826 174)">function</text><text font-family="Cambria Math,Cambria Math_MSFontService,sans-serif" font-weight="400" font-size="24" transform="translate(238.393 174)">ğ‘“</text><text font-family="Source Han Sans JP Medium,Source Han Sans JP Medium_MSFontService,sans-serif" font-weight="500" font-size="24" transform="translate(257.593 174)">exists, where for every</text><text font-family="Cambria Math,Cambria Math_MSFontService,sans-serif" font-weight="400" font-size="24" transform="translate(517.546 174)">ğ‘¤</text><text font-family="Source Han Sans JP Medium,Source Han Sans JP Medium_MSFontService,sans-serif" font-weight="500" font-size="24" transform="translate(535.913 174)">,</text><text font-family="Cambria Math,Cambria Math_MSFontService,sans-serif" font-weight="400" font-size="32" transform="translate(245.652 217)">ğ‘¤</text><text font-family="Cambria Math,Cambria Math_MSFontService,sans-serif" font-weight="400" font-size="32" transform="translate(279.145 217)">âˆˆ</text><text font-family="Cambria Math,Cambria Math_MSFontService,sans-serif" font-weight="400" font-size="32" transform="translate(308.032 217)">ğ´</text><text font-family="Cambria Math,Cambria Math_MSFontService,sans-serif" font-weight="400" font-size="32" transform="translate(328.678 217)"></text><text font-family="Cambria Math,Cambria Math_MSFontService,sans-serif" font-weight="400" font-size="32" transform="translate(335.678 217)"></text><text font-family="Cambria Math,Cambria Math_MSFontService,sans-serif" font-weight="400" font-size="32" transform="translate(342.678 217)"></text><text font-family="Cambria Math,Cambria Math_MSFontService,sans-serif" font-weight="400" font-size="32" transform="translate(358.565 217)">â‡”</text><text font-family="Cambria Math,Cambria Math_MSFontService,sans-serif" font-weight="400" font-size="32" transform="translate(400.618 217)"></text><text font-family="Cambria Math,Cambria Math_MSFontService,sans-serif" font-weight="400" font-size="32" transform="translate(407.618 217)"></text><text font-family="Cambria Math,Cambria Math_MSFontService,sans-serif" font-weight="400" font-size="32" transform="translate(414.618 217)"></text><text font-family="Cambria Math,Cambria Math_MSFontService,sans-serif" font-weight="400" font-size="32" transform="translate(421.618 217)">ğ‘“</text><path d="M479.127 192.78C482.169 193.582 484.505 195.314 486.135 197.975 487.765 200.637 488.581 203.848 488.581 207.608 488.581 211.379 487.768 214.59 486.143 217.241 484.518 219.892 482.179 221.619 479.127 222.421L478.752 221.218C481.159 220.415 482.948 218.832 484.12 216.468 485.291 214.103 485.877 211.098 485.877 207.452 485.877 203.931 485.294 201.007 484.127 198.678 482.961 196.35 481.153 194.785 478.706 193.983ZM452.491 192.78 452.913 193.983C450.475 194.785 448.67 196.35 447.499 198.678 446.327 201.007 445.741 203.931 445.741 207.452 445.741 211.098 446.327 214.103 447.499 216.468 448.67 218.832 450.459 220.415 452.866 221.218L452.491 222.421C449.439 221.619 447.1 219.892 445.475 217.241 443.85 214.59 443.038 211.379 443.038 207.608 443.038 203.848 443.853 200.637 445.483 197.975 447.113 195.314 449.449 193.582 452.491 192.78Z" fill-rule="evenodd"/><text font-family="Cambria Math,Cambria Math_MSFontService,sans-serif" font-weight="400" font-size="32" transform="translate(453.505 217)">ğ‘¤</text><text font-family="Cambria Math,Cambria Math_MSFontService,sans-serif" font-weight="400" font-size="32" transform="translate(500.278 217)">âˆˆ</text><text font-family="Cambria Math,Cambria Math_MSFontService,sans-serif" font-weight="400" font-size="32" transform="translate(529.165 217)">ğµ</text><text font-family="Cambria Math,Cambria Math_MSFontService,sans-serif" font-weight="400" font-size="24" transform="translate(205.859 313)">ğ´</text><text font-family="Cambria Math,Cambria Math_MSFontService,sans-serif" font-weight="400" font-size="24" transform="translate(227.926 313)">=</text><text font-family="Cambria Math,Cambria Math_MSFontService,sans-serif" font-weight="400" font-size="24" transform="translate(252.593 313)">3</text><text font-family="Cambria Math,Cambria Math_MSFontService,sans-serif" font-weight="400" font-size="24" transform="translate(265.926 313)">SAT</text><text font-family="Cambria Math,Cambria Math_MSFontService,sans-serif" font-weight="400" font-size="24" transform="translate(253.329 639)">â‰¤</text><text font-family="Cambria Math,Cambria Math_MSFontService,sans-serif" font-weight="400" font-size="17.52" transform="translate(271.329 644)">P</text><text font-family="Cambria Math,Cambria Math_MSFontService,sans-serif" font-weight="400" font-size="24" transform="translate(699.859 211)">ğµ</text><text font-family="Cambria Math,Cambria Math_MSFontService,sans-serif" font-weight="400" font-size="24" transform="translate(723.006 211)">=</text><text font-family="Cambria Math,Cambria Math_MSFontService,sans-serif" font-weight="400" font-size="24" transform="translate(747.673 211)">CLIQUE</text><text fill="#0070C0" font-family="Source Han Sans JP Medium,Source Han Sans JP Medium_MSFontService,sans-serif" font-weight="500" font-size="24" transform="translate(24.6846 253)">example (from</text><text fill="#0070C0" font-family="Source Han Sans JP Medium,Source Han Sans JP Medium_MSFontService,sans-serif" font-weight="500" font-size="24" transform="translate(197.051 253)">Sipser's</text><text fill="#0070C0" font-family="Source Han Sans JP Medium,Source Han Sans JP Medium_MSFontService,sans-serif" font-weight="500" font-size="24" transform="translate(291.951 253)">book)</text><text font-family="Cambria Math,Cambria Math_MSFontService,sans-serif" font-weight="400" font-size="24" transform="translate(46.349 371)">ğœ™</text><text font-family="Cambria Math,Cambria Math_MSFontService,sans-serif" font-weight="400" font-size="24" transform="translate(69.8624 371)">=</text><path d="M225.091 352.541C227.372 353.142 229.124 354.441 230.347 356.437 231.569 358.433 232.181 360.842 232.181 363.662 232.181 366.49 231.571 368.898 230.352 370.887 229.134 372.875 227.38 374.17 225.091 374.771L224.809 373.869C226.614 373.267 227.956 372.08 228.835 370.306 229.714 368.533 230.153 366.279 230.153 363.545 230.153 360.904 229.716 358.711 228.841 356.965 227.966 355.219 226.61 354.045 224.774 353.443ZM103.728 352.541 104.045 353.443C102.217 354.045 100.863 355.219 99.9841 356.965 99.1052 358.711 98.6657 360.904 98.6657 363.545 98.6657 366.279 99.1052 368.533 99.9841 370.306 100.863 372.08 102.205 373.267 104.009 373.869L103.728 374.771C101.439 374.17 99.6853 372.875 98.4665 370.887 97.2478 368.898 96.6384 366.49 96.6384 363.662 96.6384 360.842 97.2497 358.433 98.4724 356.437 99.695 354.441 101.447 353.142 103.728 352.541Z" fill-rule="evenodd"/><text font-family="Cambria Math,Cambria Math_MSFontService,sans-serif" font-weight="400" font-size="24" transform="translate(104.489 371)">ğ‘¥</text><text font-family="Cambria Math,Cambria Math_MSFontService,sans-serif" font-weight="400" font-size="17.52" transform="translate(116.536 375)">1</text><text font-family="Cambria Math,Cambria Math_MSFontService,sans-serif" font-weight="400" font-size="24" transform="translate(133.029 371)">âˆ¨</text><text font-family="Cambria Math,Cambria Math_MSFontService,sans-serif" font-weight="400" font-size="24" transform="translate(152.529 371)">ğ‘¥</text><text font-family="Cambria Math,Cambria Math_MSFontService,sans-serif" font-weight="400" font-size="17.52" transform="translate(164.576 375)">1</text><text font-family="Cambria Math,Cambria Math_MSFontService,sans-serif" font-weight="400" font-size="24" transform="translate(181.069 371)">âˆ¨</text><text font-family="Cambria Math,Cambria Math_MSFontService,sans-serif" font-weight="400" font-size="24" transform="translate(200.569 371)">ğ‘¥</text><text font-family="Cambria Math,Cambria Math_MSFontService,sans-serif" font-weight="400" font-size="17.52" transform="translate(213.169 375)">2</text><text font-family="Cambria Math,Cambria Math_MSFontService,sans-serif" font-weight="400" font-size="24" transform="translate(239.622 371)">âˆ§</text><path d="M444.237 352.541C446.519 353.142 448.271 354.441 449.493 356.437 450.716 358.433 451.327 360.842 451.327 363.662 451.327 366.49 450.718 368.898 449.499 370.887 448.28 372.875 446.526 374.17 444.237 374.771L443.956 373.869C445.761 373.267 447.103 372.08 447.982 370.306 448.86 368.533 449.3 366.279 449.3 363.545 449.3 360.904 448.862 358.711 447.987 356.965 447.112 355.219 445.757 354.045 443.921 353.443ZM268.322 352.541 268.638 353.443C266.81 354.045 265.456 355.219 264.577 356.965 263.699 358.711 263.259 360.904 263.259 363.545 263.259 366.279 263.699 368.533 264.577 370.306 265.456 372.08 266.798 373.267 268.603 373.869L268.322 374.771C266.033 374.17 264.279 372.875 263.06 370.887 261.841 368.898 261.232 366.49 261.232 363.662 261.232 360.842 261.843 358.433 263.066 356.437 264.288 354.441 266.04 353.142 268.322 352.541Z" fill-rule="evenodd"/><text font-family="Cambria Math,Cambria Math_MSFontService,sans-serif" font-weight="400" font-size="24" transform="translate(269.082 371)">Â¬</text><text font-family="Cambria Math,Cambria Math_MSFontService,sans-serif" font-weight="400" font-size="24" transform="translate(287.082 371)">ğ‘¥</text><text font-family="Cambria Math,Cambria Math_MSFontService,sans-serif" font-weight="400" font-size="17.52" transform="translate(299.129 375)">1</text><text font-family="Cambria Math,Cambria Math_MSFontService,sans-serif" font-weight="400" font-size="24" transform="translate(315.622 371)">âˆ¨</text><text font-family="Cambria Math,Cambria Math_MSFontService,sans-serif" font-weight="400" font-size="24" transform="translate(335.122 371)">Â¬</text><text font-family="Cambria Math,Cambria Math_MSFontService,sans-serif" font-weight="400" font-size="24" transform="translate(353.122 371)">ğ‘¥</text><text font-family="Cambria Math,Cambria Math_MSFontService,sans-serif" font-weight="400" font-size="17.52" transform="translate(365.722 375)">2</text><text font-family="Cambria Math,Cambria Math_MSFontService,sans-serif" font-weight="400" font-size="24" transform="translate(382.216 371)">âˆ¨</text><text font-family="Cambria Math,Cambria Math_MSFontService,sans-serif" font-weight="400" font-size="24" transform="translate(401.716 371)">Â¬</text><text font-family="Cambria Math,Cambria Math_MSFontService,sans-serif" font-weight="400" font-size="24" transform="translate(419.716 371)">ğ‘¥</text><text font-family="Cambria Math,Cambria Math_MSFontService,sans-serif" font-weight="400" font-size="17.52" transform="translate(432.316 375)">2</text><text font-family="Cambria Math,Cambria Math_MSFontService,sans-serif" font-weight="400" font-size="24" transform="translate(160.942 399)">âˆ§</text><text font-family="Cambria Math,Cambria Math_MSFontService,sans-serif" font-weight="400" font-size="24" transform="translate(180.442 399)">(</text><text font-family="Cambria Math,Cambria Math_MSFontService,sans-serif" font-weight="400" font-size="24" transform="translate(190.442 399)">Â¬</text><text font-family="Cambria Math,Cambria Math_MSFontService,sans-serif" font-weight="400" font-size="24" transform="translate(208.442 399)">ğ‘¥</text><text font-family="Cambria Math,Cambria Math_MSFontService,sans-serif" font-weight="400" font-size="17.52" transform="translate(220.489 403)">1</text><text font-family="Cambria Math,Cambria Math_MSFontService,sans-serif" font-weight="400" font-size="24" transform="translate(236.982 399)">âˆ¨</text><text font-family="Cambria Math,Cambria Math_MSFontService,sans-serif" font-weight="400" font-size="24" transform="translate(256.482 399)">ğ‘¥</text><text font-family="Cambria Math,Cambria Math_MSFontService,sans-serif" font-weight="400" font-size="17.52" transform="translate(269.082 403)">2</text><text font-family="Cambria Math,Cambria Math_MSFontService,sans-serif" font-weight="400" font-size="24" transform="translate(285.576 399)">âˆ¨</text><text font-family="Cambria Math,Cambria Math_MSFontService,sans-serif" font-weight="400" font-size="24" transform="translate(305.076 399)">ğ‘¥</text><text font-family="Cambria Math,Cambria Math_MSFontService,sans-serif" font-weight="400" font-size="17.52" transform="translate(317.676 403)">2</text><text font-family="Cambria Math,Cambria Math_MSFontService,sans-serif" font-weight="400" font-size="24" transform="translate(328.836 399)">)</text><path d="M35.5001 347.667C35.5001 338.738 42.7383 331.5 51.6671 331.5L447.333 331.5C456.262 331.5 463.5 338.738 463.5 347.667L463.5 412.333C463.5 421.262 456.262 428.5 447.333 428.5L51.6671 428.5C42.7383 428.5 35.5001 421.262 35.5001 412.333Z" stroke="#41719C" stroke-width="1.33333" stroke-miterlimit="8" fill="none" fill-rule="evenodd"/><text font-family="Source Han Sans JP Medium,Source Han Sans JP Medium_MSFontService,sans-serif" font-weight="500" font-size="24" transform="translate(163.124 455)">instance of</text><text font-family="Cambria Math,Cambria Math_MSFontService,sans-serif" font-weight="400" font-size="24" transform="translate(293.159 454)">3</text><text font-family="Cambria Math,Cambria Math_MSFontService,sans-serif" font-weight="400" font-size="24" transform="translate(306.493 454)">SAT</text><path d="M500.5 373.75 538 373.75 538 369.5 546.5 378 538 386.5 538 382.25 500.5 382.25Z" stroke="#41719C" stroke-width="1.33333" stroke-miterlimit="8" fill="#5B9BD5" fill-rule="evenodd"/><text font-family="Cambria Math,Cambria Math_MSFontService,sans-serif" font-weight="400" font-size="24" transform="translate(610.842 323)">ğ‘¥</text><text font-family="Cambria Math,Cambria Math_MSFontService,sans-serif" font-weight="400" font-size="17.52" transform="translate(622.889 328)">1</text><path d="M590.5 266.834C590.5 248.976 604.976 234.5 622.834 234.5L895.166 234.5C913.024 234.5 927.5 248.976 927.5 266.834L927.5 396.166C927.5 414.024 913.024 428.5 895.166 428.5L622.834 428.5C604.976 428.5 590.5 414.024 590.5 396.166Z" stroke="#41719C" stroke-width="1.33333" stroke-miterlimit="8" fill="none" fill-rule="evenodd"/><text font-family="Source Han Sans JP Medium,Source Han Sans JP Medium_MSFontService,sans-serif" font-weight="500" font-size="24" transform="translate(640.284 456)">instance of</text><text font-family="Cambria Math,Cambria Math_MSFontService,sans-serif" font-weight="400" font-size="24" transform="translate(775.611 455)">CLIQUE</text><text font-family="Cambria Math,Cambria Math_MSFontService,sans-serif" font-weight="400" font-size="24" transform="translate(187.726 641)">3</text><text font-family="Cambria Math,Cambria Math_MSFontService,sans-serif" font-weight="400" font-size="24" transform="translate(201.059 641)">SAT</text><text font-family="Cambria Math,Cambria Math_MSFontService,sans-serif" font-weight="400" font-size="24" transform="translate(291.181 640)">CLIQUE</text><text font-family="Source Han Sans JP Medium,Source Han Sans JP Medium_MSFontService,sans-serif" font-weight="500" font-size="24" transform="translate(48.805 679)">If</text><text font-family="Cambria Math,Cambria Math_MSFontService,sans-serif" font-weight="400" font-size="24" transform="translate(69.805 679)">CLIQUE</text><text font-family="Source Han Sans JP Medium,Source Han Sans JP Medium_MSFontService,sans-serif" font-weight="500" font-size="24" transform="translate(154.305 679)">can be solved in polynomial time,</text><text font-family="Cambria Math,Cambria Math_MSFontService,sans-serif" font-weight="400" font-size="24" transform="translate(542.392 679)">3</text><text font-family="Cambria Math,Cambria Math_MSFontService,sans-serif" font-weight="400" font-size="24" transform="translate(555.725 679)">SAT</text><text font-family="Source Han Sans JP Medium,Source Han Sans JP Medium_MSFontService,sans-serif" font-weight="500" font-size="24" transform="translate(602.058 679)">can also be</text><text font-family="Source Han Sans JP Medium,Source Han Sans JP Medium_MSFontService,sans-serif" font-weight="500" font-size="24" transform="translate(48.805 707)">solved in polynomial time.</text><text fill="#0070C0" font-family="Cambria Math,Cambria Math_MSFontService,sans-serif" font-weight="400" font-size="24" transform="translate(424.102 712)">CLIQUE</text><text fill="#0070C0" font-family="Source Han Sans JP Medium,Source Han Sans JP Medium_MSFontService,sans-serif" font-weight="500" font-size="24" transform="translate(508.602 712)">is harder than (or equal to)</text><text fill="#0070C0" font-family="Cambria Math,Cambria Math_MSFontService,sans-serif" font-weight="400" font-size="24" transform="translate(818.595 712)">3</text><text fill="#0070C0" font-family="Cambria Math,Cambria Math_MSFontService,sans-serif" font-weight="400" font-size="24" transform="translate(831.929 712)">SAT</text><text fill="#0070C0" font-family="Source Han Sans JP Medium,Source Han Sans JP Medium_MSFontService,sans-serif" font-weight="500" font-size="24" transform="translate(872.929 712)">.</text><path d="M538.5 636C538.5 631.306 541.634 627.5 545.5 627.5 549.366 627.5 552.5 631.306 552.5 636 552.5 640.694 549.366 644.5 545.5 644.5 541.634 644.5 538.5 640.694 538.5 636Z" stroke="#41719C" stroke-width="1.33333" stroke-miterlimit="8" fill-rule="evenodd"/><path d="M431.5 636C431.5 631.306 434.634 627.5 438.5 627.5 442.366 627.5 445.5 631.306 445.5 636 445.5 640.694 442.366 644.5 438.5 644.5 434.634 644.5 431.5 640.694 431.5 636Z" stroke="#41719C" stroke-width="1.33333" stroke-miterlimit="8" fill-rule="evenodd"/><path d="M0.0118088-0.99993 89.1174 0.0523689 89.0938 2.05223-0.0118088 0.99993ZM87.8195-2.96317 95.7718 1.13102 87.7251 5.03627Z" transform="matrix(1 0 0 -1 442 636.131)"/><text font-family="Cambria Math,Cambria Math_MSFontService,sans-serif" font-weight="400" font-size="32" transform="translate(478.093 620)">â‰¤</text><text font-family="Cambria Math,Cambria Math_MSFontService,sans-serif" font-weight="400" font-size="23.36" transform="translate(502.093 626)">P</text><text font-family="Cambria Math,Cambria Math_MSFontService,sans-serif" font-weight="400" font-size="24" transform="translate(403.868 614)">3</text><text font-family="Cambria Math,Cambria Math_MSFontService,sans-serif" font-weight="400" font-size="24" transform="translate(417.202 614)">SAT</text><text font-family="Cambria Math,Cambria Math_MSFontService,sans-serif" font-weight="400" font-size="24" transform="translate(530.131 614)">CLIQUE</text><path d="M644.5 405C644.5 400.858 647.858 397.5 652 397.5 656.142 397.5 659.5 400.858 659.5 405 659.5 409.142 656.142 412.5 652 412.5 647.858 412.5 644.5 409.142 644.5 405Z" stroke="#223F59" stroke-width="1.33333" stroke-miterlimit="8" fill="#5B9BD5" fill-rule="evenodd"/><path d="M645.5 365.5C645.5 361.082 648.858 357.5 653 357.5 657.142 357.5 660.5 361.082 660.5 365.5 660.5 369.918 657.142 373.5 653 373.5 648.858 373.5 645.5 369.918 645.5 365.5Z" stroke="#223F59" stroke-width="1.33333" stroke-miterlimit="8" fill="#5B9BD5" fill-rule="evenodd"/><path d="M645.5 326C645.5 321.858 648.858 318.5 653 318.5 657.142 318.5 660.5 321.858 660.5 326 660.5 330.142 657.142 333.5 653 333.5 648.858 333.5 645.5 330.142 645.5 326Z" stroke="#223F59" stroke-width="1.33333" stroke-miterlimit="8" fill="#5B9BD5" fill-rule="evenodd"/><path d="M827.5 405C827.5 400.858 830.858 397.5 835 397.5 839.142 397.5 842.5 400.858 842.5 405 842.5 409.142 839.142 412.5 835 412.5 830.858 412.5 827.5 409.142 827.5 405Z" stroke="#223F59" stroke-width="1.33333" stroke-miterlimit="8" fill="#5B9BD5" fill-rule="evenodd"/><path d="M828.5 365.5C828.5 361.082 831.858 357.5 836 357.5 840.142 357.5 843.5 361.082 843.5 365.5 843.5 369.918 840.142 373.5 836 373.5 831.858 373.5 828.5 369.918 828.5 365.5Z" stroke="#223F59" stroke-width="1.33333" stroke-miterlimit="8" fill="#5B9BD5" fill-rule="evenodd"/><path d="M828.5 326C828.5 321.858 831.858 318.5 836 318.5 840.142 318.5 843.5 321.858 843.5 326 843.5 330.142 840.142 333.5 836 333.5 831.858 333.5 828.5 330.142 828.5 326Z" stroke="#223F59" stroke-width="1.33333" stroke-miterlimit="8" fill="#5B9BD5" fill-rule="evenodd"/><path d="M698.5 284C698.5 279.858 701.858 276.5 706 276.5 710.142 276.5 713.5 279.858 713.5 284 713.5 288.142 710.142 291.5 706 291.5 701.858 291.5 698.5 288.142 698.5 284Z" stroke="#223F59" stroke-width="1.33333" stroke-miterlimit="8" fill="#5B9BD5" fill-rule="evenodd"/><path d="M740.5 284C740.5 279.858 743.858 276.5 748 276.5 752.142 276.5 755.5 279.858 755.5 284 755.5 288.142 752.142 291.5 748 291.5 743.858 291.5 740.5 288.142 740.5 284Z" stroke="#223F59" stroke-width="1.33333" stroke-miterlimit="8" fill="#5B9BD5" fill-rule="evenodd"/><path d="M781.5 284C781.5 279.858 784.858 276.5 789 276.5 793.142 276.5 796.5 279.858 796.5 284 796.5 288.142 793.142 291.5 789 291.5 784.858 291.5 781.5 288.142 781.5 284Z" stroke="#223F59" stroke-width="1.33333" stroke-miterlimit="8" fill="#5B9BD5" fill-rule="evenodd"/><path d="M0 0 88.1506 42.4616" stroke="#5B9BD5" stroke-width="2" stroke-miterlimit="8" fill="none" fill-rule="evenodd" transform="matrix(1 0 0 -1 659 322.462)"/><path d="M0 0 131.034 28.4492" stroke="#5B9BD5" stroke-width="2" stroke-miterlimit="8" fill="none" fill-rule="evenodd" transform="matrix(1 0 0 -1 652 317.449)"/><path d="M660 325 843.008 364.872" stroke="#5B9BD5" stroke-width="2" stroke-miterlimit="8" fill="none" fill-rule="evenodd"/><path d="M652 318 828.873 399.445" stroke="#5B9BD5" stroke-width="2" stroke-miterlimit="8" fill="none" fill-rule="evenodd"/><path d="M0 0 84.2489 71.0227" stroke="#5B9BD5" stroke-width="2" stroke-miterlimit="8" fill="none" fill-rule="evenodd" transform="matrix(1 0 0 -1 658 360.023)"/><path d="M0 0 136.38 70.5352" stroke="#5B9BD5" stroke-width="2" stroke-miterlimit="8" fill="none" fill-rule="evenodd" transform="matrix(1 0 0 -1 658 359.535)"/><path d="M652 357 829.662 359.214" stroke="#5B9BD5" stroke-width="2" stroke-miterlimit="8" fill="none" fill-rule="evenodd"/><path d="M658 360 842.433 404.705" stroke="#5B9BD5" stroke-width="2" stroke-miterlimit="8" fill="none" fill-rule="evenodd"/><path d="M0 0 48.9446 108.168" stroke="#5B9BD5" stroke-width="2" stroke-miterlimit="8" fill="none" fill-rule="evenodd" transform="matrix(1 0 0 -1 657 399.168)"/><path d="M0 0 191.357 86.7911" stroke="#5B9BD5" stroke-width="2" stroke-miterlimit="8" fill="none" fill-rule="evenodd" transform="matrix(1 0 0 -1 651 411.791)"/><path d="M0 0 181.583 44.7051" stroke="#5B9BD5" stroke-width="2" stroke-miterlimit="8" fill="none" fill-rule="evenodd" transform="matrix(1 0 0 -1 659 404.705)"/><path d="M659 404 842.008 404" stroke="#5B9BD5" stroke-width="2" stroke-miterlimit="8" fill="none" fill-rule="evenodd"/><path d="M706 291 843.067 325.282" stroke="#5B9BD5" stroke-width="2" stroke-miterlimit="8" fill="none" fill-rule="evenodd"/><path d="M698 283 840.413 359.368" stroke="#5B9BD5" stroke-width="2" stroke-miterlimit="8" fill="none" fill-rule="evenodd"/><path d="M706 291 829.372 399.168" stroke="#5B9BD5" stroke-width="2" stroke-miterlimit="8" fill="none" fill-rule="evenodd"/><path d="M747 291 842.628 325.282" stroke="#5B9BD5" stroke-width="2" stroke-miterlimit="8" fill="none" fill-rule="evenodd"/><path d="M789 291 843.188 324.795" stroke="#5B9BD5" stroke-width="2" stroke-miterlimit="8" fill="none" fill-rule="evenodd"/><text font-family="Cambria Math,Cambria Math_MSFontService,sans-serif" font-weight="400" font-size="24" transform="translate(608.981 368)">ğ‘¥</text><text font-family="Cambria Math,Cambria Math_MSFontService,sans-serif" font-weight="400" font-size="17.52" transform="translate(621.028 373)">1</text><text font-family="Cambria Math,Cambria Math_MSFontService,sans-serif" font-weight="400" font-size="24" transform="translate(608.165 412)">ğ‘¥</text><text font-family="Cambria Math,Cambria Math_MSFontService,sans-serif" font-weight="400" font-size="17.52" transform="translate(620.765 417)">2</text><text font-family="Cambria Math,Cambria Math_MSFontService,sans-serif" font-weight="400" font-size="24" transform="translate(677.688 261)">Â¬</text><text font-family="Cambria Math,Cambria Math_MSFontService,sans-serif" font-weight="400" font-size="24" transform="translate(695.688 261)">ğ‘¥</text><text font-family="Cambria Math,Cambria Math_MSFontService,sans-serif" font-weight="400" font-size="17.52" transform="translate(707.735 266)">1</text><text font-family="Cambria Math,Cambria Math_MSFontService,sans-serif" font-weight="400" font-size="24" transform="translate(730.071 262)">Â¬</text><text font-family="Cambria Math,Cambria Math_MSFontService,sans-serif" font-weight="400" font-size="24" transform="translate(748.071 262)">ğ‘¥</text><text font-family="Cambria Math,Cambria Math_MSFontService,sans-serif" font-weight="400" font-size="17.52" transform="translate(760.671 267)">2</text><text font-family="Cambria Math,Cambria Math_MSFontService,sans-serif" font-weight="400" font-size="24" transform="translate(783.809 264)">Â¬</text><text font-family="Cambria Math,Cambria Math_MSFontService,sans-serif" font-weight="400" font-size="24" transform="translate(801.809 264)">ğ‘¥</text><text font-family="Cambria Math,Cambria Math_MSFontService,sans-serif" font-weight="400" font-size="17.52" transform="translate(814.409 269)">2</text><text font-family="Cambria Math,Cambria Math_MSFontService,sans-serif" font-weight="400" font-size="24" transform="translate(852.306 323)">Â¬</text><text font-family="Cambria Math,Cambria Math_MSFontService,sans-serif" font-weight="400" font-size="24" transform="translate(870.306 323)">ğ‘¥</text><text font-family="Cambria Math,Cambria Math_MSFontService,sans-serif" font-weight="400" font-size="17.52" transform="translate(882.353 328)">1</text><text font-family="Cambria Math,Cambria Math_MSFontService,sans-serif" font-weight="400" font-size="24" transform="translate(854.197 369)">ğ‘¥</text><text font-family="Cambria Math,Cambria Math_MSFontService,sans-serif" font-weight="400" font-size="17.52" transform="translate(866.797 374)">2</text><text font-family="Cambria Math,Cambria Math_MSFontService,sans-serif" font-weight="400" font-size="24" transform="translate(853.541 411)">ğ‘¥</text><text font-family="Cambria Math,Cambria Math_MSFontService,sans-serif" font-weight="400" font-size="17.52" transform="translate(866.141 416)">2</text><text font-family="Cambria Math,Cambria Math_MSFontService,sans-serif" font-weight="400" font-size="24" transform="translate(516.75 355)">ğ‘“</text><text font-family="Cambria Math,Cambria Math_MSFontService,sans-serif" font-weight="400" font-size="32" transform="translate(719.465 136)">ğ´</text><text font-family="Cambria Math,Cambria Math_MSFontService,sans-serif" font-weight="400" font-size="32" transform="translate(748.999 136)">â‰¤</text><text font-family="Cambria Math,Cambria Math_MSFontService,sans-serif" font-weight="400" font-size="23.36" transform="translate(772.999 143)">P</text><text font-family="Cambria Math,Cambria Math_MSFontService,sans-serif" font-weight="400" font-size="32" transform="translate(796.325 136)">ğµ</text><text font-family="Cambria Math,Cambria Math_MSFontService,sans-serif" font-weight="400" font-size="24" transform="translate(135.666 514)">(</text><text font-family="Cambria Math,Cambria Math_MSFontService,sans-serif" font-weight="400" font-size="24" transform="translate(145.666 514)">ğ‘¥</text><text font-family="Cambria Math,Cambria Math_MSFontService,sans-serif" font-weight="400" font-size="17.52" transform="translate(157.713 519)">1</text><text font-family="Cambria Math,Cambria Math_MSFontService,sans-serif" font-weight="400" font-size="24" transform="translate(168.873 514)">,</text><text font-family="Cambria Math,Cambria Math_MSFontService,sans-serif" font-weight="400" font-size="24" transform="translate(177.873 514)">ğ‘¥</text><text font-family="Cambria Math,Cambria Math_MSFontService,sans-serif" font-weight="400" font-size="17.52" transform="translate(190.473 519)">2</text><text font-family="Cambria Math,Cambria Math_MSFontService,sans-serif" font-weight="400" font-size="24" transform="translate(201.633 514)">)</text><text font-family="Cambria Math,Cambria Math_MSFontService,sans-serif" font-weight="400" font-size="24" transform="translate(218.299 514)">=</text><text font-family="Cambria Math,Cambria Math_MSFontService,sans-serif" font-weight="400" font-size="24" transform="translate(242.966 514)">(</text><text font-family="Cambria Math,Cambria Math_MSFontService,sans-serif" font-weight="400" font-size="24" transform="translate(252.966 514)">0</text><text font-family="Cambria Math,Cambria Math_MSFontService,sans-serif" font-weight="400" font-size="24" transform="translate(266.299 514)">,</text><text font-family="Cambria Math,Cambria Math_MSFontService,sans-serif" font-weight="400" font-size="24" transform="translate(275.299 514)">1</text><text font-family="Cambria Math,Cambria Math_MSFontService,sans-serif" font-weight="400" font-size="24" transform="translate(288.633 514)">)</text><text font-family="Cambria Math,Cambria Math_MSFontService,sans-serif" font-weight="400" font-size="24" transform="translate(37.0162 564)">ğœ™</text><text font-family="Source Han Sans JP Medium,Source Han Sans JP Medium_MSFontService,sans-serif" font-weight="500" font-size="24" transform="translate(59.1962 564)">has an assignment</text><text font-family="Source Han Sans JP Medium,Source Han Sans JP Medium_MSFontService,sans-serif" font-weight="500" font-size="24" transform="translate(277.363 564)">s.t.</text><text font-family="Cambria Math,Cambria Math_MSFontService,sans-serif" font-weight="400" font-size="24" transform="translate(316.636 564)">ğœ™</text><text font-family="Cambria Math,Cambria Math_MSFontService,sans-serif" font-weight="400" font-size="24" transform="translate(340.15 564)">=</text><text font-family="Cambria Math,Cambria Math_MSFontService,sans-serif" font-weight="400" font-size="24" transform="translate(364.816 564)">1</text><text font-family="Source Han Sans JP Medium,Source Han Sans JP Medium_MSFontService,sans-serif" font-weight="500" font-size="24" transform="translate(428.161 527)">if and only if</text><text font-family="Cambria Math,Cambria Math_MSFontService,sans-serif" font-weight="400" font-size="18.6667" transform="translate(667.485 524)">ğ‘¥</text><text font-family="Cambria Math,Cambria Math_MSFontService,sans-serif" font-weight="400" font-size="13.6267" transform="translate(676.872 528)">1</text><path d="M686.5 575.5C686.5 572.739 688.963 570.5 692 570.5 695.038 570.5 697.5 572.739 697.5 575.5 697.5 578.261 695.038 580.5 692 580.5 688.963 580.5 686.5 578.261 686.5 575.5Z" stroke="#223F59" stroke-width="1.33333" stroke-miterlimit="8" fill="#5B9BD5" fill-rule="evenodd"/><path d="M687.5 548.5C687.5 545.739 689.739 543.5 692.5 543.5 695.261 543.5 697.5 545.739 697.5 548.5 697.5 551.261 695.261 553.5 692.5 553.5 689.739 553.5 687.5 551.261 687.5 548.5Z" stroke="#223F59" stroke-width="1.33333" stroke-miterlimit="8" fill="#5B9BD5" fill-rule="evenodd"/><path d="M687.5 522C687.5 518.963 689.739 516.5 692.5 516.5 695.261 516.5 697.5 518.963 697.5 522 697.5 525.038 695.261 527.5 692.5 527.5 689.739 527.5 687.5 525.038 687.5 522Z" stroke="#223F59" stroke-width="1.33333" stroke-miterlimit="8" fill="#5B9BD5" fill-rule="evenodd"/><path d="M810.5 575.5C810.5 572.739 812.739 570.5 815.5 570.5 818.261 570.5 820.5 572.739 820.5 575.5 820.5 578.261 818.261 580.5 815.5 580.5 812.739 580.5 810.5 578.261 810.5 575.5Z" stroke="#223F59" stroke-width="1.33333" stroke-miterlimit="8" fill="#5B9BD5" fill-rule="evenodd"/><path d="M811.5 548.5C811.5 545.739 813.739 543.5 816.5 543.5 819.261 543.5 821.5 545.739 821.5 548.5 821.5 551.261 819.261 553.5 816.5 553.5 813.739 553.5 811.5 551.261 811.5 548.5Z" stroke="#223F59" stroke-width="1.33333" stroke-miterlimit="8" fill="#5B9BD5" fill-rule="evenodd"/><path d="M811.5 522C811.5 518.963 813.739 516.5 816.5 516.5 819.261 516.5 821.5 518.963 821.5 522 821.5 525.038 819.261 527.5 816.5 527.5 813.739 527.5 811.5 525.038 811.5 522Z" stroke="#223F59" stroke-width="1.33333" stroke-miterlimit="8" fill="#5B9BD5" fill-rule="evenodd"/><path d="M723.5 493.5C723.5 490.739 725.739 488.5 728.5 488.5 731.261 488.5 733.5 490.739 733.5 493.5 733.5 496.261 731.261 498.5 728.5 498.5 725.739 498.5 723.5 496.261 723.5 493.5Z" stroke="#223F59" stroke-width="1.33333" stroke-miterlimit="8" fill="#5B9BD5" fill-rule="evenodd"/><path d="M751.5 493.5C751.5 490.739 753.739 488.5 756.5 488.5 759.261 488.5 761.5 490.739 761.5 493.5 761.5 496.261 759.261 498.5 756.5 498.5 753.739 498.5 751.5 496.261 751.5 493.5Z" stroke="#223F59" stroke-width="1.33333" stroke-miterlimit="8" fill="#5B9BD5" fill-rule="evenodd"/><path d="M779.5 494C779.5 490.962 781.739 488.5 784.5 488.5 787.261 488.5 789.5 490.962 789.5 494 789.5 497.038 787.261 499.5 784.5 499.5 781.739 499.5 779.5 497.038 779.5 494Z" stroke="#223F59" stroke-width="1.33333" stroke-miterlimit="8" fill="#5B9BD5" fill-rule="evenodd"/><path d="M0 0 59.6261 28.6383" stroke="#5B9BD5" stroke-width="2" stroke-miterlimit="8" fill="none" fill-rule="evenodd" transform="matrix(1 0 0 -1 697 519.638)"/><path d="M0 0 88.6331 19.1876" stroke="#5B9BD5" stroke-width="2" stroke-miterlimit="8" fill="none" fill-rule="evenodd" transform="matrix(1 0 0 -1 692 516.188)"/><path d="M697 521 820.789 547.892" stroke="#5B9BD5" stroke-width="2" stroke-miterlimit="8" fill="none" fill-rule="evenodd"/><path d="M692 516 811.639 570.931" stroke="#5B9BD5" stroke-width="2" stroke-miterlimit="8" fill="none" fill-rule="evenodd"/><path d="M0 0 56.987 47.9014" stroke="#5B9BD5" stroke-width="2" stroke-miterlimit="8" fill="none" fill-rule="evenodd" transform="matrix(1 0 0 -1 696 544.901)"/><path d="M0 0 92.2489 47.5726" stroke="#5B9BD5" stroke-width="2" stroke-miterlimit="8" fill="none" fill-rule="evenodd" transform="matrix(1 0 0 -1 696 544.573)"/><path d="M692 543 812.173 544.493" stroke="#5B9BD5" stroke-width="2" stroke-miterlimit="8" fill="none" fill-rule="evenodd"/><path d="M696 545 820.753 575.151" stroke="#5B9BD5" stroke-width="2" stroke-miterlimit="8" fill="none" fill-rule="evenodd"/><path d="M0 0 33.1067 72.954" stroke="#FF0000" stroke-width="6" stroke-miterlimit="8" fill="none" fill-rule="evenodd" transform="matrix(1 0 0 -1 695 570.954)"/><path d="M0 0 129.436 58.5364" stroke="#5B9BD5" stroke-width="2" stroke-miterlimit="8" fill="none" fill-rule="evenodd" transform="matrix(1 0 0 -1 692 579.536)"/><path d="M0 0 122.825 30.1514" stroke="#5B9BD5" stroke-width="2" stroke-miterlimit="8" fill="none" fill-rule="evenodd" transform="matrix(1 0 0 -1 697 575.151)"/><path d="M697 575 820.789 575" stroke="#FF0000" stroke-width="6" stroke-miterlimit="8" fill="none" fill-rule="evenodd"/><path d="M728 498 820.714 521.122" stroke="#5B9BD5" stroke-width="2" stroke-miterlimit="8" fill="none" fill-rule="evenodd"/><path d="M723 493 819.33 544.507" stroke="#5B9BD5" stroke-width="2" stroke-miterlimit="8" fill="none" fill-rule="evenodd"/><path d="M728 498 811.451 570.954" stroke="#FF0000" stroke-width="6" stroke-miterlimit="8" fill="none" fill-rule="evenodd"/><path d="M756 498 820.684 521.122" stroke="#5B9BD5" stroke-width="2" stroke-miterlimit="8" fill="none" fill-rule="evenodd"/><path d="M784 499 820.654 521.793" stroke="#5B9BD5" stroke-width="2" stroke-miterlimit="8" fill="none" fill-rule="evenodd"/><text font-family="Cambria Math,Cambria Math_MSFontService,sans-serif" font-weight="400" font-size="18.6667" transform="translate(666.226 555)">ğ‘¥</text><text font-family="Cambria Math,Cambria Math_MSFontService,sans-serif" font-weight="400" font-size="13.6267" transform="translate(675.613 559)">1</text><text font-family="Cambria Math,Cambria Math_MSFontService,sans-serif" font-weight="400" font-size="18.6667" transform="translate(665.726 584)">ğ‘¥</text><text font-family="Cambria Math,Cambria Math_MSFontService,sans-serif" font-weight="400" font-size="13.6267" transform="translate(675.546 588)">2</text><text font-family="Cambria Math,Cambria Math_MSFontService,sans-serif" font-weight="400" font-size="18.6667" transform="translate(712.722 482)">Â¬</text><text font-family="Cambria Math,Cambria Math_MSFontService,sans-serif" font-weight="400" font-size="18.6667" transform="translate(726.722 482)">ğ‘¥</text><text font-family="Cambria Math,Cambria Math_MSFontService,sans-serif" font-weight="400" font-size="13.6267" transform="translate(736.109 486)">1</text><text font-family="Cambria Math,Cambria Math_MSFontService,sans-serif" font-weight="400" font-size="18.6667" transform="translate(748.297 483)">Â¬</text><text font-family="Cambria Math,Cambria Math_MSFontService,sans-serif" font-weight="400" font-size="18.6667" transform="translate(762.297 483)">ğ‘¥</text><text font-family="Cambria Math,Cambria Math_MSFontService,sans-serif" font-weight="400" font-size="13.6267" transform="translate(772.117 487)">2</text><text font-family="Cambria Math,Cambria Math_MSFontService,sans-serif" font-weight="400" font-size="18.6667" transform="translate(784.646 485)">Â¬</text><text font-family="Cambria Math,Cambria Math_MSFontService,sans-serif" font-weight="400" font-size="18.6667" transform="translate(798.646 485)">ğ‘¥</text><text font-family="Cambria Math,Cambria Math_MSFontService,sans-serif" font-weight="400" font-size="13.6267" transform="translate(808.466 488)">2</text><text font-family="Cambria Math,Cambria Math_MSFontService,sans-serif" font-weight="400" font-size="18.6667" transform="translate(830.836 524)">Â¬</text><text font-family="Cambria Math,Cambria Math_MSFontService,sans-serif" font-weight="400" font-size="18.6667" transform="translate(844.836 524)">ğ‘¥</text><text font-family="Cambria Math,Cambria Math_MSFontService,sans-serif" font-weight="400" font-size="13.6267" transform="translate(854.222 528)">1</text><text font-family="Cambria Math,Cambria Math_MSFontService,sans-serif" font-weight="400" font-size="18.6667" transform="translate(832.145 555)">ğ‘¥</text><text font-family="Cambria Math,Cambria Math_MSFontService,sans-serif" font-weight="400" font-size="13.6267" transform="translate(841.965 559)">2</text><text font-family="Cambria Math,Cambria Math_MSFontService,sans-serif" font-weight="400" font-size="18.6667" transform="translate(831.701 584)">ğ‘¥</text><text font-family="Cambria Math,Cambria Math_MSFontService,sans-serif" font-weight="400" font-size="13.6267" transform="translate(841.521 587)">2</text><text font-family="Cambria Math,Cambria Math_MSFontService,sans-serif" font-weight="400" font-size="24" transform="translate(861.017 278)">ğº</text><text font-family="Cambria Math,Cambria Math_MSFontService,sans-serif" font-weight="400" font-size="24" transform="translate(659.892 616)">ğº</text><text font-family="Source Han Sans JP Medium,Source Han Sans JP Medium_MSFontService,sans-serif" font-weight="500" font-size="24" transform="translate(681.445 616)">has a clique</text><path d="M36.2526 467.5 657.705 467.5 864.183 467.5 870.748 467.5C881.657 467.5 890.5 476.349 890.5 487.265L890.5 493.834 890.5 566.325 890.5 599.166C890.5 613.71 878.718 625.5 864.183 625.5L657.705 625.5C643.171 625.5 631.389 613.71 631.389 599.166L631.389 586.09 36.2526 586.09C25.3435 586.09 16.5001 577.241 16.5001 566.325L16.5001 487.265C16.5001 476.349 25.3435 467.5 36.2526 467.5Z" stroke="#223F59" stroke-width="1.33333" stroke-miterlimit="8" fill="none" fill-rule="evenodd"/></g></svg>