<svg width="960" height="720" xmlns="http://www.w3.org/2000/svg" xmlns:xlink="http://www.w3.org/1999/xlink" overflow="hidden"><defs><clipPath id="clip0"><rect x="0" y="0" width="960" height="720"/></clipPath></defs><g clip-path="url(#clip0)"><rect x="0" y="0" width="960" height="720" fill="#FFFFFF"/><rect x="0.500053" y="0.500053" width="960" height="76" stroke="#DEEBF7" stroke-width="1.33333" stroke-miterlimit="8" fill="#DEEBF7"/><text fill="#898989" font-family="Source Han Sans JP Medium,Source Han Sans JP Medium_MSFontService,sans-serif" font-weight="500" font-size="16" transform="translate(865.933 692)">39</text><text font-family="Cambria Math,Cambria Math_MSFontService,sans-serif" font-weight="400" font-size="42.6667" transform="translate(75.6 55)">SAT</text><text font-family="Source Han Sans JP Medium,Source Han Sans JP Medium_MSFontService,sans-serif" font-weight="500" font-size="42.6667" transform="translate(148.767 55)">-</text><text font-family="Cambria Math,Cambria Math_MSFontService,sans-serif" font-weight="400" font-size="42.6667" transform="translate(163.933 55)">RECONF</text><text font-family="Source Han Sans JP Medium,Source Han Sans JP Medium_MSFontService,sans-serif" font-weight="500" font-size="42.6667" transform="translate(328.267 55)">is</text><text font-family="Cambria Math,Cambria Math_MSFontService,sans-serif" font-weight="400" font-size="42.6667" transform="translate(370.6 55)">PSPACE</text><text font-family="Source Han Sans JP Medium,Source Han Sans JP Medium_MSFontService,sans-serif" font-weight="500" font-size="42.6667" transform="translate(515.267 55)">-</text><text font-family="Source Han Sans JP Medium,Source Han Sans JP Medium_MSFontService,sans-serif" font-weight="500" font-size="42.6667" transform="translate(530.433 55)">complete</text><text font-family="Cambria Math,Cambria Math_MSFontService,sans-serif" font-weight="400" font-size="24" transform="translate(71.726 116)">𝛿</text><path d="M132.868 97.6768C135.149 98.2784 136.901 99.5772 138.124 101.573 139.346 103.569 139.958 105.978 139.958 108.798 139.958 111.626 139.348 114.034 138.129 116.023 136.911 118.011 135.157 119.306 132.868 119.907L132.586 119.005C134.391 118.403 135.733 117.216 136.612 115.442 137.491 113.669 137.93 111.415 137.93 108.681 137.93 106.04 137.493 103.847 136.618 102.101 135.743 100.355 134.387 99.1808 132.551 98.5792ZM94.6985 97.6768 95.0149 98.5792C93.1868 99.1808 91.8333 100.355 90.9544 102.101 90.0755 103.847 89.636 106.04 89.636 108.681 89.636 111.415 90.0755 113.669 90.9544 115.442 91.8333 117.216 93.1751 118.403 94.9798 119.005L94.6985 119.907C92.4095 119.306 90.6556 118.011 89.4368 116.023 88.2181 114.034 87.6087 111.626 87.6087 108.798 87.6087 105.978 88.22 103.569 89.4427 101.573 90.6653 99.5772 92.4173 98.2784 94.6985 97.6768Z" fill-rule="evenodd"/><text font-family="Cambria Math,Cambria Math_MSFontService,sans-serif" font-weight="400" font-size="24" transform="translate(95.4593 116)">𝑞</text><text font-family="Cambria Math,Cambria Math_MSFontService,sans-serif" font-weight="400" font-size="24" transform="translate(109.186 116)">,</text><text font-family="Cambria Math,Cambria Math_MSFontService,sans-serif" font-weight="400" font-size="24" transform="translate(118.186 116)">𝑎</text><text font-family="Cambria Math,Cambria Math_MSFontService,sans-serif" font-weight="400" font-size="24" transform="translate(148.733 116)">=</text><text font-family="Cambria Math,Cambria Math_MSFontService,sans-serif" font-weight="400" font-size="24" transform="translate(173.399 116)">(</text><text font-family="Cambria Math,Cambria Math_MSFontService,sans-serif" font-weight="400" font-size="24" transform="translate(183.399 116)">𝑞</text><text font-family="Cambria Math,Cambria Math_MSFontService,sans-serif" font-weight="400" font-size="17.52" transform="translate(197.126 107)">′</text><text font-family="Cambria Math,Cambria Math_MSFontService,sans-serif" font-weight="400" font-size="24" transform="translate(204.286 116)">,</text><text font-family="Cambria Math,Cambria Math_MSFontService,sans-serif" font-weight="400" font-size="24" transform="translate(213.286 116)">𝑏</text><text font-family="Cambria Math,Cambria Math_MSFontService,sans-serif" font-weight="400" font-size="24" transform="translate(226.813 116)">,</text><text font-family="Cambria Math,Cambria Math_MSFontService,sans-serif" font-weight="400" font-size="24" transform="translate(235.813 116)">R</text><text font-family="Cambria Math,Cambria Math_MSFontService,sans-serif" font-weight="400" font-size="24" transform="translate(250.646 116)">)</text><text font-family="Cambria Math,Cambria Math_MSFontService,sans-serif" font-weight="400" font-size="24" transform="translate(71.2049 212)">𝑥</text><path d="M126.833 193.695C129.115 194.297 130.866 195.596 132.089 197.592 133.312 199.588 133.923 201.996 133.923 204.816 133.923 207.644 133.314 210.053 132.095 212.041 130.876 214.029 129.122 215.324 126.833 215.926L126.552 215.023C128.357 214.422 129.699 213.234 130.577 211.461 131.456 209.687 131.896 207.433 131.896 204.699 131.896 202.058 131.458 199.865 130.583 198.119 129.708 196.373 128.353 195.199 126.517 194.597ZM93.9641 193.695 94.2805 194.597C92.4524 195.199 91.0989 196.373 90.22 198.119 89.341 199.865 88.9016 202.058 88.9016 204.699 88.9016 207.433 89.341 209.687 90.22 211.461 91.0989 213.234 92.4407 214.422 94.2453 215.023L93.9641 215.926C91.675 215.324 89.9211 214.029 88.7024 212.041 87.4836 210.053 86.8743 207.644 86.8743 204.816 86.8743 201.996 87.4856 199.588 88.7082 197.592 89.9309 195.596 91.6828 194.297 93.9641 193.695Z" fill-rule="evenodd"/><text font-family="Cambria Math,Cambria Math_MSFontService,sans-serif" font-weight="400" font-size="24" transform="translate(94.7249 212)">𝑖</text><text font-family="Cambria Math,Cambria Math_MSFontService,sans-serif" font-weight="400" font-size="24" transform="translate(103.152 212)">,</text><text font-family="Cambria Math,Cambria Math_MSFontService,sans-serif" font-weight="400" font-size="24" transform="translate(112.152 212)">𝑎</text><text font-family="Cambria Math,Cambria Math_MSFontService,sans-serif" font-weight="400" font-size="24" transform="translate(142.698 212)">=</text><text font-family="Cambria Math,Cambria Math_MSFontService,sans-serif" font-weight="400" font-size="24" transform="translate(167.365 212)">1</text><text font-family="Cambria Math,Cambria Math_MSFontService,sans-serif" font-weight="400" font-size="24" transform="translate(180.698 212)">,</text><text font-family="Cambria Math,Cambria Math_MSFontService,sans-serif" font-weight="400" font-size="24" transform="translate(189.698 212)">𝑥</text><path d="M244.933 193.695C247.215 194.297 248.966 195.596 250.189 197.592 251.412 199.588 252.023 201.996 252.023 204.816 252.023 207.644 251.414 210.053 250.195 212.041 248.976 214.029 247.222 215.324 244.933 215.926L244.652 215.023C246.457 214.422 247.798 213.234 248.677 211.461 249.556 209.687 249.996 207.433 249.996 204.699 249.996 202.058 249.558 199.865 248.683 198.119 247.808 196.373 246.453 195.199 244.617 194.597ZM212.457 193.695 212.774 194.597C210.946 195.199 209.592 196.373 208.713 198.119 207.834 199.865 207.395 202.058 207.395 204.699 207.395 207.433 207.834 209.687 208.713 211.461 209.592 213.234 210.934 214.422 212.739 215.023L212.457 215.926C210.168 215.324 208.414 214.029 207.196 212.041 205.977 210.053 205.368 207.644 205.368 204.816 205.368 201.996 205.979 199.588 207.202 197.592 208.424 195.596 210.176 194.297 212.457 193.695Z" fill-rule="evenodd"/><text font-family="Cambria Math,Cambria Math_MSFontService,sans-serif" font-weight="400" font-size="24" transform="translate(213.218 212)">𝑖</text><text font-family="Cambria Math,Cambria Math_MSFontService,sans-serif" font-weight="400" font-size="24" transform="translate(221.645 212)">,</text><text font-family="Cambria Math,Cambria Math_MSFontService,sans-serif" font-weight="400" font-size="24" transform="translate(230.645 212)">𝑏</text><text font-family="Cambria Math,Cambria Math_MSFontService,sans-serif" font-weight="400" font-size="24" transform="translate(260.798 212)">=</text><text font-family="Cambria Math,Cambria Math_MSFontService,sans-serif" font-weight="400" font-size="24" transform="translate(285.465 212)">0</text><text font-family="Cambria Math,Cambria Math_MSFontService,sans-serif" font-weight="400" font-size="24" transform="translate(298.798 212)">,</text><text font-family="Cambria Math,Cambria Math_MSFontService,sans-serif" font-weight="400" font-size="24" transform="translate(307.798 212)">𝑦</text><path d="M340.86 193.695C343.141 194.297 344.893 195.596 346.116 197.592 347.338 199.588 347.95 201.996 347.95 204.816 347.95 207.644 347.34 210.053 346.122 212.041 344.903 214.029 343.149 215.324 340.86 215.926L340.579 215.023C342.383 214.422 343.725 213.234 344.604 211.461 345.483 209.687 345.922 207.433 345.922 204.699 345.922 202.058 345.485 199.865 344.61 198.119 343.735 196.373 342.379 195.199 340.544 194.597ZM330.911 193.695 331.227 194.597C329.399 195.199 328.046 196.373 327.167 198.119 326.288 199.865 325.848 202.058 325.848 204.699 325.848 207.433 326.288 209.687 327.167 211.461 328.046 213.234 329.387 214.422 331.192 215.023L330.911 215.926C328.622 215.324 326.868 214.029 325.649 212.041 324.43 210.053 323.821 207.644 323.821 204.816 323.821 201.996 324.432 199.588 325.655 197.592 326.878 195.596 328.63 194.297 330.911 193.695Z" fill-rule="evenodd"/><text font-family="Cambria Math,Cambria Math_MSFontService,sans-serif" font-weight="400" font-size="24" transform="translate(331.672 212)">𝑖</text><text font-family="Cambria Math,Cambria Math_MSFontService,sans-serif" font-weight="400" font-size="24" transform="translate(356.725 212)">=</text><text font-family="Cambria Math,Cambria Math_MSFontService,sans-serif" font-weight="400" font-size="24" transform="translate(381.392 212)">1</text><text font-family="Cambria Math,Cambria Math_MSFontService,sans-serif" font-weight="400" font-size="24" transform="translate(394.725 212)">,</text><text font-family="Cambria Math,Cambria Math_MSFontService,sans-serif" font-weight="400" font-size="24" transform="translate(403.725 212)">𝑦</text><path d="M478.787 193.695C481.068 194.297 482.82 195.596 484.042 197.592 485.265 199.588 485.876 201.996 485.876 204.816 485.876 207.644 485.267 210.053 484.048 212.041 482.83 214.029 481.076 215.324 478.787 215.926L478.505 215.023C480.31 214.422 481.652 213.234 482.531 211.461 483.41 209.687 483.849 207.433 483.849 204.699 483.849 202.058 483.412 199.865 482.537 198.119 481.662 196.373 480.306 195.199 478.47 194.597ZM426.837 193.695 427.154 194.597C425.326 195.199 423.972 196.373 423.093 198.119 422.214 199.865 421.775 202.058 421.775 204.699 421.775 207.433 422.214 209.687 423.093 211.461 423.972 213.234 425.314 214.422 427.119 215.023L426.837 215.926C424.548 215.324 422.794 214.029 421.576 212.041 420.357 210.053 419.748 207.644 419.748 204.816 419.748 201.996 420.359 199.588 421.582 197.592 422.804 195.596 424.556 194.297 426.837 193.695Z" fill-rule="evenodd"/><text font-family="Cambria Math,Cambria Math_MSFontService,sans-serif" font-weight="400" font-size="24" transform="translate(427.598 212)">𝑖</text><text font-family="Cambria Math,Cambria Math_MSFontService,sans-serif" font-weight="400" font-size="24" transform="translate(441.358 212)">+</text><text font-family="Cambria Math,Cambria Math_MSFontService,sans-serif" font-weight="400" font-size="24" transform="translate(464.692 212)">1</text><text font-family="Cambria Math,Cambria Math_MSFontService,sans-serif" font-weight="400" font-size="24" transform="translate(494.652 212)">=</text><text font-family="Cambria Math,Cambria Math_MSFontService,sans-serif" font-weight="400" font-size="24" transform="translate(519.318 212)">0</text><text font-family="Cambria Math,Cambria Math_MSFontService,sans-serif" font-weight="400" font-size="24" transform="translate(532.652 212)">,</text><text font-family="Cambria Math,Cambria Math_MSFontService,sans-serif" font-weight="400" font-size="24" transform="translate(541.652 212)">𝑧</text><path d="M578.18 193.695C580.461 194.297 582.213 195.596 583.436 197.592 584.658 199.588 585.27 201.996 585.27 204.816 585.27 207.644 584.66 210.053 583.442 212.041 582.223 214.029 580.469 215.324 578.18 215.926L577.899 215.023C579.703 214.422 581.045 213.234 581.924 211.461 582.803 209.687 583.242 207.433 583.242 204.699 583.242 202.058 582.805 199.865 581.93 198.119 581.055 196.373 579.699 195.199 577.864 194.597ZM562.931 193.695 563.247 194.597C561.419 195.199 560.066 196.373 559.187 198.119 558.308 199.865 557.868 202.058 557.868 204.699 557.868 207.433 558.308 209.687 559.187 211.461 560.066 213.234 561.407 214.422 563.212 215.023L562.931 215.926C560.642 215.324 558.888 214.029 557.669 212.041 556.45 210.053 555.841 207.644 555.841 204.816 555.841 201.996 556.452 199.588 557.675 197.592 558.898 195.596 560.65 194.297 562.931 193.695Z" fill-rule="evenodd"/><text font-family="Cambria Math,Cambria Math_MSFontService,sans-serif" font-weight="400" font-size="24" transform="translate(563.692 212)">𝑞</text><text font-family="Cambria Math,Cambria Math_MSFontService,sans-serif" font-weight="400" font-size="24" transform="translate(594.045 212)">=</text><text font-family="Cambria Math,Cambria Math_MSFontService,sans-serif" font-weight="400" font-size="24" transform="translate(618.712 212)">1</text><text font-family="Cambria Math,Cambria Math_MSFontService,sans-serif" font-weight="400" font-size="24" transform="translate(632.045 212)">,</text><text font-family="Cambria Math,Cambria Math_MSFontService,sans-serif" font-weight="400" font-size="24" transform="translate(641.045 212)">𝑧</text><path d="M684.733 193.695C687.015 194.297 688.766 195.596 689.989 197.592 691.212 199.588 691.823 201.996 691.823 204.816 691.823 207.644 691.214 210.053 689.995 212.041 688.776 214.029 687.022 215.324 684.733 215.926L684.452 215.023C686.257 214.422 687.599 213.234 688.477 211.461 689.356 209.687 689.796 207.433 689.796 204.699 689.796 202.058 689.358 199.865 688.483 198.119 687.608 196.373 686.253 195.199 684.417 194.597ZM662.324 193.695 662.641 194.597C660.812 195.199 659.459 196.373 658.58 198.119 657.701 199.865 657.262 202.058 657.262 204.699 657.262 207.433 657.701 209.687 658.58 211.461 659.459 213.234 660.801 214.422 662.605 215.023L662.324 215.926C660.035 215.324 658.281 214.029 657.062 212.041 655.844 210.053 655.234 207.644 655.234 204.816 655.234 201.996 655.846 199.588 657.068 197.592 658.291 195.596 660.043 194.297 662.324 193.695Z" fill-rule="evenodd"/><text font-family="Cambria Math,Cambria Math_MSFontService,sans-serif" font-weight="400" font-size="24" transform="translate(663.085 212)">𝑞</text><text font-family="Cambria Math,Cambria Math_MSFontService,sans-serif" font-weight="400" font-size="17.52" transform="translate(676.812 203)">′</text><text font-family="Cambria Math,Cambria Math_MSFontService,sans-serif" font-weight="400" font-size="24" transform="translate(700.598 212)">=</text><text font-family="Cambria Math,Cambria Math_MSFontService,sans-serif" font-weight="400" font-size="24" transform="translate(725.265 212)">0</text><text font-family="Cambria Math,Cambria Math_MSFontService,sans-serif" font-weight="400" font-size="24" transform="translate(71.2049 674)">𝑥</text><path d="M126.833 656.134C129.115 656.735 130.866 658.034 132.089 660.03 133.312 662.026 133.923 664.434 133.923 667.255 133.923 670.083 133.314 672.491 132.095 674.479 130.876 676.468 129.122 677.762 126.833 678.364L126.552 677.462C128.357 676.86 129.699 675.673 130.577 673.899 131.456 672.126 131.896 669.872 131.896 667.137 131.896 664.497 131.458 662.303 130.583 660.557 129.708 658.811 128.353 657.637 126.517 657.036ZM93.9641 656.134 94.2805 657.036C92.4524 657.637 91.0989 658.811 90.22 660.557 89.341 662.303 88.9016 664.497 88.9016 667.137 88.9016 669.872 89.341 672.126 90.22 673.899 91.0989 675.673 92.4407 676.86 94.2453 677.462L93.9641 678.364C91.675 677.762 89.9211 676.468 88.7024 674.479 87.4836 672.491 86.8743 670.083 86.8743 667.255 86.8743 664.434 87.4856 662.026 88.7082 660.03 89.9309 658.034 91.6828 656.735 93.9641 656.134Z" fill-rule="evenodd"/><text font-family="Cambria Math,Cambria Math_MSFontService,sans-serif" font-weight="400" font-size="24" transform="translate(94.7249 674)">𝑖</text><text font-family="Cambria Math,Cambria Math_MSFontService,sans-serif" font-weight="400" font-size="24" transform="translate(103.152 674)">,</text><text font-family="Cambria Math,Cambria Math_MSFontService,sans-serif" font-weight="400" font-size="24" transform="translate(112.152 674)">𝑎</text><text font-family="Cambria Math,Cambria Math_MSFontService,sans-serif" font-weight="400" font-size="24" transform="translate(142.698 674)">=</text><text font-family="Cambria Math,Cambria Math_MSFontService,sans-serif" font-weight="400" font-size="24" transform="translate(167.365 674)">0</text><text font-family="Cambria Math,Cambria Math_MSFontService,sans-serif" font-weight="400" font-size="24" transform="translate(180.698 674)">,</text><text font-family="Cambria Math,Cambria Math_MSFontService,sans-serif" font-weight="400" font-size="24" transform="translate(189.698 674)">𝑥</text><path d="M244.933 656.134C247.215 656.735 248.966 658.034 250.189 660.03 251.412 662.026 252.023 664.434 252.023 667.255 252.023 670.083 251.414 672.491 250.195 674.479 248.976 676.468 247.222 677.762 244.933 678.364L244.652 677.462C246.457 676.86 247.798 675.673 248.677 673.899 249.556 672.126 249.996 669.872 249.996 667.137 249.996 664.497 249.558 662.303 248.683 660.557 247.808 658.811 246.453 657.637 244.617 657.036ZM212.457 656.134 212.774 657.036C210.946 657.637 209.592 658.811 208.713 660.557 207.834 662.303 207.395 664.497 207.395 667.137 207.395 669.872 207.834 672.126 208.713 673.899 209.592 675.673 210.934 676.86 212.739 677.462L212.457 678.364C210.168 677.762 208.414 676.468 207.196 674.479 205.977 672.491 205.368 670.083 205.368 667.255 205.368 664.434 205.979 662.026 207.202 660.03 208.424 658.034 210.176 656.735 212.457 656.134Z" fill-rule="evenodd"/><text font-family="Cambria Math,Cambria Math_MSFontService,sans-serif" font-weight="400" font-size="24" transform="translate(213.218 674)">𝑖</text><text font-family="Cambria Math,Cambria Math_MSFontService,sans-serif" font-weight="400" font-size="24" transform="translate(221.645 674)">,</text><text font-family="Cambria Math,Cambria Math_MSFontService,sans-serif" font-weight="400" font-size="24" transform="translate(230.645 674)">𝑏</text><text font-family="Cambria Math,Cambria Math_MSFontService,sans-serif" font-weight="400" font-size="24" transform="translate(260.798 674)">=</text><text font-family="Cambria Math,Cambria Math_MSFontService,sans-serif" font-weight="400" font-size="24" transform="translate(285.465 674)">1</text><text font-family="Cambria Math,Cambria Math_MSFontService,sans-serif" font-weight="400" font-size="24" transform="translate(298.798 674)">,</text><text font-family="Cambria Math,Cambria Math_MSFontService,sans-serif" font-weight="400" font-size="24" transform="translate(307.798 674)">𝑦</text><path d="M340.86 656.134C343.141 656.735 344.893 658.034 346.116 660.03 347.338 662.026 347.95 664.434 347.95 667.255 347.95 670.083 347.34 672.491 346.122 674.479 344.903 676.468 343.149 677.762 340.86 678.364L340.579 677.462C342.383 676.86 343.725 675.673 344.604 673.899 345.483 672.126 345.922 669.872 345.922 667.137 345.922 664.497 345.485 662.303 344.61 660.557 343.735 658.811 342.379 657.637 340.544 657.036ZM330.911 656.134 331.227 657.036C329.399 657.637 328.046 658.811 327.167 660.557 326.288 662.303 325.848 664.497 325.848 667.137 325.848 669.872 326.288 672.126 327.167 673.899 328.046 675.673 329.387 676.86 331.192 677.462L330.911 678.364C328.622 677.762 326.868 676.468 325.649 674.479 324.43 672.491 323.821 670.083 323.821 667.255 323.821 664.434 324.432 662.026 325.655 660.03 326.878 658.034 328.63 656.735 330.911 656.134Z" fill-rule="evenodd"/><text font-family="Cambria Math,Cambria Math_MSFontService,sans-serif" font-weight="400" font-size="24" transform="translate(331.672 674)">𝑖</text><text font-family="Cambria Math,Cambria Math_MSFontService,sans-serif" font-weight="400" font-size="24" transform="translate(356.725 674)">=</text><text font-family="Cambria Math,Cambria Math_MSFontService,sans-serif" font-weight="400" font-size="24" transform="translate(381.392 674)">0</text><text font-family="Cambria Math,Cambria Math_MSFontService,sans-serif" font-weight="400" font-size="24" transform="translate(394.725 674)">,</text><text font-family="Cambria Math,Cambria Math_MSFontService,sans-serif" font-weight="400" font-size="24" transform="translate(403.725 674)">𝑦</text><path d="M478.787 656.134C481.068 656.735 482.82 658.034 484.042 660.03 485.265 662.026 485.876 664.434 485.876 667.255 485.876 670.083 485.267 672.491 484.048 674.479 482.83 676.468 481.076 677.762 478.787 678.364L478.505 677.462C480.31 676.86 481.652 675.673 482.531 673.899 483.41 672.126 483.849 669.872 483.849 667.137 483.849 664.497 483.412 662.303 482.537 660.557 481.662 658.811 480.306 657.637 478.47 657.036ZM426.837 656.134 427.154 657.036C425.326 657.637 423.972 658.811 423.093 660.557 422.214 662.303 421.775 664.497 421.775 667.137 421.775 669.872 422.214 672.126 423.093 673.899 423.972 675.673 425.314 676.86 427.119 677.462L426.837 678.364C424.548 677.762 422.794 676.468 421.576 674.479 420.357 672.491 419.748 670.083 419.748 667.255 419.748 664.434 420.359 662.026 421.582 660.03 422.804 658.034 424.556 656.735 426.837 656.134Z" fill-rule="evenodd"/><text font-family="Cambria Math,Cambria Math_MSFontService,sans-serif" font-weight="400" font-size="24" transform="translate(427.598 674)">𝑖</text><text font-family="Cambria Math,Cambria Math_MSFontService,sans-serif" font-weight="400" font-size="24" transform="translate(441.358 674)">+</text><text font-family="Cambria Math,Cambria Math_MSFontService,sans-serif" font-weight="400" font-size="24" transform="translate(464.692 674)">1</text><text font-family="Cambria Math,Cambria Math_MSFontService,sans-serif" font-weight="400" font-size="24" transform="translate(494.652 674)">=</text><text font-family="Cambria Math,Cambria Math_MSFontService,sans-serif" font-weight="400" font-size="24" transform="translate(519.318 674)">1</text><text font-family="Cambria Math,Cambria Math_MSFontService,sans-serif" font-weight="400" font-size="24" transform="translate(532.652 674)">,</text><text font-family="Cambria Math,Cambria Math_MSFontService,sans-serif" font-weight="400" font-size="24" transform="translate(541.652 674)">𝑧</text><path d="M578.18 656.134C580.461 656.735 582.213 658.034 583.436 660.03 584.658 662.026 585.27 664.434 585.27 667.255 585.27 670.083 584.66 672.491 583.442 674.479 582.223 676.468 580.469 677.762 578.18 678.364L577.899 677.462C579.703 676.86 581.045 675.673 581.924 673.899 582.803 672.126 583.242 669.872 583.242 667.137 583.242 664.497 582.805 662.303 581.93 660.557 581.055 658.811 579.699 657.637 577.864 657.036ZM562.931 656.134 563.247 657.036C561.419 657.637 560.066 658.811 559.187 660.557 558.308 662.303 557.868 664.497 557.868 667.137 557.868 669.872 558.308 672.126 559.187 673.899 560.066 675.673 561.407 676.86 563.212 677.462L562.931 678.364C560.642 677.762 558.888 676.468 557.669 674.479 556.45 672.491 555.841 670.083 555.841 667.255 555.841 664.434 556.452 662.026 557.675 660.03 558.898 658.034 560.65 656.735 562.931 656.134Z" fill-rule="evenodd"/><text font-family="Cambria Math,Cambria Math_MSFontService,sans-serif" font-weight="400" font-size="24" transform="translate(563.692 674)">𝑞</text><text font-family="Cambria Math,Cambria Math_MSFontService,sans-serif" font-weight="400" font-size="24" transform="translate(594.045 674)">=</text><text font-family="Cambria Math,Cambria Math_MSFontService,sans-serif" font-weight="400" font-size="24" transform="translate(618.712 674)">0</text><text font-family="Cambria Math,Cambria Math_MSFontService,sans-serif" font-weight="400" font-size="24" transform="translate(632.045 674)">,</text><text font-family="Cambria Math,Cambria Math_MSFontService,sans-serif" font-weight="400" font-size="24" transform="translate(641.045 674)">𝑧</text><path d="M684.733 656.134C687.015 656.735 688.766 658.034 689.989 660.03 691.212 662.026 691.823 664.434 691.823 667.255 691.823 670.083 691.214 672.491 689.995 674.479 688.776 676.468 687.022 677.762 684.733 678.364L684.452 677.462C686.257 676.86 687.599 675.673 688.477 673.899 689.356 672.126 689.796 669.872 689.796 667.137 689.796 664.497 689.358 662.303 688.483 660.557 687.608 658.811 686.253 657.637 684.417 657.036ZM662.324 656.134 662.641 657.036C660.812 657.637 659.459 658.811 658.58 660.557 657.701 662.303 657.262 664.497 657.262 667.137 657.262 669.872 657.701 672.126 658.58 673.899 659.459 675.673 660.801 676.86 662.605 677.462L662.324 678.364C660.035 677.762 658.281 676.468 657.062 674.479 655.844 672.491 655.234 670.083 655.234 667.255 655.234 664.434 655.846 662.026 657.068 660.03 658.291 658.034 660.043 656.735 662.324 656.134Z" fill-rule="evenodd"/><text font-family="Cambria Math,Cambria Math_MSFontService,sans-serif" font-weight="400" font-size="24" transform="translate(663.085 674)">𝑞</text><text font-family="Cambria Math,Cambria Math_MSFontService,sans-serif" font-weight="400" font-size="17.52" transform="translate(676.812 665)">′</text><text font-family="Cambria Math,Cambria Math_MSFontService,sans-serif" font-weight="400" font-size="24" transform="translate(700.598 674)">=</text><text font-family="Cambria Math,Cambria Math_MSFontService,sans-serif" font-weight="400" font-size="24" transform="translate(725.265 674)">1</text><text font-family="Cambria Math,Cambria Math_MSFontService,sans-serif" font-weight="400" font-size="24" transform="translate(734.151 133)">𝑡</text><path d="M809.033 115.501C811.314 116.103 813.066 117.401 814.289 119.398 815.511 121.394 816.123 123.802 816.123 126.622 816.123 129.45 815.513 131.859 814.295 133.847 813.076 135.835 811.322 137.13 809.033 137.732L808.752 136.829C810.556 136.228 811.898 135.04 812.777 133.267 813.656 131.493 814.095 129.239 814.095 126.505 814.095 123.864 813.658 121.671 812.783 119.925 811.908 118.179 810.552 117.005 808.716 116.403ZM753.437 115.501 753.753 116.403C751.925 117.005 750.572 118.179 749.693 119.925 748.814 121.671 748.375 123.864 748.375 126.505 748.375 129.239 748.814 131.493 749.693 133.267 750.572 135.04 751.914 136.228 753.718 136.829L753.437 137.732C751.148 137.13 749.394 135.835 748.175 133.847 746.957 131.859 746.347 129.45 746.347 126.622 746.347 123.802 746.959 121.394 748.181 119.398 749.404 117.401 751.156 116.103 753.437 115.501Z" fill-rule="evenodd"/><text font-family="Cambria Math,Cambria Math_MSFontService,sans-serif" font-weight="400" font-size="24" transform="translate(754.198 133)">𝑖</text><text font-family="Cambria Math,Cambria Math_MSFontService,sans-serif" font-weight="400" font-size="24" transform="translate(762.625 133)">,</text><text font-family="Cambria Math,Cambria Math_MSFontService,sans-serif" font-weight="400" font-size="24" transform="translate(771.625 133)">𝑞</text><text font-family="Cambria Math,Cambria Math_MSFontService,sans-serif" font-weight="400" font-size="24" transform="translate(785.351 133)">,</text><text font-family="Cambria Math,Cambria Math_MSFontService,sans-serif" font-weight="400" font-size="24" transform="translate(794.351 133)">𝑎</text><text font-family="Cambria Math,Cambria Math_MSFontService,sans-serif" font-weight="400" font-size="24" transform="translate(824.898 133)">=</text><text font-family="Cambria Math,Cambria Math_MSFontService,sans-serif" font-weight="400" font-size="24" transform="translate(849.565 133)">1</text><text font-family="Source Han Sans JP Medium,Source Han Sans JP Medium_MSFontService,sans-serif" font-weight="500" font-size="24" transform="translate(646.778 161)">The other values of</text><text font-family="Cambria Math,Cambria Math_MSFontService,sans-serif" font-weight="400" font-size="24" transform="translate(869.125 161)">𝑡</text><text font-family="Source Han Sans JP Medium,Source Han Sans JP Medium_MSFontService,sans-serif" font-weight="500" font-size="24" transform="translate(884.544 161)">are</text><text font-family="Cambria Math,Cambria Math_MSFontService,sans-serif" font-weight="400" font-size="24" transform="translate(926.778 161)">0</text><text font-family="Source Han Sans JP Medium,Source Han Sans JP Medium_MSFontService,sans-serif" font-weight="500" font-size="24" transform="translate(940.111 161)">.</text><path d="M375 247 375 625.888 373 625.888 373 247ZM378 624.555 374 632.555 370 624.555Z" fill="#5B9BD5"/><text font-family="Source Han Sans JP Medium,Source Han Sans JP Medium_MSFontService,sans-serif" font-weight="500" font-size="24" transform="translate(134.285 404)">We want to change</text></g></svg>