<svg width="960" height="720" xmlns="http://www.w3.org/2000/svg" xmlns:xlink="http://www.w3.org/1999/xlink" overflow="hidden"><defs><clipPath id="clip0"><rect x="0" y="0" width="960" height="720"/></clipPath></defs><g clip-path="url(#clip0)"><rect x="0" y="0" width="960" height="720" fill="#FFFFFF"/><rect x="0.500053" y="0.500053" width="960" height="76" stroke="#DEEBF7" stroke-width="1.33333" stroke-miterlimit="8" fill="#DEEBF7"/><path d="M775.5 674.5C775.5 664.559 783.559 656.5 793.5 656.5 803.441 656.5 811.5 664.559 811.5 674.5 811.5 684.441 803.441 692.5 793.5 692.5 783.559 692.5 775.5 684.441 775.5 674.5Z" stroke="#41719C" stroke-width="1.33333" stroke-miterlimit="8" fill="#5B9BD5" fill-rule="evenodd"/><path d="M451.5 670.5C451.5 660.559 459.559 652.5 469.5 652.5 479.441 652.5 487.5 660.559 487.5 670.5 487.5 680.441 479.441 688.5 469.5 688.5 459.559 688.5 451.5 680.441 451.5 670.5Z" stroke="#41719C" stroke-width="1.33333" stroke-miterlimit="8" fill="#5B9BD5" fill-rule="evenodd"/><path d="M215.5 668.5C215.5 658.559 223.335 650.5 233 650.5 242.665 650.5 250.5 658.559 250.5 668.5 250.5 678.441 242.665 686.5 233 686.5 223.335 686.5 215.5 678.441 215.5 668.5Z" stroke="#41719C" stroke-width="1.33333" stroke-miterlimit="8" fill="#5B9BD5" fill-rule="evenodd"/><path d="M779.5 508.5C779.5 498.559 787.335 490.5 797 490.5 806.665 490.5 814.5 498.559 814.5 508.5 814.5 518.441 806.665 526.5 797 526.5 787.335 526.5 779.5 518.441 779.5 508.5Z" stroke="#41719C" stroke-width="1.33333" stroke-miterlimit="8" fill="#5B9BD5" fill-rule="evenodd"/><path d="M528.5 507.5C528.5 497.559 536.335 489.5 546 489.5 555.665 489.5 563.5 497.559 563.5 507.5 563.5 517.441 555.665 525.5 546 525.5 536.335 525.5 528.5 517.441 528.5 507.5Z" stroke="#41719C" stroke-width="1.33333" stroke-miterlimit="8" fill="#5B9BD5" fill-rule="evenodd"/><path d="M217.5 505.5C217.5 495.559 225.335 487.5 235 487.5 244.665 487.5 252.5 495.559 252.5 505.5 252.5 515.441 244.665 523.5 235 523.5 225.335 523.5 217.5 515.441 217.5 505.5Z" stroke="#41719C" stroke-width="1.33333" stroke-miterlimit="8" fill="#5B9BD5" fill-rule="evenodd"/><text fill="#898989" font-family="Source Han Sans JP Medium,Source Han Sans JP Medium_MSFontService,sans-serif" font-weight="500" font-size="16" transform="translate(865.933 692)">57</text><text font-family="Source Han Sans JP Medium,Source Han Sans JP Medium_MSFontService,sans-serif" font-weight="500" font-size="38.6667" transform="translate(75.6 55)">Reduction from</text><text font-family="Cambria Math,Cambria Math_MSFontService,sans-serif" font-weight="400" font-size="38.6667" transform="translate(370.82 55)">SAT</text><text font-family="Source Han Sans JP Medium,Source Han Sans JP Medium_MSFontService,sans-serif" font-weight="500" font-size="38.6667" transform="translate(437.153 55)">-</text><text font-family="Cambria Math,Cambria Math_MSFontService,sans-serif" font-weight="400" font-size="38.6667" transform="translate(450.987 55)">RECONF</text><text font-family="Source Han Sans JP Medium,Source Han Sans JP Medium_MSFontService,sans-serif" font-weight="500" font-size="38.6667" transform="translate(599.987 55)">to</text><text font-family="Cambria Math,Cambria Math_MSFontService,sans-serif" font-weight="400" font-size="38.6667" transform="translate(646.993 55)">IND</text><text font-family="Source Han Sans JP Medium,Source Han Sans JP Medium_MSFontService,sans-serif" font-weight="500" font-size="38.6667" transform="translate(711.327 55)">-</text><text font-family="Cambria Math,Cambria Math_MSFontService,sans-serif" font-weight="400" font-size="38.6667" transform="translate(725.16 55)">RECONF</text><text font-family="Cambria Math,Cambria Math_MSFontService,sans-serif" font-weight="400" font-size="32" transform="translate(184.167 369)">ğ‘”</text><text font-family="Cambria Math,Cambria Math_MSFontService,sans-serif" font-weight="400" font-size="32" transform="translate(213.1 369)">=</text><path d="M355.462 345.291C358.504 346.093 360.84 347.825 362.47 350.486 364.1 353.148 364.915 356.359 364.915 360.119 364.915 363.89 364.103 367.101 362.478 369.752 360.853 372.403 358.514 374.13 355.462 374.932L355.087 373.729C357.493 372.927 359.283 371.343 360.454 368.979 361.626 366.614 362.212 363.609 362.212 359.963 362.212 356.442 361.629 353.518 360.462 351.19 359.296 348.861 357.488 347.296 355.04 346.494ZM258.086 345.291 258.507 346.494C256.07 347.296 254.265 348.861 253.093 351.19 251.921 353.518 251.336 356.442 251.336 359.963 251.336 363.609 251.921 366.614 253.093 368.979 254.265 371.343 256.054 372.927 258.461 373.729L258.086 374.932C255.033 374.13 252.695 372.403 251.07 369.752 249.445 367.101 248.632 363.89 248.632 360.119 248.632 356.359 249.448 353.148 251.078 350.486 252.708 347.825 255.044 346.093 258.086 345.291Z" fill-rule="evenodd"/><text font-family="Cambria Math,Cambria Math_MSFontService,sans-serif" font-weight="400" font-size="32" transform="translate(259.1 369)">ğ‘¥</text><text font-family="Cambria Math,Cambria Math_MSFontService,sans-serif" font-weight="400" font-size="23.36" transform="translate(275.047 376)">1</text><path d="M259.107 348.89 267.607 348.89 272.872 348.89 276.1 348.89 281.372 348.89 289.866 348.89 289.866 350.546 281.372 350.546 276.1 350.546 272.872 350.546 267.607 350.546 259.107 350.546Z" fill-rule="evenodd"/><text font-family="Cambria Math,Cambria Math_MSFontService,sans-serif" font-weight="400" font-size="32" transform="translate(296.987 369)">âˆ¨</text><text font-family="Cambria Math,Cambria Math_MSFontService,sans-serif" font-weight="400" font-size="32" transform="translate(322.933 369)">ğ‘¥</text><text font-family="Cambria Math,Cambria Math_MSFontService,sans-serif" font-weight="400" font-size="23.36" transform="translate(339.62 376)">2</text><text font-family="Cambria Math,Cambria Math_MSFontService,sans-serif" font-weight="400" font-size="32" transform="translate(374.84 369)">âˆ§</text><path d="M510.429 345.291C513.471 346.093 515.806 347.825 517.437 350.486 519.067 353.148 519.882 356.359 519.882 360.119 519.882 363.89 519.069 367.101 517.444 369.752 515.819 372.403 513.481 374.13 510.429 374.932L510.054 373.729C512.46 372.927 514.249 371.343 515.421 368.979 516.593 366.614 517.179 363.609 517.179 359.963 517.179 356.442 516.596 353.518 515.429 351.19 514.262 348.861 512.455 347.296 510.007 346.494ZM413.052 345.291 413.474 346.494C411.037 347.296 409.232 348.861 408.06 351.19 406.888 353.518 406.302 356.442 406.302 359.963 406.302 363.609 406.888 366.614 408.06 368.979 409.232 371.343 411.021 372.927 413.427 373.729L413.052 374.932C410 374.13 407.662 372.403 406.037 369.752 404.412 367.101 403.599 363.89 403.599 360.119 403.599 356.359 404.414 353.148 406.044 350.486 407.675 347.825 410.011 346.093 413.052 345.291Z" fill-rule="evenodd"/><text font-family="Cambria Math,Cambria Math_MSFontService,sans-serif" font-weight="400" font-size="32" transform="translate(414.067 369)">ğ‘¥</text><text font-family="Cambria Math,Cambria Math_MSFontService,sans-serif" font-weight="400" font-size="23.36" transform="translate(430.013 376)">1</text><path d="M414.073 348.89 422.573 348.89 427.839 348.89 431.067 348.89 436.339 348.89 444.832 348.89 444.832 350.546 436.339 350.546 431.067 350.546 427.839 350.546 422.573 350.546 414.073 350.546Z" fill-rule="evenodd"/><text font-family="Cambria Math,Cambria Math_MSFontService,sans-serif" font-weight="400" font-size="32" transform="translate(451.953 369)">âˆ¨</text><text font-family="Cambria Math,Cambria Math_MSFontService,sans-serif" font-weight="400" font-size="32" transform="translate(477.9 369)">ğ‘¥</text><text font-family="Cambria Math,Cambria Math_MSFontService,sans-serif" font-weight="400" font-size="23.36" transform="translate(494.587 376)">3</text><path d="M477.907 348.89 486.773 348.89 491.672 348.89 495.633 348.89 500.539 348.89 509.399 348.89 509.399 350.546 500.539 350.546 495.633 350.546 491.672 350.546 486.773 350.546 477.907 350.546Z" fill-rule="evenodd"/><text font-family="Cambria Math,Cambria Math_MSFontService,sans-serif" font-weight="400" font-size="32" transform="translate(529.807 369)">âˆ§</text><text font-family="Cambria Math,Cambria Math_MSFontService,sans-serif" font-weight="400" font-size="32" transform="translate(555.753 369)">(</text><text font-family="Cambria Math,Cambria Math_MSFontService,sans-serif" font-weight="400" font-size="32" transform="translate(569.087 369)">ğ‘¥</text><text font-family="Cambria Math,Cambria Math_MSFontService,sans-serif" font-weight="400" font-size="23.36" transform="translate(585.033 376)">1</text><text font-family="Cambria Math,Cambria Math_MSFontService,sans-serif" font-weight="400" font-size="32" transform="translate(606.973 369)">âˆ¨</text><text font-family="Cambria Math,Cambria Math_MSFontService,sans-serif" font-weight="400" font-size="32" transform="translate(632.92 369)">ğ‘¥</text><text font-family="Cambria Math,Cambria Math_MSFontService,sans-serif" font-weight="400" font-size="23.36" transform="translate(649.607 376)">2</text><path d="M632.927 348.89 641.793 348.89 646.692 348.89 650.653 348.89 655.559 348.89 664.419 348.89 664.419 350.546 655.559 350.546 650.653 350.546 646.692 350.546 641.793 350.546 632.927 350.546Z" fill-rule="evenodd"/><text font-family="Cambria Math,Cambria Math_MSFontService,sans-serif" font-weight="400" font-size="32" transform="translate(671.547 369)">âˆ¨</text><text font-family="Cambria Math,Cambria Math_MSFontService,sans-serif" font-weight="400" font-size="32" transform="translate(697.493 369)">ğ‘¥</text><text font-family="Cambria Math,Cambria Math_MSFontService,sans-serif" font-weight="400" font-size="23.36" transform="translate(714.18 376)">3</text><text font-family="Cambria Math,Cambria Math_MSFontService,sans-serif" font-weight="400" font-size="32" transform="translate(729.007 369)">)</text><text font-family="Cambria Math,Cambria Math_MSFontService,sans-serif" font-weight="400" font-size="32" transform="translate(279.063 481)">ğ‘¥</text><text font-family="Cambria Math,Cambria Math_MSFontService,sans-serif" font-weight="400" font-size="23.36" transform="translate(295.01 487)">1</text><text font-family="Cambria Math,Cambria Math_MSFontService,sans-serif" font-weight="400" font-size="32" transform="translate(190.204 481)">ğ‘¥</text><text font-family="Cambria Math,Cambria Math_MSFontService,sans-serif" font-weight="400" font-size="23.36" transform="translate(206.15 487)">1</text><path d="M190.21 460.171 198.71 460.171 203.976 460.171 207.204 460.171 212.476 460.171 220.969 460.171 220.969 461.827 212.476 461.827 207.204 461.827 203.976 461.827 198.71 461.827 190.21 461.827Z" fill-rule="evenodd"/><rect x="155.5" y="446.5" width="204" height="86" stroke="#41719C" stroke-width="1.33333" stroke-miterlimit="8" stroke-dasharray="5.33333 4" fill="none"/><text font-family="Cambria Math,Cambria Math_MSFontService,sans-serif" font-weight="400" font-size="32" transform="translate(514.389 482)">ğ‘¥</text><text font-family="Cambria Math,Cambria Math_MSFontService,sans-serif" font-weight="400" font-size="23.36" transform="translate(531.076 488)">2</text><text font-family="Cambria Math,Cambria Math_MSFontService,sans-serif" font-weight="400" font-size="32" transform="translate(425.529 482)">ğ‘¥</text><text font-family="Cambria Math,Cambria Math_MSFontService,sans-serif" font-weight="400" font-size="23.36" transform="translate(442.216 488)">2</text><path d="M425.536 461.571 434.403 461.571 439.302 461.571 443.263 461.571 448.168 461.571 457.028 461.571 457.028 463.227 448.168 463.227 443.263 463.227 439.302 463.227 434.403 463.227 425.536 463.227Z" fill-rule="evenodd"/><rect x="390.5" y="447.5" width="205" height="86" stroke="#41719C" stroke-width="1.33333" stroke-miterlimit="8" stroke-dasharray="5.33333 4" fill="none"/><text font-family="Cambria Math,Cambria Math_MSFontService,sans-serif" font-weight="400" font-size="32" transform="translate(765.089 482)">ğ‘¥</text><text font-family="Cambria Math,Cambria Math_MSFontService,sans-serif" font-weight="400" font-size="23.36" transform="translate(781.775 488)">3</text><text font-family="Cambria Math,Cambria Math_MSFontService,sans-serif" font-weight="400" font-size="32" transform="translate(676.229 482)">ğ‘¥</text><text font-family="Cambria Math,Cambria Math_MSFontService,sans-serif" font-weight="400" font-size="23.36" transform="translate(692.916 488)">3</text><path d="M676.236 461.571 685.102 461.571 690.001 461.571 693.962 461.571 698.868 461.571 707.728 461.571 707.728 463.227 698.868 463.227 693.962 463.227 690.001 463.227 685.102 463.227 676.236 463.227Z" fill-rule="evenodd"/><rect x="641.5" y="447.5" width="204" height="86" stroke="#41719C" stroke-width="1.33333" stroke-miterlimit="8" stroke-dasharray="5.33333 4" fill="none"/><text font-family="Cambria Math,Cambria Math_MSFontService,sans-serif" font-weight="400" font-size="32" transform="translate(277.239 643)">ğ‘¥</text><text font-family="Cambria Math,Cambria Math_MSFontService,sans-serif" font-weight="400" font-size="23.36" transform="translate(293.926 650)">2</text><text font-family="Cambria Math,Cambria Math_MSFontService,sans-serif" font-weight="400" font-size="32" transform="translate(188.333 643)">ğ‘¥</text><text font-family="Cambria Math,Cambria Math_MSFontService,sans-serif" font-weight="400" font-size="23.36" transform="translate(204.28 650)">1</text><path d="M188.34 623.121 196.84 623.121 202.105 623.121 205.333 623.121 210.605 623.121 219.098 623.121 219.098 624.777 210.605 624.777 205.333 624.777 202.105 624.777 196.84 624.777 188.34 624.777Z" fill-rule="evenodd"/><rect x="153.5" y="609.5" width="204" height="86" stroke="#41719C" stroke-width="1.33333" stroke-miterlimit="8" stroke-dasharray="5.33333 4" fill="none"/><text font-family="Cambria Math,Cambria Math_MSFontService,sans-serif" font-weight="400" font-size="32" transform="translate(513.834 646)">ğ‘¥</text><text font-family="Cambria Math,Cambria Math_MSFontService,sans-serif" font-weight="400" font-size="23.36" transform="translate(530.52 652)">3</text><path d="M513.84 625.187 522.707 625.187 527.606 625.187 531.567 625.187 536.473 625.187 545.333 625.187 545.333 626.843 536.473 626.843 531.567 626.843 527.606 626.843 522.707 626.843 513.84 626.843Z" fill-rule="evenodd"/><rect x="390.5" y="611.5" width="204" height="86" stroke="#41719C" stroke-width="1.33333" stroke-miterlimit="8" stroke-dasharray="5.33333 4" fill="none"/><text font-family="Cambria Math,Cambria Math_MSFontService,sans-serif" font-weight="400" font-size="32" transform="translate(692.602 616)">ğ‘¥</text><text font-family="Cambria Math,Cambria Math_MSFontService,sans-serif" font-weight="400" font-size="23.36" transform="translate(709.288 622)">2</text><path d="M692.608 595.363 701.475 595.363 706.374 595.363 710.335 595.363 715.241 595.363 724.101 595.363 724.101 597.019 715.241 597.019 710.335 597.019 706.374 597.019 701.475 597.019 692.608 597.019Z" fill-rule="evenodd"/><rect x="639.5" y="580.5" width="204" height="121" stroke="#41719C" stroke-width="1.33333" stroke-miterlimit="8" stroke-dasharray="5.33333 4" fill="none"/><text font-family="Cambria Math,Cambria Math_MSFontService,sans-serif" font-weight="400" font-size="32" transform="translate(810.606 645)">ğ‘¥</text><text font-family="Cambria Math,Cambria Math_MSFontService,sans-serif" font-weight="400" font-size="23.36" transform="translate(827.293 651)">3</text><text font-family="Cambria Math,Cambria Math_MSFontService,sans-serif" font-weight="400" font-size="32" transform="translate(680.1 657)">ğ‘¥</text><text font-family="Cambria Math,Cambria Math_MSFontService,sans-serif" font-weight="400" font-size="23.36" transform="translate(696.047 664)">1</text><path d="M0 0 77.1646 0.000104987" stroke="#1B3966" stroke-width="3" stroke-miterlimit="8" fill="none" fill-rule="evenodd" transform="matrix(1 0 0 -1 232.5 667.5)"/><path d="M468.5 672.5 543.234 672.5" stroke="#1B3966" stroke-width="3" stroke-miterlimit="8" fill="none" fill-rule="evenodd"/><path d="M717.5 674.5 793.449 674.5" stroke="#1B3966" stroke-width="3" stroke-miterlimit="8" fill="none" fill-rule="evenodd"/><path d="M0 0 33.4177 71.0886" stroke="#1B3966" stroke-width="3" stroke-miterlimit="8" fill="none" fill-rule="evenodd" transform="matrix(1 0 0 -1 719.5 675.589)"/><path d="M794.386 673.158 755.5 604.5" stroke="#1B3966" stroke-width="3" stroke-miterlimit="8" fill="none" fill-rule="evenodd"/><path d="M232.5 505.5 720.18 673.5" stroke="#7030A0" stroke-width="3" stroke-miterlimit="8" fill="none" fill-rule="evenodd"/><path d="M0 0 76.8 164.16" stroke="#7030A0" stroke-width="3" stroke-miterlimit="8" fill="none" fill-rule="evenodd" transform="matrix(-1 0 0 1 310.3 503.5)"/><path d="M310.5 517.5 469.564 669.817" stroke="#7030A0" stroke-width="3" stroke-miterlimit="8" fill="none" fill-rule="evenodd"/><path d="M0 0 159.36 162.24" stroke="#7030A0" stroke-width="3" stroke-miterlimit="8" fill="none" fill-rule="evenodd" transform="matrix(-1 0 0 1 468.86 506.5)"/><path d="M546.5 506.5 752.9 601.54" stroke="#7030A0" stroke-width="3" stroke-miterlimit="8" fill="none" fill-rule="evenodd"/><path d="M0 0 251.52 164.16" stroke="#7030A0" stroke-width="3" stroke-miterlimit="8" fill="none" fill-rule="evenodd" transform="matrix(-1 0 0 1 797.02 506.5)"/><path d="M0 0 74.1266 0.000104987" stroke="#1B3966" stroke-width="3" stroke-miterlimit="8" fill="none" fill-rule="evenodd" transform="matrix(1 0 0 -1 235.5 506.5)"/><path d="M468.5 508.5 545.665 508.5" stroke="#1B3966" stroke-width="3" stroke-miterlimit="8" fill="none" fill-rule="evenodd"/><path d="M719.5 505.5 797.88 505.5" stroke="#1B3966" stroke-width="3" stroke-miterlimit="8" fill="none" fill-rule="evenodd"/><path d="M223.5 506C223.5 499.649 228.649 494.5 235 494.5 241.351 494.5 246.5 499.649 246.5 506 246.5 512.351 241.351 517.5 235 517.5 228.649 517.5 223.5 512.351 223.5 506Z" stroke="#1B3966" stroke-width="3" stroke-miterlimit="8" fill="#DEEBF7" fill-rule="evenodd"/><path d="M299.5 506C299.5 499.649 304.425 494.5 310.5 494.5 316.575 494.5 321.5 499.649 321.5 506 321.5 512.351 316.575 517.5 310.5 517.5 304.425 517.5 299.5 512.351 299.5 506Z" stroke="#1B3966" stroke-width="3" stroke-miterlimit="8" fill="#DEEBF7" fill-rule="evenodd"/><path d="M458.5 507.5C458.5 501.425 463.649 496.5 470 496.5 476.351 496.5 481.5 501.425 481.5 507.5 481.5 513.575 476.351 518.5 470 518.5 463.649 518.5 458.5 513.575 458.5 507.5Z" stroke="#1B3966" stroke-width="3" stroke-miterlimit="8" fill="#DEEBF7" fill-rule="evenodd"/><path d="M534.5 507.5C534.5 501.425 539.649 496.5 546 496.5 552.351 496.5 557.5 501.425 557.5 507.5 557.5 513.575 552.351 518.5 546 518.5 539.649 518.5 534.5 513.575 534.5 507.5Z" stroke="#1B3966" stroke-width="3" stroke-miterlimit="8" fill="#DEEBF7" fill-rule="evenodd"/><path d="M785.5 507.5C785.5 501.425 790.425 496.5 796.5 496.5 802.575 496.5 807.5 501.425 807.5 507.5 807.5 513.575 802.575 518.5 796.5 518.5 790.425 518.5 785.5 513.575 785.5 507.5Z" stroke="#1B3966" stroke-width="3" stroke-miterlimit="8" fill="#DEEBF7" fill-rule="evenodd"/><path d="M221.5 669C221.5 662.649 226.649 657.5 233 657.5 239.351 657.5 244.5 662.649 244.5 669 244.5 675.351 239.351 680.5 233 680.5 226.649 680.5 221.5 675.351 221.5 669Z" stroke="#1B3966" stroke-width="3" stroke-miterlimit="8" fill="#DEEBF7" fill-rule="evenodd"/><path d="M297.5 669C297.5 662.649 302.649 657.5 309 657.5 315.351 657.5 320.5 662.649 320.5 669 320.5 675.351 315.351 680.5 309 680.5 302.649 680.5 297.5 675.351 297.5 669Z" stroke="#1B3966" stroke-width="3" stroke-miterlimit="8" fill="#DEEBF7" fill-rule="evenodd"/><path d="M458.5 671C458.5 664.649 463.649 659.5 470 659.5 476.351 659.5 481.5 664.649 481.5 671 481.5 677.351 476.351 682.5 470 682.5 463.649 682.5 458.5 677.351 458.5 671Z" stroke="#1B3966" stroke-width="3" stroke-miterlimit="8" fill="#DEEBF7" fill-rule="evenodd"/><path d="M534.5 671C534.5 664.649 539.425 659.5 545.5 659.5 551.575 659.5 556.5 664.649 556.5 671 556.5 677.351 551.575 682.5 545.5 682.5 539.425 682.5 534.5 677.351 534.5 671Z" stroke="#1B3966" stroke-width="3" stroke-miterlimit="8" fill="#DEEBF7" fill-rule="evenodd"/><path d="M707.5 675C707.5 668.649 712.649 663.5 719 663.5 725.351 663.5 730.5 668.649 730.5 675 730.5 681.351 725.351 686.5 719 686.5 712.649 686.5 707.5 681.351 707.5 675Z" stroke="#1B3966" stroke-width="3" stroke-miterlimit="8" fill="#DEEBF7" fill-rule="evenodd"/><path d="M741.5 604C741.5 597.649 746.649 592.5 753 592.5 759.351 592.5 764.5 597.649 764.5 604 764.5 610.351 759.351 615.5 753 615.5 746.649 615.5 741.5 610.351 741.5 604Z" stroke="#1B3966" stroke-width="3" stroke-miterlimit="8" fill="#DEEBF7" fill-rule="evenodd"/><path d="M720.5 509.5C722.415 531.964 724.33 554.427 736.777 562.262 749.224 570.096 785.609 537.799 795.184 556.506 804.758 575.212 799.492 624.856 794.226 674.5" stroke="#7030A0" stroke-width="3" stroke-miterlimit="8" fill="none" fill-rule="evenodd"/><path d="M709.5 507.5C709.5 501.425 714.649 496.5 721 496.5 727.351 496.5 732.5 501.425 732.5 507.5 732.5 513.575 727.351 518.5 721 518.5 714.649 518.5 709.5 513.575 709.5 507.5Z" stroke="#1B3966" stroke-width="3" stroke-miterlimit="8" fill="#DEEBF7" fill-rule="evenodd"/><path d="M783.5 675C783.5 668.649 788.425 663.5 794.5 663.5 800.575 663.5 805.5 668.649 805.5 675 805.5 681.351 800.575 686.5 794.5 686.5 788.425 686.5 783.5 681.351 783.5 675Z" stroke="#1B3966" stroke-width="3" stroke-miterlimit="8" fill="#DEEBF7" fill-rule="evenodd"/><text font-family="Source Han Sans JP Medium,Source Han Sans JP Medium_MSFontService,sans-serif" font-weight="500" font-size="24" transform="translate(24.8849 463)">variable</text><text font-family="Source Han Sans JP Medium,Source Han Sans JP Medium_MSFontService,sans-serif" font-weight="500" font-size="24" transform="translate(24.8849 491)">gadgets</text><text font-family="Source Han Sans JP Medium,Source Han Sans JP Medium_MSFontService,sans-serif" font-weight="500" font-size="24" transform="translate(26.5488 625)">clause</text><text font-family="Source Han Sans JP Medium,Source Han Sans JP Medium_MSFontService,sans-serif" font-weight="500" font-size="24" transform="translate(26.5488 653)">gadgets</text><text font-family="Cambria Math,Cambria Math_MSFontService,sans-serif" font-weight="400" font-size="26.6667" transform="translate(50.5525 418)">ğ‘ </text><text font-family="Cambria Math,Cambria Math_MSFontService,sans-serif" font-weight="400" font-size="26.6667" transform="translate(70.8392 418)">=</text><text font-family="Cambria Math,Cambria Math_MSFontService,sans-serif" font-weight="400" font-size="26.6667" transform="translate(98.2459 418)">ğ‘¥</text><text font-family="Cambria Math,Cambria Math_MSFontService,sans-serif" font-weight="400" font-size="19.4667" transform="translate(111.533 424)">1</text><text font-family="Cambria Math,Cambria Math_MSFontService,sans-serif" font-weight="400" font-size="26.6667" transform="translate(123.973 418)">ğ‘¥</text><text font-family="Cambria Math,Cambria Math_MSFontService,sans-serif" font-weight="400" font-size="19.4667" transform="translate(137.879 424)">2</text><text font-family="Cambria Math,Cambria Math_MSFontService,sans-serif" font-weight="400" font-size="26.6667" transform="translate(150.319 418)">ğ‘¥</text><text font-family="Cambria Math,Cambria Math_MSFontService,sans-serif" font-weight="400" font-size="19.4667" transform="translate(164.226 424)">3</text><text font-family="Cambria Math,Cambria Math_MSFontService,sans-serif" font-weight="400" font-size="26.6667" transform="translate(184.073 418)">=</text><text font-family="Cambria Math,Cambria Math_MSFontService,sans-serif" font-weight="400" font-size="26.6667" transform="translate(211.479 418)">011</text><text font-family="Cambria Math,Cambria Math_MSFontService,sans-serif" font-weight="400" font-size="32" transform="translate(452.875 644)">ğ‘¥</text><text font-family="Cambria Math,Cambria Math_MSFontService,sans-serif" font-weight="400" font-size="23.36" transform="translate(468.821 651)">1</text><path d="M452.881 624.08 461.381 624.08 466.647 624.08 469.875 624.08 475.147 624.08 483.64 624.08 483.64 625.736 475.147 625.736 469.875 625.736 466.647 625.736 461.381 625.736 452.881 625.736Z" fill-rule="evenodd"/><rect x="47" y="87" width="879" height="243" fill="#FFFBF7"/><text font-family="Source Han Sans JP Medium,Source Han Sans JP Medium_MSFontService,sans-serif" font-weight="500" font-size="26.6667" transform="translate(68.2613 128)">An assignment</text><text font-family="Cambria Math,Cambria Math_MSFontService,sans-serif" font-weight="400" font-size="26.6667" transform="translate(261.595 128)">ğ‘ </text><text font-family="Source Han Sans JP Medium,Source Han Sans JP Medium_MSFontService,sans-serif" font-weight="500" font-size="26.6667" transform="translate(280.475 128)">satisfies</text><text font-family="Cambria Math,Cambria Math_MSFontService,sans-serif" font-weight="400" font-size="26.6667" transform="translate(389.855 128)">ğ‘”</text><text font-family="Cambria Math,Cambria Math_MSFontService,sans-serif" font-weight="400" font-size="26.6667" transform="translate(406.641 128)"></text><text font-family="Cambria Math,Cambria Math_MSFontService,sans-serif" font-weight="400" font-size="26.6667" transform="translate(412.475 128)"></text><text font-family="Cambria Math,Cambria Math_MSFontService,sans-serif" font-weight="400" font-size="26.6667" transform="translate(425.715 128)">âŸº</text><text font-family="Source Han Sans JP Medium,Source Han Sans JP Medium_MSFontService,sans-serif" font-weight="500" font-size="26.6667" transform="translate(475.215 128)">The corresponding set</text><text font-family="Cambria Math,Cambria Math_MSFontService,sans-serif" font-weight="400" font-size="26.6667" transform="translate(764.101 128)">ğ‘†</text><text font-family="Source Han Sans JP Medium,Source Han Sans JP Medium_MSFontService,sans-serif" font-weight="500" font-size="26.6667" transform="translate(784.788 128)">is</text><text font-family="Source Han Sans JP Medium,Source Han Sans JP Medium_MSFontService,sans-serif" font-weight="500" font-size="26.6667" transform="translate(662.261 160)">an independent set</text><text font-family="Source Han Sans JP Medium,Source Han Sans JP Medium_MSFontService,sans-serif" font-weight="500" font-size="24" transform="translate(68.2613 178)">Proof</text><text font-family="Cambria Math,Cambria Math_MSFontService,sans-serif" font-weight="400" font-size="24" transform="translate(141.588 178)">(</text><text font-family="Cambria Math,Cambria Math_MSFontService,sans-serif" font-weight="400" font-size="24" transform="translate(151.588 178)">âŸ¸</text><text font-family="Cambria Math,Cambria Math_MSFontService,sans-serif" font-weight="400" font-size="24" transform="translate(179.921 178)">)</text><text font-family="Source Han Sans JP Medium,Source Han Sans JP Medium_MSFontService,sans-serif" font-weight="500" font-size="24" transform="translate(116.047 224)">Exactly one token is placed on the vertices in each variable gadget.</text><text font-family="Source Han Sans JP Medium,Source Han Sans JP Medium_MSFontService,sans-serif" font-weight="500" font-size="24" transform="translate(115.612 264)">We obtain the assignment</text><text font-family="Cambria Math,Cambria Math_MSFontService,sans-serif" font-weight="400" font-size="24" transform="translate(416.818 264)">ğ‘ </text><text font-family="Source Han Sans JP Medium,Source Han Sans JP Medium_MSFontService,sans-serif" font-weight="500" font-size="24" transform="translate(433.812 264)">of</text><text font-family="Cambria Math,Cambria Math_MSFontService,sans-serif" font-weight="400" font-size="24" transform="translate(462.072 264)">ğ‘”</text><text font-family="Source Han Sans JP Medium,Source Han Sans JP Medium_MSFontService,sans-serif" font-weight="500" font-size="24" transform="translate(477.152 264)">.</text><text font-family="Source Han Sans JP Medium,Source Han Sans JP Medium_MSFontService,sans-serif" font-weight="500" font-size="24" transform="translate(115.612 304)">The assignment</text><text font-family="Cambria Math,Cambria Math_MSFontService,sans-serif" font-weight="400" font-size="24" transform="translate(302.445 304)">ğ‘ </text><text font-family="Source Han Sans JP Medium,Source Han Sans JP Medium_MSFontService,sans-serif" font-weight="500" font-size="24" transform="translate(319.438 304)">satisfies each clause.</text></g></svg>