<svg width="960" height="720" xmlns="http://www.w3.org/2000/svg" xmlns:xlink="http://www.w3.org/1999/xlink" overflow="hidden"><defs><clipPath id="clip0"><rect x="0" y="0" width="960" height="720"/></clipPath></defs><g clip-path="url(#clip0)"><rect x="0" y="0" width="960" height="720" fill="#FFFFFF"/><rect x="0.500053" y="0.500053" width="960" height="76" stroke="#DEEBF7" stroke-width="1.33333" stroke-miterlimit="8" fill="#DEEBF7"/><text fill="#898989" font-family="Source Han Sans JP Medium,Source Han Sans JP Medium_MSFontService,sans-serif" font-weight="500" font-size="16" transform="translate(865.933 692)">41</text><text font-family="Cambria Math,Cambria Math_MSFontService,sans-serif" font-weight="400" font-size="42.6667" transform="translate(75.6 55)">SAT</text><text font-family="Source Han Sans JP Medium,Source Han Sans JP Medium_MSFontService,sans-serif" font-weight="500" font-size="42.6667" transform="translate(148.767 55)">-</text><text font-family="Cambria Math,Cambria Math_MSFontService,sans-serif" font-weight="400" font-size="42.6667" transform="translate(163.933 55)">RECONF</text><text font-family="Source Han Sans JP Medium,Source Han Sans JP Medium_MSFontService,sans-serif" font-weight="500" font-size="42.6667" transform="translate(328.267 55)">is</text><text font-family="Cambria Math,Cambria Math_MSFontService,sans-serif" font-weight="400" font-size="42.6667" transform="translate(370.6 55)">PSPACE</text><text font-family="Source Han Sans JP Medium,Source Han Sans JP Medium_MSFontService,sans-serif" font-weight="500" font-size="42.6667" transform="translate(515.267 55)">-</text><text font-family="Source Han Sans JP Medium,Source Han Sans JP Medium_MSFontService,sans-serif" font-weight="500" font-size="42.6667" transform="translate(530.433 55)">complete</text><text font-family="Cambria Math,Cambria Math_MSFontService,sans-serif" font-weight="400" font-size="24" transform="translate(71.726 116)">𝛿</text><path d="M132.868 97.6768C135.149 98.2784 136.901 99.5772 138.124 101.573 139.346 103.569 139.958 105.978 139.958 108.798 139.958 111.626 139.348 114.034 138.129 116.023 136.911 118.011 135.157 119.306 132.868 119.907L132.586 119.005C134.391 118.403 135.733 117.216 136.612 115.442 137.491 113.669 137.93 111.415 137.93 108.681 137.93 106.04 137.493 103.847 136.618 102.101 135.743 100.355 134.387 99.1808 132.551 98.5792ZM94.6985 97.6768 95.0149 98.5792C93.1868 99.1808 91.8333 100.355 90.9544 102.101 90.0755 103.847 89.636 106.04 89.636 108.681 89.636 111.415 90.0755 113.669 90.9544 115.442 91.8333 117.216 93.1751 118.403 94.9798 119.005L94.6985 119.907C92.4095 119.306 90.6556 118.011 89.4368 116.023 88.2181 114.034 87.6087 111.626 87.6087 108.798 87.6087 105.978 88.22 103.569 89.4427 101.573 90.6653 99.5772 92.4173 98.2784 94.6985 97.6768Z" fill-rule="evenodd"/><text font-family="Cambria Math,Cambria Math_MSFontService,sans-serif" font-weight="400" font-size="24" transform="translate(95.4593 116)">𝑞</text><text font-family="Cambria Math,Cambria Math_MSFontService,sans-serif" font-weight="400" font-size="24" transform="translate(109.186 116)">,</text><text font-family="Cambria Math,Cambria Math_MSFontService,sans-serif" font-weight="400" font-size="24" transform="translate(118.186 116)">𝑎</text><text font-family="Cambria Math,Cambria Math_MSFontService,sans-serif" font-weight="400" font-size="24" transform="translate(148.733 116)">=</text><text font-family="Cambria Math,Cambria Math_MSFontService,sans-serif" font-weight="400" font-size="24" transform="translate(173.399 116)">(</text><text font-family="Cambria Math,Cambria Math_MSFontService,sans-serif" font-weight="400" font-size="24" transform="translate(183.399 116)">𝑞</text><text font-family="Cambria Math,Cambria Math_MSFontService,sans-serif" font-weight="400" font-size="17.52" transform="translate(197.126 107)">′</text><text font-family="Cambria Math,Cambria Math_MSFontService,sans-serif" font-weight="400" font-size="24" transform="translate(204.286 116)">,</text><text font-family="Cambria Math,Cambria Math_MSFontService,sans-serif" font-weight="400" font-size="24" transform="translate(213.286 116)">𝑏</text><text font-family="Cambria Math,Cambria Math_MSFontService,sans-serif" font-weight="400" font-size="24" transform="translate(226.813 116)">,</text><text font-family="Cambria Math,Cambria Math_MSFontService,sans-serif" font-weight="400" font-size="24" transform="translate(235.813 116)">R</text><text font-family="Cambria Math,Cambria Math_MSFontService,sans-serif" font-weight="400" font-size="24" transform="translate(250.646 116)">)</text><text font-family="Cambria Math,Cambria Math_MSFontService,sans-serif" font-weight="400" font-size="24" transform="translate(71.2049 212)">𝑥</text><path d="M126.833 193.695C129.115 194.297 130.866 195.596 132.089 197.592 133.312 199.588 133.923 201.996 133.923 204.816 133.923 207.644 133.314 210.053 132.095 212.041 130.876 214.029 129.122 215.324 126.833 215.926L126.552 215.023C128.357 214.422 129.699 213.234 130.577 211.461 131.456 209.687 131.896 207.433 131.896 204.699 131.896 202.058 131.458 199.865 130.583 198.119 129.708 196.373 128.353 195.199 126.517 194.597ZM93.9641 193.695 94.2805 194.597C92.4524 195.199 91.0989 196.373 90.22 198.119 89.341 199.865 88.9016 202.058 88.9016 204.699 88.9016 207.433 89.341 209.687 90.22 211.461 91.0989 213.234 92.4407 214.422 94.2453 215.023L93.9641 215.926C91.675 215.324 89.9211 214.029 88.7024 212.041 87.4836 210.053 86.8743 207.644 86.8743 204.816 86.8743 201.996 87.4856 199.588 88.7082 197.592 89.9309 195.596 91.6828 194.297 93.9641 193.695Z" fill-rule="evenodd"/><text font-family="Cambria Math,Cambria Math_MSFontService,sans-serif" font-weight="400" font-size="24" transform="translate(94.7249 212)">𝑖</text><text font-family="Cambria Math,Cambria Math_MSFontService,sans-serif" font-weight="400" font-size="24" transform="translate(103.152 212)">,</text><text font-family="Cambria Math,Cambria Math_MSFontService,sans-serif" font-weight="400" font-size="24" transform="translate(112.152 212)">𝑎</text><text font-family="Cambria Math,Cambria Math_MSFontService,sans-serif" font-weight="400" font-size="24" transform="translate(142.698 212)">=</text><text font-family="Cambria Math,Cambria Math_MSFontService,sans-serif" font-weight="400" font-size="24" transform="translate(167.365 212)">1</text><text font-family="Cambria Math,Cambria Math_MSFontService,sans-serif" font-weight="400" font-size="24" transform="translate(180.698 212)">,</text><text font-family="Cambria Math,Cambria Math_MSFontService,sans-serif" font-weight="400" font-size="24" transform="translate(189.698 212)">𝑥</text><path d="M244.933 193.695C247.215 194.297 248.966 195.596 250.189 197.592 251.412 199.588 252.023 201.996 252.023 204.816 252.023 207.644 251.414 210.053 250.195 212.041 248.976 214.029 247.222 215.324 244.933 215.926L244.652 215.023C246.457 214.422 247.798 213.234 248.677 211.461 249.556 209.687 249.996 207.433 249.996 204.699 249.996 202.058 249.558 199.865 248.683 198.119 247.808 196.373 246.453 195.199 244.617 194.597ZM212.457 193.695 212.774 194.597C210.946 195.199 209.592 196.373 208.713 198.119 207.834 199.865 207.395 202.058 207.395 204.699 207.395 207.433 207.834 209.687 208.713 211.461 209.592 213.234 210.934 214.422 212.739 215.023L212.457 215.926C210.168 215.324 208.414 214.029 207.196 212.041 205.977 210.053 205.368 207.644 205.368 204.816 205.368 201.996 205.979 199.588 207.202 197.592 208.424 195.596 210.176 194.297 212.457 193.695Z" fill-rule="evenodd"/><text font-family="Cambria Math,Cambria Math_MSFontService,sans-serif" font-weight="400" font-size="24" transform="translate(213.218 212)">𝑖</text><text font-family="Cambria Math,Cambria Math_MSFontService,sans-serif" font-weight="400" font-size="24" transform="translate(221.645 212)">,</text><text font-family="Cambria Math,Cambria Math_MSFontService,sans-serif" font-weight="400" font-size="24" transform="translate(230.645 212)">𝑏</text><text font-family="Cambria Math,Cambria Math_MSFontService,sans-serif" font-weight="400" font-size="24" transform="translate(260.798 212)">=</text><text font-family="Cambria Math,Cambria Math_MSFontService,sans-serif" font-weight="400" font-size="24" transform="translate(285.465 212)">0</text><text font-family="Cambria Math,Cambria Math_MSFontService,sans-serif" font-weight="400" font-size="24" transform="translate(298.798 212)">,</text><text font-family="Cambria Math,Cambria Math_MSFontService,sans-serif" font-weight="400" font-size="24" transform="translate(307.798 212)">𝑦</text><path d="M340.86 193.695C343.141 194.297 344.893 195.596 346.116 197.592 347.338 199.588 347.95 201.996 347.95 204.816 347.95 207.644 347.34 210.053 346.122 212.041 344.903 214.029 343.149 215.324 340.86 215.926L340.579 215.023C342.383 214.422 343.725 213.234 344.604 211.461 345.483 209.687 345.922 207.433 345.922 204.699 345.922 202.058 345.485 199.865 344.61 198.119 343.735 196.373 342.379 195.199 340.544 194.597ZM330.911 193.695 331.227 194.597C329.399 195.199 328.046 196.373 327.167 198.119 326.288 199.865 325.848 202.058 325.848 204.699 325.848 207.433 326.288 209.687 327.167 211.461 328.046 213.234 329.387 214.422 331.192 215.023L330.911 215.926C328.622 215.324 326.868 214.029 325.649 212.041 324.43 210.053 323.821 207.644 323.821 204.816 323.821 201.996 324.432 199.588 325.655 197.592 326.878 195.596 328.63 194.297 330.911 193.695Z" fill-rule="evenodd"/><text font-family="Cambria Math,Cambria Math_MSFontService,sans-serif" font-weight="400" font-size="24" transform="translate(331.672 212)">𝑖</text><text font-family="Cambria Math,Cambria Math_MSFontService,sans-serif" font-weight="400" font-size="24" transform="translate(356.725 212)">=</text><text font-family="Cambria Math,Cambria Math_MSFontService,sans-serif" font-weight="400" font-size="24" transform="translate(381.392 212)">1</text><text font-family="Cambria Math,Cambria Math_MSFontService,sans-serif" font-weight="400" font-size="24" transform="translate(394.725 212)">,</text><text font-family="Cambria Math,Cambria Math_MSFontService,sans-serif" font-weight="400" font-size="24" transform="translate(403.725 212)">𝑦</text><path d="M478.787 193.695C481.068 194.297 482.82 195.596 484.042 197.592 485.265 199.588 485.876 201.996 485.876 204.816 485.876 207.644 485.267 210.053 484.048 212.041 482.83 214.029 481.076 215.324 478.787 215.926L478.505 215.023C480.31 214.422 481.652 213.234 482.531 211.461 483.41 209.687 483.849 207.433 483.849 204.699 483.849 202.058 483.412 199.865 482.537 198.119 481.662 196.373 480.306 195.199 478.47 194.597ZM426.837 193.695 427.154 194.597C425.326 195.199 423.972 196.373 423.093 198.119 422.214 199.865 421.775 202.058 421.775 204.699 421.775 207.433 422.214 209.687 423.093 211.461 423.972 213.234 425.314 214.422 427.119 215.023L426.837 215.926C424.548 215.324 422.794 214.029 421.576 212.041 420.357 210.053 419.748 207.644 419.748 204.816 419.748 201.996 420.359 199.588 421.582 197.592 422.804 195.596 424.556 194.297 426.837 193.695Z" fill-rule="evenodd"/><text font-family="Cambria Math,Cambria Math_MSFontService,sans-serif" font-weight="400" font-size="24" transform="translate(427.598 212)">𝑖</text><text font-family="Cambria Math,Cambria Math_MSFontService,sans-serif" font-weight="400" font-size="24" transform="translate(441.358 212)">+</text><text font-family="Cambria Math,Cambria Math_MSFontService,sans-serif" font-weight="400" font-size="24" transform="translate(464.692 212)">1</text><text font-family="Cambria Math,Cambria Math_MSFontService,sans-serif" font-weight="400" font-size="24" transform="translate(494.652 212)">=</text><text font-family="Cambria Math,Cambria Math_MSFontService,sans-serif" font-weight="400" font-size="24" transform="translate(519.318 212)">0</text><text font-family="Cambria Math,Cambria Math_MSFontService,sans-serif" font-weight="400" font-size="24" transform="translate(532.652 212)">,</text><text font-family="Cambria Math,Cambria Math_MSFontService,sans-serif" font-weight="400" font-size="24" transform="translate(541.652 212)">𝑧</text><path d="M578.18 193.695C580.461 194.297 582.213 195.596 583.436 197.592 584.658 199.588 585.27 201.996 585.27 204.816 585.27 207.644 584.66 210.053 583.442 212.041 582.223 214.029 580.469 215.324 578.18 215.926L577.899 215.023C579.703 214.422 581.045 213.234 581.924 211.461 582.803 209.687 583.242 207.433 583.242 204.699 583.242 202.058 582.805 199.865 581.93 198.119 581.055 196.373 579.699 195.199 577.864 194.597ZM562.931 193.695 563.247 194.597C561.419 195.199 560.066 196.373 559.187 198.119 558.308 199.865 557.868 202.058 557.868 204.699 557.868 207.433 558.308 209.687 559.187 211.461 560.066 213.234 561.407 214.422 563.212 215.023L562.931 215.926C560.642 215.324 558.888 214.029 557.669 212.041 556.45 210.053 555.841 207.644 555.841 204.816 555.841 201.996 556.452 199.588 557.675 197.592 558.898 195.596 560.65 194.297 562.931 193.695Z" fill-rule="evenodd"/><text font-family="Cambria Math,Cambria Math_MSFontService,sans-serif" font-weight="400" font-size="24" transform="translate(563.692 212)">𝑞</text><text font-family="Cambria Math,Cambria Math_MSFontService,sans-serif" font-weight="400" font-size="24" transform="translate(594.045 212)">=</text><text font-family="Cambria Math,Cambria Math_MSFontService,sans-serif" font-weight="400" font-size="24" transform="translate(618.712 212)">1</text><text font-family="Cambria Math,Cambria Math_MSFontService,sans-serif" font-weight="400" font-size="24" transform="translate(632.045 212)">,</text><text font-family="Cambria Math,Cambria Math_MSFontService,sans-serif" font-weight="400" font-size="24" transform="translate(641.045 212)">𝑧</text><path d="M684.733 193.695C687.015 194.297 688.766 195.596 689.989 197.592 691.212 199.588 691.823 201.996 691.823 204.816 691.823 207.644 691.214 210.053 689.995 212.041 688.776 214.029 687.022 215.324 684.733 215.926L684.452 215.023C686.257 214.422 687.599 213.234 688.477 211.461 689.356 209.687 689.796 207.433 689.796 204.699 689.796 202.058 689.358 199.865 688.483 198.119 687.608 196.373 686.253 195.199 684.417 194.597ZM662.324 193.695 662.641 194.597C660.812 195.199 659.459 196.373 658.58 198.119 657.701 199.865 657.262 202.058 657.262 204.699 657.262 207.433 657.701 209.687 658.58 211.461 659.459 213.234 660.801 214.422 662.605 215.023L662.324 215.926C660.035 215.324 658.281 214.029 657.062 212.041 655.844 210.053 655.234 207.644 655.234 204.816 655.234 201.996 655.846 199.588 657.068 197.592 658.291 195.596 660.043 194.297 662.324 193.695Z" fill-rule="evenodd"/><text font-family="Cambria Math,Cambria Math_MSFontService,sans-serif" font-weight="400" font-size="24" transform="translate(663.085 212)">𝑞</text><text font-family="Cambria Math,Cambria Math_MSFontService,sans-serif" font-weight="400" font-size="17.52" transform="translate(676.812 203)">′</text><text font-family="Cambria Math,Cambria Math_MSFontService,sans-serif" font-weight="400" font-size="24" transform="translate(700.598 212)">=</text><text font-family="Cambria Math,Cambria Math_MSFontService,sans-serif" font-weight="400" font-size="24" transform="translate(725.265 212)">0</text><text font-family="Cambria Math,Cambria Math_MSFontService,sans-serif" font-weight="400" font-size="24" transform="translate(71.2049 674)">𝑥</text><path d="M126.833 656.134C129.115 656.735 130.866 658.034 132.089 660.03 133.312 662.026 133.923 664.434 133.923 667.255 133.923 670.083 133.314 672.491 132.095 674.479 130.876 676.468 129.122 677.762 126.833 678.364L126.552 677.462C128.357 676.86 129.699 675.673 130.577 673.899 131.456 672.126 131.896 669.872 131.896 667.137 131.896 664.497 131.458 662.303 130.583 660.557 129.708 658.811 128.353 657.637 126.517 657.036ZM93.9641 656.134 94.2805 657.036C92.4524 657.637 91.0989 658.811 90.22 660.557 89.341 662.303 88.9016 664.497 88.9016 667.137 88.9016 669.872 89.341 672.126 90.22 673.899 91.0989 675.673 92.4407 676.86 94.2453 677.462L93.9641 678.364C91.675 677.762 89.9211 676.468 88.7024 674.479 87.4836 672.491 86.8743 670.083 86.8743 667.255 86.8743 664.434 87.4856 662.026 88.7082 660.03 89.9309 658.034 91.6828 656.735 93.9641 656.134Z" fill-rule="evenodd"/><text font-family="Cambria Math,Cambria Math_MSFontService,sans-serif" font-weight="400" font-size="24" transform="translate(94.7249 674)">𝑖</text><text font-family="Cambria Math,Cambria Math_MSFontService,sans-serif" font-weight="400" font-size="24" transform="translate(103.152 674)">,</text><text font-family="Cambria Math,Cambria Math_MSFontService,sans-serif" font-weight="400" font-size="24" transform="translate(112.152 674)">𝑎</text><text font-family="Cambria Math,Cambria Math_MSFontService,sans-serif" font-weight="400" font-size="24" transform="translate(142.698 674)">=</text><text font-family="Cambria Math,Cambria Math_MSFontService,sans-serif" font-weight="400" font-size="24" transform="translate(167.365 674)">0</text><text font-family="Cambria Math,Cambria Math_MSFontService,sans-serif" font-weight="400" font-size="24" transform="translate(180.698 674)">,</text><text font-family="Cambria Math,Cambria Math_MSFontService,sans-serif" font-weight="400" font-size="24" transform="translate(189.698 674)">𝑥</text><path d="M244.933 656.134C247.215 656.735 248.966 658.034 250.189 660.03 251.412 662.026 252.023 664.434 252.023 667.255 252.023 670.083 251.414 672.491 250.195 674.479 248.976 676.468 247.222 677.762 244.933 678.364L244.652 677.462C246.457 676.86 247.798 675.673 248.677 673.899 249.556 672.126 249.996 669.872 249.996 667.137 249.996 664.497 249.558 662.303 248.683 660.557 247.808 658.811 246.453 657.637 244.617 657.036ZM212.457 656.134 212.774 657.036C210.946 657.637 209.592 658.811 208.713 660.557 207.834 662.303 207.395 664.497 207.395 667.137 207.395 669.872 207.834 672.126 208.713 673.899 209.592 675.673 210.934 676.86 212.739 677.462L212.457 678.364C210.168 677.762 208.414 676.468 207.196 674.479 205.977 672.491 205.368 670.083 205.368 667.255 205.368 664.434 205.979 662.026 207.202 660.03 208.424 658.034 210.176 656.735 212.457 656.134Z" fill-rule="evenodd"/><text font-family="Cambria Math,Cambria Math_MSFontService,sans-serif" font-weight="400" font-size="24" transform="translate(213.218 674)">𝑖</text><text font-family="Cambria Math,Cambria Math_MSFontService,sans-serif" font-weight="400" font-size="24" transform="translate(221.645 674)">,</text><text font-family="Cambria Math,Cambria Math_MSFontService,sans-serif" font-weight="400" font-size="24" transform="translate(230.645 674)">𝑏</text><text font-family="Cambria Math,Cambria Math_MSFontService,sans-serif" font-weight="400" font-size="24" transform="translate(260.798 674)">=</text><text font-family="Cambria Math,Cambria Math_MSFontService,sans-serif" font-weight="400" font-size="24" transform="translate(285.465 674)">1</text><text font-family="Cambria Math,Cambria Math_MSFontService,sans-serif" font-weight="400" font-size="24" transform="translate(298.798 674)">,</text><text font-family="Cambria Math,Cambria Math_MSFontService,sans-serif" font-weight="400" font-size="24" transform="translate(307.798 674)">𝑦</text><path d="M340.86 656.134C343.141 656.735 344.893 658.034 346.116 660.03 347.338 662.026 347.95 664.434 347.95 667.255 347.95 670.083 347.34 672.491 346.122 674.479 344.903 676.468 343.149 677.762 340.86 678.364L340.579 677.462C342.383 676.86 343.725 675.673 344.604 673.899 345.483 672.126 345.922 669.872 345.922 667.137 345.922 664.497 345.485 662.303 344.61 660.557 343.735 658.811 342.379 657.637 340.544 657.036ZM330.911 656.134 331.227 657.036C329.399 657.637 328.046 658.811 327.167 660.557 326.288 662.303 325.848 664.497 325.848 667.137 325.848 669.872 326.288 672.126 327.167 673.899 328.046 675.673 329.387 676.86 331.192 677.462L330.911 678.364C328.622 677.762 326.868 676.468 325.649 674.479 324.43 672.491 323.821 670.083 323.821 667.255 323.821 664.434 324.432 662.026 325.655 660.03 326.878 658.034 328.63 656.735 330.911 656.134Z" fill-rule="evenodd"/><text font-family="Cambria Math,Cambria Math_MSFontService,sans-serif" font-weight="400" font-size="24" transform="translate(331.672 674)">𝑖</text><text font-family="Cambria Math,Cambria Math_MSFontService,sans-serif" font-weight="400" font-size="24" transform="translate(356.725 674)">=</text><text font-family="Cambria Math,Cambria Math_MSFontService,sans-serif" font-weight="400" font-size="24" transform="translate(381.392 674)">0</text><text font-family="Cambria Math,Cambria Math_MSFontService,sans-serif" font-weight="400" font-size="24" transform="translate(394.725 674)">,</text><text font-family="Cambria Math,Cambria Math_MSFontService,sans-serif" font-weight="400" font-size="24" transform="translate(403.725 674)">𝑦</text><path d="M478.787 656.134C481.068 656.735 482.82 658.034 484.042 660.03 485.265 662.026 485.876 664.434 485.876 667.255 485.876 670.083 485.267 672.491 484.048 674.479 482.83 676.468 481.076 677.762 478.787 678.364L478.505 677.462C480.31 676.86 481.652 675.673 482.531 673.899 483.41 672.126 483.849 669.872 483.849 667.137 483.849 664.497 483.412 662.303 482.537 660.557 481.662 658.811 480.306 657.637 478.47 657.036ZM426.837 656.134 427.154 657.036C425.326 657.637 423.972 658.811 423.093 660.557 422.214 662.303 421.775 664.497 421.775 667.137 421.775 669.872 422.214 672.126 423.093 673.899 423.972 675.673 425.314 676.86 427.119 677.462L426.837 678.364C424.548 677.762 422.794 676.468 421.576 674.479 420.357 672.491 419.748 670.083 419.748 667.255 419.748 664.434 420.359 662.026 421.582 660.03 422.804 658.034 424.556 656.735 426.837 656.134Z" fill-rule="evenodd"/><text font-family="Cambria Math,Cambria Math_MSFontService,sans-serif" font-weight="400" font-size="24" transform="translate(427.598 674)">𝑖</text><text font-family="Cambria Math,Cambria Math_MSFontService,sans-serif" font-weight="400" font-size="24" transform="translate(441.358 674)">+</text><text font-family="Cambria Math,Cambria Math_MSFontService,sans-serif" font-weight="400" font-size="24" transform="translate(464.692 674)">1</text><text font-family="Cambria Math,Cambria Math_MSFontService,sans-serif" font-weight="400" font-size="24" transform="translate(494.652 674)">=</text><text font-family="Cambria Math,Cambria Math_MSFontService,sans-serif" font-weight="400" font-size="24" transform="translate(519.318 674)">1</text><text font-family="Cambria Math,Cambria Math_MSFontService,sans-serif" font-weight="400" font-size="24" transform="translate(532.652 674)">,</text><text font-family="Cambria Math,Cambria Math_MSFontService,sans-serif" font-weight="400" font-size="24" transform="translate(541.652 674)">𝑧</text><path d="M578.18 656.134C580.461 656.735 582.213 658.034 583.436 660.03 584.658 662.026 585.27 664.434 585.27 667.255 585.27 670.083 584.66 672.491 583.442 674.479 582.223 676.468 580.469 677.762 578.18 678.364L577.899 677.462C579.703 676.86 581.045 675.673 581.924 673.899 582.803 672.126 583.242 669.872 583.242 667.137 583.242 664.497 582.805 662.303 581.93 660.557 581.055 658.811 579.699 657.637 577.864 657.036ZM562.931 656.134 563.247 657.036C561.419 657.637 560.066 658.811 559.187 660.557 558.308 662.303 557.868 664.497 557.868 667.137 557.868 669.872 558.308 672.126 559.187 673.899 560.066 675.673 561.407 676.86 563.212 677.462L562.931 678.364C560.642 677.762 558.888 676.468 557.669 674.479 556.45 672.491 555.841 670.083 555.841 667.255 555.841 664.434 556.452 662.026 557.675 660.03 558.898 658.034 560.65 656.735 562.931 656.134Z" fill-rule="evenodd"/><text font-family="Cambria Math,Cambria Math_MSFontService,sans-serif" font-weight="400" font-size="24" transform="translate(563.692 674)">𝑞</text><text font-family="Cambria Math,Cambria Math_MSFontService,sans-serif" font-weight="400" font-size="24" transform="translate(594.045 674)">=</text><text font-family="Cambria Math,Cambria Math_MSFontService,sans-serif" font-weight="400" font-size="24" transform="translate(618.712 674)">0</text><text font-family="Cambria Math,Cambria Math_MSFontService,sans-serif" font-weight="400" font-size="24" transform="translate(632.045 674)">,</text><text font-family="Cambria Math,Cambria Math_MSFontService,sans-serif" font-weight="400" font-size="24" transform="translate(641.045 674)">𝑧</text><path d="M684.733 656.134C687.015 656.735 688.766 658.034 689.989 660.03 691.212 662.026 691.823 664.434 691.823 667.255 691.823 670.083 691.214 672.491 689.995 674.479 688.776 676.468 687.022 677.762 684.733 678.364L684.452 677.462C686.257 676.86 687.599 675.673 688.477 673.899 689.356 672.126 689.796 669.872 689.796 667.137 689.796 664.497 689.358 662.303 688.483 660.557 687.608 658.811 686.253 657.637 684.417 657.036ZM662.324 656.134 662.641 657.036C660.812 657.637 659.459 658.811 658.58 660.557 657.701 662.303 657.262 664.497 657.262 667.137 657.262 669.872 657.701 672.126 658.58 673.899 659.459 675.673 660.801 676.86 662.605 677.462L662.324 678.364C660.035 677.762 658.281 676.468 657.062 674.479 655.844 672.491 655.234 670.083 655.234 667.255 655.234 664.434 655.846 662.026 657.068 660.03 658.291 658.034 660.043 656.735 662.324 656.134Z" fill-rule="evenodd"/><text font-family="Cambria Math,Cambria Math_MSFontService,sans-serif" font-weight="400" font-size="24" transform="translate(663.085 674)">𝑞</text><text font-family="Cambria Math,Cambria Math_MSFontService,sans-serif" font-weight="400" font-size="17.52" transform="translate(676.812 665)">′</text><text font-family="Cambria Math,Cambria Math_MSFontService,sans-serif" font-weight="400" font-size="24" transform="translate(700.598 674)">=</text><text font-family="Cambria Math,Cambria Math_MSFontService,sans-serif" font-weight="400" font-size="24" transform="translate(725.265 674)">1</text><text font-family="Cambria Math,Cambria Math_MSFontService,sans-serif" font-weight="400" font-size="24" transform="translate(153.111 485)">𝜓</text><text font-family="Cambria Math,Cambria Math_MSFontService,sans-serif" font-weight="400" font-size="17.52" transform="translate(169.004 490)">4</text><text font-family="Source Han Sans JP Medium,Source Han Sans JP Medium_MSFontService,sans-serif" font-weight="500" font-size="24" transform="translate(185.497 485)">has</text><path d="M394.185 463.9C396.623 464.541 398.502 466.201 399.822 468.881 401.142 471.56 401.802 474.732 401.802 478.396 401.802 482.06 401.142 485.232 399.822 487.912 398.502 490.592 396.623 492.252 394.185 492.892L393.892 491.932C395.783 491.221 397.215 489.672 398.187 487.285 399.16 484.898 399.646 481.939 399.646 478.408 399.646 474.869 399.16 471.904 398.187 469.514 397.215 467.123 395.783 465.572 393.892 464.861ZM240.724 463.9 241.017 464.861C239.126 465.572 237.694 467.123 236.722 469.514 235.749 471.904 235.263 474.869 235.263 478.408 235.263 481.939 235.749 484.898 236.722 487.285 237.694 489.672 239.126 491.221 241.017 491.932L240.724 492.892C238.286 492.252 236.407 490.592 235.087 487.912 233.767 485.232 233.107 482.06 233.107 478.396 233.107 474.732 233.767 471.56 235.087 468.881 236.407 466.201 238.286 464.541 240.724 463.9Z" fill-rule="evenodd"/><text font-family="Cambria Math,Cambria Math_MSFontService,sans-serif" font-weight="400" font-size="24" transform="translate(241.777 485)">𝑦</text><path d="M274.839 467.278C277.12 467.88 278.872 469.179 280.095 471.175 281.317 473.171 281.929 475.579 281.929 478.399 281.929 481.227 281.319 483.636 280.101 485.624 278.882 487.612 277.128 488.907 274.839 489.509L274.558 488.606C276.362 488.005 277.704 486.817 278.583 485.044 279.462 483.27 279.901 481.017 279.901 478.282 279.901 475.642 279.464 473.448 278.589 471.702 277.714 469.956 276.358 468.782 274.523 468.181ZM264.89 467.278 265.206 468.181C263.378 468.782 262.025 469.956 261.146 471.702 260.267 473.448 259.827 475.642 259.827 478.282 259.827 481.017 260.267 483.27 261.146 485.044 262.025 486.817 263.366 488.005 265.171 488.606L264.89 489.509C262.601 488.907 260.847 487.612 259.628 485.624 258.409 483.636 257.8 481.227 257.8 478.399 257.8 475.579 258.411 473.171 259.634 471.175 260.857 469.179 262.609 467.88 264.89 467.278Z" fill-rule="evenodd"/><text font-family="Cambria Math,Cambria Math_MSFontService,sans-serif" font-weight="400" font-size="24" transform="translate(265.651 485)">𝑖</text><path d="M241.784 463.449 249.764 463.449 252.108 463.449 257.744 463.449 260.088 463.449 265.724 463.449 268.068 463.449 273.704 463.449 276.048 463.449 284.028 463.449 284.028 464.691 276.048 464.691 273.704 464.691 268.068 464.691 265.724 464.691 260.088 464.691 257.744 464.691 252.108 464.691 249.764 464.691 241.784 464.691Z" fill-rule="evenodd"/><text font-family="Cambria Math,Cambria Math_MSFontService,sans-serif" font-weight="400" font-size="24" transform="translate(289.371 485)">∨</text><text font-family="Cambria Math,Cambria Math_MSFontService,sans-serif" font-weight="400" font-size="24" transform="translate(308.871 485)">𝑦</text><path d="M383.932 467.278C386.214 467.88 387.965 469.179 389.188 471.175 390.411 473.171 391.022 475.579 391.022 478.399 391.022 481.227 390.413 483.636 389.194 485.624 387.975 487.612 386.221 488.907 383.932 489.509L383.651 488.606C385.456 488.005 386.798 486.817 387.676 485.044 388.555 483.27 388.995 481.017 388.995 478.282 388.995 475.642 388.557 473.448 387.682 471.702 386.807 469.956 385.452 468.782 383.616 468.181ZM331.983 467.278 332.299 468.181C330.471 468.782 329.118 469.956 328.239 471.702 327.36 473.448 326.921 475.642 326.921 478.282 326.921 481.017 327.36 483.27 328.239 485.044 329.118 486.817 330.46 488.005 332.264 488.606L331.983 489.509C329.694 488.907 327.94 487.612 326.721 485.624 325.503 483.636 324.893 481.227 324.893 478.399 324.893 475.579 325.505 473.171 326.727 471.175 327.95 469.179 329.702 467.88 331.983 467.278Z" fill-rule="evenodd"/><text font-family="Cambria Math,Cambria Math_MSFontService,sans-serif" font-weight="400" font-size="24" transform="translate(332.744 485)">𝑖</text><text font-family="Cambria Math,Cambria Math_MSFontService,sans-serif" font-weight="400" font-size="24" transform="translate(346.504 485)">+</text><text font-family="Cambria Math,Cambria Math_MSFontService,sans-serif" font-weight="400" font-size="24" transform="translate(369.837 485)">1</text><path d="M308.877 463.449 316.271 463.449 319.201 463.449 323.664 463.449 326.595 463.449 331.057 463.449 333.988 463.449 338.451 463.449 341.381 463.449 345.844 463.449 348.775 463.449 353.237 463.449 356.168 463.449 360.631 463.449 363.561 463.449 368.024 463.449 370.955 463.449 375.411 463.449 378.348 463.449 382.797 463.449 385.735 463.449 393.121 463.449 393.121 464.691 385.735 464.691 382.797 464.691 378.348 464.691 375.411 464.691 370.955 464.691 368.024 464.691 363.561 464.691 360.631 464.691 356.168 464.691 353.237 464.691 348.775 464.691 345.844 464.691 341.381 464.691 338.451 464.691 333.988 464.691 331.057 464.691 326.595 464.691 323.664 464.691 319.201 464.691 316.271 464.691 308.877 464.691Z" fill-rule="evenodd"/><text font-family="Source Han Sans JP Medium,Source Han Sans JP Medium_MSFontService,sans-serif" font-weight="500" font-size="24" transform="translate(403.911 485)">.</text><text font-family="Cambria Math,Cambria Math_MSFontService,sans-serif" font-weight="400" font-size="24" transform="translate(71.2049 284)">𝑥</text><path d="M126.833 266.049C129.115 266.651 130.866 267.95 132.089 269.946 133.312 271.942 133.923 274.35 133.923 277.17 133.923 279.998 133.314 282.407 132.095 284.395 130.876 286.383 129.122 287.678 126.833 288.28L126.552 287.377C128.357 286.776 129.699 285.588 130.577 283.815 131.456 282.041 131.896 279.787 131.896 277.053 131.896 274.412 131.458 272.219 130.583 270.473 129.708 268.727 128.353 267.553 126.517 266.951ZM93.9641 266.049 94.2805 266.951C92.4524 267.553 91.0989 268.727 90.22 270.473 89.341 272.219 88.9016 274.412 88.9016 277.053 88.9016 279.787 89.341 282.041 90.22 283.815 91.0989 285.588 92.4407 286.776 94.2453 287.377L93.9641 288.28C91.675 287.678 89.9211 286.383 88.7024 284.395 87.4836 282.407 86.8743 279.998 86.8743 277.17 86.8743 274.35 87.4856 271.942 88.7082 269.946 89.9309 267.95 91.6828 266.651 93.9641 266.049Z" fill-rule="evenodd"/><text font-family="Cambria Math,Cambria Math_MSFontService,sans-serif" font-weight="400" font-size="24" transform="translate(94.7249 284)">𝑖</text><text font-family="Cambria Math,Cambria Math_MSFontService,sans-serif" font-weight="400" font-size="24" transform="translate(103.152 284)">,</text><text font-family="Cambria Math,Cambria Math_MSFontService,sans-serif" font-weight="400" font-size="24" transform="translate(112.152 284)">𝑎</text><text font-family="Cambria Math,Cambria Math_MSFontService,sans-serif" font-weight="400" font-size="24" transform="translate(142.698 284)">=</text><text font-family="Cambria Math,Cambria Math_MSFontService,sans-serif" font-weight="400" font-size="24" transform="translate(167.365 284)">1</text><text font-family="Cambria Math,Cambria Math_MSFontService,sans-serif" font-weight="400" font-size="24" transform="translate(180.698 284)">,</text><text font-family="Cambria Math,Cambria Math_MSFontService,sans-serif" font-weight="400" font-size="24" transform="translate(189.698 284)">𝑥</text><path d="M244.933 266.049C247.215 266.651 248.966 267.95 250.189 269.946 251.412 271.942 252.023 274.35 252.023 277.17 252.023 279.998 251.414 282.407 250.195 284.395 248.976 286.383 247.222 287.678 244.933 288.28L244.652 287.377C246.457 286.776 247.798 285.588 248.677 283.815 249.556 282.041 249.996 279.787 249.996 277.053 249.996 274.412 249.558 272.219 248.683 270.473 247.808 268.727 246.453 267.553 244.617 266.951ZM212.457 266.049 212.774 266.951C210.946 267.553 209.592 268.727 208.713 270.473 207.834 272.219 207.395 274.412 207.395 277.053 207.395 279.787 207.834 282.041 208.713 283.815 209.592 285.588 210.934 286.776 212.739 287.377L212.457 288.28C210.168 287.678 208.414 286.383 207.196 284.395 205.977 282.407 205.368 279.998 205.368 277.17 205.368 274.35 205.979 271.942 207.202 269.946 208.424 267.95 210.176 266.651 212.457 266.049Z" fill-rule="evenodd"/><text font-family="Cambria Math,Cambria Math_MSFontService,sans-serif" font-weight="400" font-size="24" transform="translate(213.218 284)">𝑖</text><text font-family="Cambria Math,Cambria Math_MSFontService,sans-serif" font-weight="400" font-size="24" transform="translate(221.645 284)">,</text><text font-family="Cambria Math,Cambria Math_MSFontService,sans-serif" font-weight="400" font-size="24" transform="translate(230.645 284)">𝑏</text><text font-family="Cambria Math,Cambria Math_MSFontService,sans-serif" font-weight="400" font-size="24" transform="translate(260.798 284)">=</text><text fill="#FF0000" font-family="Cambria Math,Cambria Math_MSFontService,sans-serif" font-weight="400" font-size="24" transform="translate(285.465 284)">1</text><text font-family="Cambria Math,Cambria Math_MSFontService,sans-serif" font-weight="400" font-size="24" transform="translate(298.798 284)">,</text><text font-family="Cambria Math,Cambria Math_MSFontService,sans-serif" font-weight="400" font-size="24" transform="translate(307.798 284)">𝑦</text><path d="M340.86 266.049C343.141 266.651 344.893 267.95 346.116 269.946 347.338 271.942 347.95 274.35 347.95 277.17 347.95 279.998 347.34 282.407 346.122 284.395 344.903 286.383 343.149 287.678 340.86 288.28L340.579 287.377C342.383 286.776 343.725 285.588 344.604 283.815 345.483 282.041 345.922 279.787 345.922 277.053 345.922 274.412 345.485 272.219 344.61 270.473 343.735 268.727 342.379 267.553 340.544 266.951ZM330.911 266.049 331.227 266.951C329.399 267.553 328.046 268.727 327.167 270.473 326.288 272.219 325.848 274.412 325.848 277.053 325.848 279.787 326.288 282.041 327.167 283.815 328.046 285.588 329.387 286.776 331.192 287.377L330.911 288.28C328.622 287.678 326.868 286.383 325.649 284.395 324.43 282.407 323.821 279.998 323.821 277.17 323.821 274.35 324.432 271.942 325.655 269.946 326.878 267.95 328.63 266.651 330.911 266.049Z" fill-rule="evenodd"/><text font-family="Cambria Math,Cambria Math_MSFontService,sans-serif" font-weight="400" font-size="24" transform="translate(331.672 284)">𝑖</text><text font-family="Cambria Math,Cambria Math_MSFontService,sans-serif" font-weight="400" font-size="24" transform="translate(356.725 284)">=</text><text font-family="Cambria Math,Cambria Math_MSFontService,sans-serif" font-weight="400" font-size="24" transform="translate(381.392 284)">1</text><text font-family="Cambria Math,Cambria Math_MSFontService,sans-serif" font-weight="400" font-size="24" transform="translate(394.725 284)">,</text><text font-family="Cambria Math,Cambria Math_MSFontService,sans-serif" font-weight="400" font-size="24" transform="translate(403.725 284)">𝑦</text><path d="M478.787 266.049C481.068 266.651 482.82 267.95 484.042 269.946 485.265 271.942 485.876 274.35 485.876 277.17 485.876 279.998 485.267 282.407 484.048 284.395 482.83 286.383 481.076 287.678 478.787 288.28L478.505 287.377C480.31 286.776 481.652 285.588 482.531 283.815 483.41 282.041 483.849 279.787 483.849 277.053 483.849 274.412 483.412 272.219 482.537 270.473 481.662 268.727 480.306 267.553 478.47 266.951ZM426.837 266.049 427.154 266.951C425.326 267.553 423.972 268.727 423.093 270.473 422.214 272.219 421.775 274.412 421.775 277.053 421.775 279.787 422.214 282.041 423.093 283.815 423.972 285.588 425.314 286.776 427.119 287.377L426.837 288.28C424.548 287.678 422.794 286.383 421.576 284.395 420.357 282.407 419.748 279.998 419.748 277.17 419.748 274.35 420.359 271.942 421.582 269.946 422.804 267.95 424.556 266.651 426.837 266.049Z" fill-rule="evenodd"/><text font-family="Cambria Math,Cambria Math_MSFontService,sans-serif" font-weight="400" font-size="24" transform="translate(427.598 284)">𝑖</text><text font-family="Cambria Math,Cambria Math_MSFontService,sans-serif" font-weight="400" font-size="24" transform="translate(441.358 284)">+</text><text font-family="Cambria Math,Cambria Math_MSFontService,sans-serif" font-weight="400" font-size="24" transform="translate(464.692 284)">1</text><text font-family="Cambria Math,Cambria Math_MSFontService,sans-serif" font-weight="400" font-size="24" transform="translate(494.652 284)">=</text><text font-family="Cambria Math,Cambria Math_MSFontService,sans-serif" font-weight="400" font-size="24" transform="translate(519.318 284)">0</text><text font-family="Cambria Math,Cambria Math_MSFontService,sans-serif" font-weight="400" font-size="24" transform="translate(532.652 284)">,</text><text font-family="Cambria Math,Cambria Math_MSFontService,sans-serif" font-weight="400" font-size="24" transform="translate(541.652 284)">𝑧</text><path d="M578.18 266.049C580.461 266.651 582.213 267.95 583.436 269.946 584.658 271.942 585.27 274.35 585.27 277.17 585.27 279.998 584.66 282.407 583.442 284.395 582.223 286.383 580.469 287.678 578.18 288.28L577.899 287.377C579.703 286.776 581.045 285.588 581.924 283.815 582.803 282.041 583.242 279.787 583.242 277.053 583.242 274.412 582.805 272.219 581.93 270.473 581.055 268.727 579.699 267.553 577.864 266.951ZM562.931 266.049 563.247 266.951C561.419 267.553 560.066 268.727 559.187 270.473 558.308 272.219 557.868 274.412 557.868 277.053 557.868 279.787 558.308 282.041 559.187 283.815 560.066 285.588 561.407 286.776 563.212 287.377L562.931 288.28C560.642 287.678 558.888 286.383 557.669 284.395 556.45 282.407 555.841 279.998 555.841 277.17 555.841 274.35 556.452 271.942 557.675 269.946 558.898 267.95 560.65 266.651 562.931 266.049Z" fill-rule="evenodd"/><text font-family="Cambria Math,Cambria Math_MSFontService,sans-serif" font-weight="400" font-size="24" transform="translate(563.692 284)">𝑞</text><text font-family="Cambria Math,Cambria Math_MSFontService,sans-serif" font-weight="400" font-size="24" transform="translate(594.045 284)">=</text><text font-family="Cambria Math,Cambria Math_MSFontService,sans-serif" font-weight="400" font-size="24" transform="translate(618.712 284)">1</text><text font-family="Cambria Math,Cambria Math_MSFontService,sans-serif" font-weight="400" font-size="24" transform="translate(632.045 284)">,</text><text font-family="Cambria Math,Cambria Math_MSFontService,sans-serif" font-weight="400" font-size="24" transform="translate(641.045 284)">𝑧</text><path d="M684.733 266.049C687.015 266.651 688.766 267.95 689.989 269.946 691.212 271.942 691.823 274.35 691.823 277.17 691.823 279.998 691.214 282.407 689.995 284.395 688.776 286.383 687.022 287.678 684.733 288.28L684.452 287.377C686.257 286.776 687.599 285.588 688.477 283.815 689.356 282.041 689.796 279.787 689.796 277.053 689.796 274.412 689.358 272.219 688.483 270.473 687.608 268.727 686.253 267.553 684.417 266.951ZM662.324 266.049 662.641 266.951C660.812 267.553 659.459 268.727 658.58 270.473 657.701 272.219 657.262 274.412 657.262 277.053 657.262 279.787 657.701 282.041 658.58 283.815 659.459 285.588 660.801 286.776 662.605 287.377L662.324 288.28C660.035 287.678 658.281 286.383 657.062 284.395 655.844 282.407 655.234 279.998 655.234 277.17 655.234 274.35 655.846 271.942 657.068 269.946 658.291 267.95 660.043 266.651 662.324 266.049Z" fill-rule="evenodd"/><text font-family="Cambria Math,Cambria Math_MSFontService,sans-serif" font-weight="400" font-size="24" transform="translate(663.085 284)">𝑞</text><text font-family="Cambria Math,Cambria Math_MSFontService,sans-serif" font-weight="400" font-size="17.52" transform="translate(676.812 275)">′</text><text font-family="Cambria Math,Cambria Math_MSFontService,sans-serif" font-weight="400" font-size="24" transform="translate(700.598 284)">=</text><text font-family="Cambria Math,Cambria Math_MSFontService,sans-serif" font-weight="400" font-size="24" transform="translate(725.265 284)">0</text><text font-family="Cambria Math,Cambria Math_MSFontService,sans-serif" font-weight="400" font-size="24" transform="translate(734.151 133)">𝑡</text><path d="M809.033 115.501C811.314 116.103 813.066 117.401 814.289 119.398 815.511 121.394 816.123 123.802 816.123 126.622 816.123 129.45 815.513 131.859 814.295 133.847 813.076 135.835 811.322 137.13 809.033 137.732L808.752 136.829C810.556 136.228 811.898 135.04 812.777 133.267 813.656 131.493 814.095 129.239 814.095 126.505 814.095 123.864 813.658 121.671 812.783 119.925 811.908 118.179 810.552 117.005 808.716 116.403ZM753.437 115.501 753.753 116.403C751.925 117.005 750.572 118.179 749.693 119.925 748.814 121.671 748.375 123.864 748.375 126.505 748.375 129.239 748.814 131.493 749.693 133.267 750.572 135.04 751.914 136.228 753.718 136.829L753.437 137.732C751.148 137.13 749.394 135.835 748.175 133.847 746.957 131.859 746.347 129.45 746.347 126.622 746.347 123.802 746.959 121.394 748.181 119.398 749.404 117.401 751.156 116.103 753.437 115.501Z" fill-rule="evenodd"/><text font-family="Cambria Math,Cambria Math_MSFontService,sans-serif" font-weight="400" font-size="24" transform="translate(754.198 133)">𝑖</text><text font-family="Cambria Math,Cambria Math_MSFontService,sans-serif" font-weight="400" font-size="24" transform="translate(762.625 133)">,</text><text font-family="Cambria Math,Cambria Math_MSFontService,sans-serif" font-weight="400" font-size="24" transform="translate(771.625 133)">𝑞</text><text font-family="Cambria Math,Cambria Math_MSFontService,sans-serif" font-weight="400" font-size="24" transform="translate(785.351 133)">,</text><text font-family="Cambria Math,Cambria Math_MSFontService,sans-serif" font-weight="400" font-size="24" transform="translate(794.351 133)">𝑎</text><text font-family="Cambria Math,Cambria Math_MSFontService,sans-serif" font-weight="400" font-size="24" transform="translate(824.898 133)">=</text><text font-family="Cambria Math,Cambria Math_MSFontService,sans-serif" font-weight="400" font-size="24" transform="translate(849.565 133)">1</text><text font-family="Source Han Sans JP Medium,Source Han Sans JP Medium_MSFontService,sans-serif" font-weight="500" font-size="24" transform="translate(646.778 161)">The other values of</text><text font-family="Cambria Math,Cambria Math_MSFontService,sans-serif" font-weight="400" font-size="24" transform="translate(869.125 161)">𝑡</text><text font-family="Source Han Sans JP Medium,Source Han Sans JP Medium_MSFontService,sans-serif" font-weight="500" font-size="24" transform="translate(884.544 161)">are</text><text font-family="Cambria Math,Cambria Math_MSFontService,sans-serif" font-weight="400" font-size="24" transform="translate(926.778 161)">0</text><text font-family="Source Han Sans JP Medium,Source Han Sans JP Medium_MSFontService,sans-serif" font-weight="500" font-size="24" transform="translate(940.111 161)">.</text><text font-family="Cambria Math,Cambria Math_MSFontService,sans-serif" font-weight="400" font-size="24" transform="translate(150.563 536)">𝑦</text><path d="M183.624 517.792C185.906 518.394 187.658 519.693 188.88 521.689 190.103 523.685 190.714 526.093 190.714 528.913 190.714 531.742 190.105 534.15 188.886 536.138 187.667 538.126 185.913 539.421 183.624 540.023L183.343 539.12C185.148 538.519 186.49 537.331 187.368 535.558 188.247 533.785 188.687 531.531 188.687 528.796 188.687 526.156 188.249 523.962 187.374 522.216 186.499 520.47 185.144 519.296 183.308 518.695ZM173.675 517.792 173.992 518.695C172.163 519.296 170.81 520.47 169.931 522.216 169.052 523.962 168.613 526.156 168.613 528.796 168.613 531.531 169.052 533.785 169.931 535.558 170.81 537.331 172.152 538.519 173.956 539.12L173.675 540.023C171.386 539.421 169.632 538.126 168.413 536.138 167.195 534.15 166.585 531.742 166.585 528.913 166.585 526.093 167.197 523.685 168.419 521.689 169.642 519.693 171.394 518.394 173.675 517.792Z" fill-rule="evenodd"/><text font-family="Cambria Math,Cambria Math_MSFontService,sans-serif" font-weight="400" font-size="24" transform="translate(174.436 536)">𝑖</text><text font-family="Cambria Math,Cambria Math_MSFontService,sans-serif" font-weight="400" font-size="24" transform="translate(199.489 536)">=</text><text font-family="Cambria Math,Cambria Math_MSFontService,sans-serif" font-weight="400" font-size="24" transform="translate(224.156 536)">1</text><text font-family="Cambria Math,Cambria Math_MSFontService,sans-serif" font-weight="400" font-size="24" transform="translate(237.489 536)">,</text><text font-family="Cambria Math,Cambria Math_MSFontService,sans-serif" font-weight="400" font-size="24" transform="translate(246.489 536)">𝑦</text><path d="M321.551 517.792C323.832 518.394 325.584 519.693 326.807 521.689 328.03 523.685 328.641 526.093 328.641 528.913 328.641 531.742 328.031 534.15 326.813 536.138 325.594 538.126 323.84 539.421 321.551 540.023L321.27 539.12C323.074 538.519 324.416 537.331 325.295 535.558 326.174 533.785 326.614 531.531 326.614 528.796 326.614 526.156 326.176 523.962 325.301 522.216 324.426 520.47 323.071 519.296 321.235 518.695ZM269.602 517.792 269.918 518.695C268.09 519.296 266.737 520.47 265.858 522.216 264.979 523.962 264.539 526.156 264.539 528.796 264.539 531.531 264.979 533.785 265.858 535.558 266.737 537.331 268.078 538.519 269.883 539.12L269.602 540.023C267.313 539.421 265.559 538.126 264.34 536.138 263.121 534.15 262.512 531.742 262.512 528.913 262.512 526.093 263.123 523.685 264.346 521.689 265.569 519.693 267.321 518.394 269.602 517.792Z" fill-rule="evenodd"/><text font-family="Cambria Math,Cambria Math_MSFontService,sans-serif" font-weight="400" font-size="24" transform="translate(270.363 536)">𝑖</text><text font-family="Cambria Math,Cambria Math_MSFontService,sans-serif" font-weight="400" font-size="24" transform="translate(284.123 536)">+</text><text font-family="Cambria Math,Cambria Math_MSFontService,sans-serif" font-weight="400" font-size="24" transform="translate(307.456 536)">1</text><text font-family="Cambria Math,Cambria Math_MSFontService,sans-serif" font-weight="400" font-size="24" transform="translate(337.416 536)">=</text><text fill="#FF0000" font-family="Cambria Math,Cambria Math_MSFontService,sans-serif" font-weight="400" font-size="24" transform="translate(362.083 536)">1</text><text font-family="Source Han Sans JP Medium,Source Han Sans JP Medium_MSFontService,sans-serif" font-weight="500" font-size="24" transform="translate(380.749 536)">does not satisfy</text><path d="M727.477 514.414C729.915 515.055 731.794 516.715 733.114 519.395 734.434 522.075 735.094 525.246 735.094 528.91 735.094 532.575 734.434 535.746 733.114 538.426 731.794 541.106 729.915 542.766 727.477 543.407L727.184 542.446C729.075 541.735 730.507 540.186 731.479 537.799 732.452 535.412 732.938 532.453 732.938 528.922 732.938 525.383 732.452 522.418 731.479 520.028 730.507 517.637 729.075 516.086 727.184 515.375ZM574.016 514.414 574.309 515.375C572.418 516.086 570.987 517.637 570.014 520.028 569.041 522.418 568.555 525.383 568.555 528.922 568.555 532.453 569.041 535.412 570.014 537.799 570.987 540.186 572.418 541.735 574.309 542.446L574.016 543.407C571.578 542.766 569.699 541.106 568.379 538.426 567.059 535.746 566.399 532.575 566.399 528.91 566.399 525.246 567.059 522.075 568.379 519.395 569.699 516.715 571.578 515.055 574.016 514.414Z" fill-rule="evenodd"/><text font-family="Cambria Math,Cambria Math_MSFontService,sans-serif" font-weight="400" font-size="24" transform="translate(575.069 536)">𝑦</text><path d="M608.131 517.792C610.412 518.394 612.164 519.693 613.387 521.689 614.609 523.685 615.221 526.093 615.221 528.913 615.221 531.742 614.611 534.15 613.393 536.138 612.174 538.126 610.42 539.421 608.131 540.023L607.85 539.12C609.654 538.519 610.996 537.331 611.875 535.558 612.754 533.785 613.193 531.531 613.193 528.796 613.193 526.156 612.756 523.962 611.881 522.216 611.006 520.47 609.651 519.296 607.815 518.695ZM598.182 517.792 598.498 518.695C596.67 519.296 595.317 520.47 594.438 522.216 593.559 523.962 593.119 526.156 593.119 528.796 593.119 531.531 593.559 533.785 594.438 535.558 595.317 537.331 596.658 538.519 598.463 539.12L598.182 540.023C595.893 539.421 594.139 538.126 592.92 536.138 591.701 534.15 591.092 531.742 591.092 528.913 591.092 526.093 591.703 523.685 592.926 521.689 594.149 519.693 595.901 518.394 598.182 517.792Z" fill-rule="evenodd"/><text font-family="Cambria Math,Cambria Math_MSFontService,sans-serif" font-weight="400" font-size="24" transform="translate(598.943 536)">𝑖</text><path d="M575.076 513.963 583.056 513.963 585.4 513.963 591.036 513.963 593.38 513.963 599.016 513.963 601.36 513.963 606.996 513.963 609.34 513.963 617.32 513.963 617.32 515.205 609.34 515.205 606.996 515.205 601.36 515.205 599.016 515.205 593.38 515.205 591.036 515.205 585.4 515.205 583.056 515.205 575.076 515.205Z" fill-rule="evenodd"/><text font-family="Cambria Math,Cambria Math_MSFontService,sans-serif" font-weight="400" font-size="24" transform="translate(622.663 536)">∨</text><text font-family="Cambria Math,Cambria Math_MSFontService,sans-serif" font-weight="400" font-size="24" transform="translate(642.163 536)">𝑦</text><path d="M717.224 517.792C719.506 518.394 721.258 519.693 722.48 521.689 723.703 523.685 724.314 526.093 724.314 528.913 724.314 531.742 723.705 534.15 722.486 536.138 721.267 538.126 719.513 539.421 717.224 540.023L716.943 539.12C718.748 538.519 720.09 537.331 720.969 535.558 721.847 533.785 722.287 531.531 722.287 528.796 722.287 526.156 721.849 523.962 720.974 522.216 720.099 520.47 718.744 519.296 716.908 518.695ZM665.275 517.792 665.592 518.695C663.763 519.296 662.41 520.47 661.531 522.216 660.652 523.962 660.213 526.156 660.213 528.796 660.213 531.531 660.652 533.785 661.531 535.558 662.41 537.331 663.752 538.519 665.556 539.12L665.275 540.023C662.986 539.421 661.232 538.126 660.013 536.138 658.795 534.15 658.185 531.742 658.185 528.913 658.185 526.093 658.797 523.685 660.019 521.689 661.242 519.693 662.994 518.394 665.275 517.792Z" fill-rule="evenodd"/><text font-family="Cambria Math,Cambria Math_MSFontService,sans-serif" font-weight="400" font-size="24" transform="translate(666.036 536)">𝑖</text><text font-family="Cambria Math,Cambria Math_MSFontService,sans-serif" font-weight="400" font-size="24" transform="translate(679.796 536)">+</text><text font-family="Cambria Math,Cambria Math_MSFontService,sans-serif" font-weight="400" font-size="24" transform="translate(703.129 536)">1</text><path d="M642.169 513.963 649.563 513.963 652.494 513.963 656.956 513.963 659.887 513.963 664.349 513.963 667.28 513.963 671.743 513.963 674.674 513.963 679.136 513.963 682.067 513.963 686.529 513.963 689.46 513.963 693.923 513.963 696.854 513.963 701.316 513.963 704.247 513.963 708.703 513.963 711.64 513.963 716.089 513.963 719.027 513.963 726.414 513.963 726.414 515.205 719.027 515.205 716.089 515.205 711.64 515.205 708.703 515.205 704.247 515.205 701.316 515.205 696.854 515.205 693.923 515.205 689.46 515.205 686.529 515.205 682.067 515.205 679.136 515.205 674.674 515.205 671.743 515.205 667.28 515.205 664.349 515.205 659.887 515.205 656.956 515.205 652.494 515.205 649.563 515.205 642.169 515.205Z" fill-rule="evenodd"/><text font-family="Source Han Sans JP Medium,Source Han Sans JP Medium_MSFontService,sans-serif" font-weight="500" font-size="24" transform="translate(384.919 596)">but does satisfy</text><path d="M292 223 292 252.815 290 252.815 290 223ZM295 251.481 291 259.481 287 251.481Z" fill="#5B9BD5"/><text font-family="Source Han Sans JP Medium,Source Han Sans JP Medium_MSFontService,sans-serif" font-weight="500" font-size="24" transform="translate(204.453 248)">we flip</text><text font-family="Cambria Math,Cambria Math_MSFontService,sans-serif" font-weight="400" font-size="24" transform="translate(71.2049 353)">𝑥</text><path d="M126.833 335.397C129.115 335.999 130.866 337.298 132.089 339.294 133.312 341.29 133.923 343.698 133.923 346.519 133.923 349.347 133.314 351.755 132.095 353.743 130.876 355.731 129.122 357.026 126.833 357.628L126.552 356.726C128.357 356.124 129.699 354.937 130.577 353.163 131.456 351.39 131.896 349.136 131.896 346.401 131.896 343.761 131.458 341.567 130.583 339.821 129.708 338.075 128.353 336.901 126.517 336.3ZM93.9641 335.397 94.2805 336.3C92.4524 336.901 91.0989 338.075 90.22 339.821 89.341 341.567 88.9016 343.761 88.9016 346.401 88.9016 349.136 89.341 351.39 90.22 353.163 91.0989 354.937 92.4407 356.124 94.2453 356.726L93.9641 357.628C91.675 357.026 89.9211 355.731 88.7024 353.743 87.4836 351.755 86.8743 349.347 86.8743 346.519 86.8743 343.698 87.4856 341.29 88.7082 339.294 89.9309 337.298 91.6828 335.999 93.9641 335.397Z" fill-rule="evenodd"/><text font-family="Cambria Math,Cambria Math_MSFontService,sans-serif" font-weight="400" font-size="24" transform="translate(94.7249 353)">𝑖</text><text font-family="Cambria Math,Cambria Math_MSFontService,sans-serif" font-weight="400" font-size="24" transform="translate(103.152 353)">,</text><text font-family="Cambria Math,Cambria Math_MSFontService,sans-serif" font-weight="400" font-size="24" transform="translate(112.152 353)">𝑎</text><text font-family="Cambria Math,Cambria Math_MSFontService,sans-serif" font-weight="400" font-size="24" transform="translate(142.698 353)">=</text><text fill="#FF0000" font-family="Cambria Math,Cambria Math_MSFontService,sans-serif" font-weight="400" font-size="24" transform="translate(167.365 353)">0</text><text font-family="Cambria Math,Cambria Math_MSFontService,sans-serif" font-weight="400" font-size="24" transform="translate(180.698 353)">,</text><text font-family="Cambria Math,Cambria Math_MSFontService,sans-serif" font-weight="400" font-size="24" transform="translate(189.698 353)">𝑥</text><path d="M244.933 335.397C247.215 335.999 248.966 337.298 250.189 339.294 251.412 341.29 252.023 343.698 252.023 346.519 252.023 349.347 251.414 351.755 250.195 353.743 248.976 355.731 247.222 357.026 244.933 357.628L244.652 356.726C246.457 356.124 247.798 354.937 248.677 353.163 249.556 351.39 249.996 349.136 249.996 346.401 249.996 343.761 249.558 341.567 248.683 339.821 247.808 338.075 246.453 336.901 244.617 336.3ZM212.457 335.397 212.774 336.3C210.946 336.901 209.592 338.075 208.713 339.821 207.834 341.567 207.395 343.761 207.395 346.401 207.395 349.136 207.834 351.39 208.713 353.163 209.592 354.937 210.934 356.124 212.739 356.726L212.457 357.628C210.168 357.026 208.414 355.731 207.196 353.743 205.977 351.755 205.368 349.347 205.368 346.519 205.368 343.698 205.979 341.29 207.202 339.294 208.424 337.298 210.176 335.999 212.457 335.397Z" fill-rule="evenodd"/><text font-family="Cambria Math,Cambria Math_MSFontService,sans-serif" font-weight="400" font-size="24" transform="translate(213.218 353)">𝑖</text><text font-family="Cambria Math,Cambria Math_MSFontService,sans-serif" font-weight="400" font-size="24" transform="translate(221.645 353)">,</text><text font-family="Cambria Math,Cambria Math_MSFontService,sans-serif" font-weight="400" font-size="24" transform="translate(230.645 353)">𝑏</text><text font-family="Cambria Math,Cambria Math_MSFontService,sans-serif" font-weight="400" font-size="24" transform="translate(260.798 353)">=</text><text font-family="Cambria Math,Cambria Math_MSFontService,sans-serif" font-weight="400" font-size="24" transform="translate(285.465 353)">1</text><text font-family="Cambria Math,Cambria Math_MSFontService,sans-serif" font-weight="400" font-size="24" transform="translate(298.798 353)">,</text><text font-family="Cambria Math,Cambria Math_MSFontService,sans-serif" font-weight="400" font-size="24" transform="translate(307.798 353)">𝑦</text><path d="M340.86 335.397C343.141 335.999 344.893 337.298 346.116 339.294 347.338 341.29 347.95 343.698 347.95 346.519 347.95 349.347 347.34 351.755 346.122 353.743 344.903 355.731 343.149 357.026 340.86 357.628L340.579 356.726C342.383 356.124 343.725 354.937 344.604 353.163 345.483 351.39 345.922 349.136 345.922 346.401 345.922 343.761 345.485 341.567 344.61 339.821 343.735 338.075 342.379 336.901 340.544 336.3ZM330.911 335.397 331.227 336.3C329.399 336.901 328.046 338.075 327.167 339.821 326.288 341.567 325.848 343.761 325.848 346.401 325.848 349.136 326.288 351.39 327.167 353.163 328.046 354.937 329.387 356.124 331.192 356.726L330.911 357.628C328.622 357.026 326.868 355.731 325.649 353.743 324.43 351.755 323.821 349.347 323.821 346.519 323.821 343.698 324.432 341.29 325.655 339.294 326.878 337.298 328.63 335.999 330.911 335.397Z" fill-rule="evenodd"/><text font-family="Cambria Math,Cambria Math_MSFontService,sans-serif" font-weight="400" font-size="24" transform="translate(331.672 353)">𝑖</text><text font-family="Cambria Math,Cambria Math_MSFontService,sans-serif" font-weight="400" font-size="24" transform="translate(356.725 353)">=</text><text font-family="Cambria Math,Cambria Math_MSFontService,sans-serif" font-weight="400" font-size="24" transform="translate(381.392 353)">1</text><text font-family="Cambria Math,Cambria Math_MSFontService,sans-serif" font-weight="400" font-size="24" transform="translate(394.725 353)">,</text><text font-family="Cambria Math,Cambria Math_MSFontService,sans-serif" font-weight="400" font-size="24" transform="translate(403.725 353)">𝑦</text><path d="M478.787 335.397C481.068 335.999 482.82 337.298 484.042 339.294 485.265 341.29 485.876 343.698 485.876 346.519 485.876 349.347 485.267 351.755 484.048 353.743 482.83 355.731 481.076 357.026 478.787 357.628L478.505 356.726C480.31 356.124 481.652 354.937 482.531 353.163 483.41 351.39 483.849 349.136 483.849 346.401 483.849 343.761 483.412 341.567 482.537 339.821 481.662 338.075 480.306 336.901 478.47 336.3ZM426.837 335.397 427.154 336.3C425.326 336.901 423.972 338.075 423.093 339.821 422.214 341.567 421.775 343.761 421.775 346.401 421.775 349.136 422.214 351.39 423.093 353.163 423.972 354.937 425.314 356.124 427.119 356.726L426.837 357.628C424.548 357.026 422.794 355.731 421.576 353.743 420.357 351.755 419.748 349.347 419.748 346.519 419.748 343.698 420.359 341.29 421.582 339.294 422.804 337.298 424.556 335.999 426.837 335.397Z" fill-rule="evenodd"/><text font-family="Cambria Math,Cambria Math_MSFontService,sans-serif" font-weight="400" font-size="24" transform="translate(427.598 353)">𝑖</text><text font-family="Cambria Math,Cambria Math_MSFontService,sans-serif" font-weight="400" font-size="24" transform="translate(441.358 353)">+</text><text font-family="Cambria Math,Cambria Math_MSFontService,sans-serif" font-weight="400" font-size="24" transform="translate(464.692 353)">1</text><text font-family="Cambria Math,Cambria Math_MSFontService,sans-serif" font-weight="400" font-size="24" transform="translate(494.652 353)">=</text><text font-family="Cambria Math,Cambria Math_MSFontService,sans-serif" font-weight="400" font-size="24" transform="translate(519.318 353)">0</text><text font-family="Cambria Math,Cambria Math_MSFontService,sans-serif" font-weight="400" font-size="24" transform="translate(532.652 353)">,</text><text font-family="Cambria Math,Cambria Math_MSFontService,sans-serif" font-weight="400" font-size="24" transform="translate(541.652 353)">𝑧</text><path d="M578.18 335.397C580.461 335.999 582.213 337.298 583.436 339.294 584.658 341.29 585.27 343.698 585.27 346.519 585.27 349.347 584.66 351.755 583.442 353.743 582.223 355.731 580.469 357.026 578.18 357.628L577.899 356.726C579.703 356.124 581.045 354.937 581.924 353.163 582.803 351.39 583.242 349.136 583.242 346.401 583.242 343.761 582.805 341.567 581.93 339.821 581.055 338.075 579.699 336.901 577.864 336.3ZM562.931 335.397 563.247 336.3C561.419 336.901 560.066 338.075 559.187 339.821 558.308 341.567 557.868 343.761 557.868 346.401 557.868 349.136 558.308 351.39 559.187 353.163 560.066 354.937 561.407 356.124 563.212 356.726L562.931 357.628C560.642 357.026 558.888 355.731 557.669 353.743 556.45 351.755 555.841 349.347 555.841 346.519 555.841 343.698 556.452 341.29 557.675 339.294 558.898 337.298 560.65 335.999 562.931 335.397Z" fill-rule="evenodd"/><text font-family="Cambria Math,Cambria Math_MSFontService,sans-serif" font-weight="400" font-size="24" transform="translate(563.692 353)">𝑞</text><text font-family="Cambria Math,Cambria Math_MSFontService,sans-serif" font-weight="400" font-size="24" transform="translate(594.045 353)">=</text><text font-family="Cambria Math,Cambria Math_MSFontService,sans-serif" font-weight="400" font-size="24" transform="translate(618.712 353)">1</text><text font-family="Cambria Math,Cambria Math_MSFontService,sans-serif" font-weight="400" font-size="24" transform="translate(632.045 353)">,</text><text font-family="Cambria Math,Cambria Math_MSFontService,sans-serif" font-weight="400" font-size="24" transform="translate(641.045 353)">𝑧</text><path d="M684.733 335.397C687.015 335.999 688.766 337.298 689.989 339.294 691.212 341.29 691.823 343.698 691.823 346.519 691.823 349.347 691.214 351.755 689.995 353.743 688.776 355.731 687.022 357.026 684.733 357.628L684.452 356.726C686.257 356.124 687.599 354.937 688.477 353.163 689.356 351.39 689.796 349.136 689.796 346.401 689.796 343.761 689.358 341.567 688.483 339.821 687.608 338.075 686.253 336.901 684.417 336.3ZM662.324 335.397 662.641 336.3C660.812 336.901 659.459 338.075 658.58 339.821 657.701 341.567 657.262 343.761 657.262 346.401 657.262 349.136 657.701 351.39 658.58 353.163 659.459 354.937 660.801 356.124 662.605 356.726L662.324 357.628C660.035 357.026 658.281 355.731 657.062 353.743 655.844 351.755 655.234 349.347 655.234 346.519 655.234 343.698 655.846 341.29 657.068 339.294 658.291 337.298 660.043 335.999 662.324 335.397Z" fill-rule="evenodd"/><text font-family="Cambria Math,Cambria Math_MSFontService,sans-serif" font-weight="400" font-size="24" transform="translate(663.085 353)">𝑞</text><text font-family="Cambria Math,Cambria Math_MSFontService,sans-serif" font-weight="400" font-size="17.52" transform="translate(676.812 345)">′</text><text font-family="Cambria Math,Cambria Math_MSFontService,sans-serif" font-weight="400" font-size="24" transform="translate(700.598 353)">=</text><text font-family="Cambria Math,Cambria Math_MSFontService,sans-serif" font-weight="400" font-size="24" transform="translate(725.265 353)">0</text><text font-family="Cambria Math,Cambria Math_MSFontService,sans-serif" font-weight="400" font-size="24" transform="translate(71.2049 423)">𝑥</text><path d="M126.833 404.663C129.115 405.265 130.866 406.564 132.089 408.56 133.312 410.556 133.923 412.964 133.923 415.784 133.923 418.613 133.314 421.021 132.095 423.009 130.876 424.997 129.122 426.292 126.833 426.894L126.552 425.991C128.357 425.39 129.699 424.202 130.577 422.429 131.456 420.656 131.896 418.402 131.896 415.667 131.896 413.027 131.458 410.833 130.583 409.087 129.708 407.341 128.353 406.167 126.517 405.566ZM93.9641 404.663 94.2805 405.566C92.4524 406.167 91.0989 407.341 90.22 409.087 89.341 410.833 88.9016 413.027 88.9016 415.667 88.9016 418.402 89.341 420.656 90.22 422.429 91.0989 424.202 92.4407 425.39 94.2453 425.991L93.9641 426.894C91.675 426.292 89.9211 424.997 88.7024 423.009 87.4836 421.021 86.8743 418.613 86.8743 415.784 86.8743 412.964 87.4856 410.556 88.7082 408.56 89.9309 406.564 91.6828 405.265 93.9641 404.663Z" fill-rule="evenodd"/><text font-family="Cambria Math,Cambria Math_MSFontService,sans-serif" font-weight="400" font-size="24" transform="translate(94.7249 423)">𝑖</text><text font-family="Cambria Math,Cambria Math_MSFontService,sans-serif" font-weight="400" font-size="24" transform="translate(103.152 423)">,</text><text font-family="Cambria Math,Cambria Math_MSFontService,sans-serif" font-weight="400" font-size="24" transform="translate(112.152 423)">𝑎</text><text font-family="Cambria Math,Cambria Math_MSFontService,sans-serif" font-weight="400" font-size="24" transform="translate(142.698 423)">=</text><text font-family="Cambria Math,Cambria Math_MSFontService,sans-serif" font-weight="400" font-size="24" transform="translate(167.365 423)">0</text><text font-family="Cambria Math,Cambria Math_MSFontService,sans-serif" font-weight="400" font-size="24" transform="translate(180.698 423)">,</text><text font-family="Cambria Math,Cambria Math_MSFontService,sans-serif" font-weight="400" font-size="24" transform="translate(189.698 423)">𝑥</text><path d="M244.933 404.663C247.215 405.265 248.966 406.564 250.189 408.56 251.412 410.556 252.023 412.964 252.023 415.784 252.023 418.613 251.414 421.021 250.195 423.009 248.976 424.997 247.222 426.292 244.933 426.894L244.652 425.991C246.457 425.39 247.798 424.202 248.677 422.429 249.556 420.656 249.996 418.402 249.996 415.667 249.996 413.027 249.558 410.833 248.683 409.087 247.808 407.341 246.453 406.167 244.617 405.566ZM212.457 404.663 212.774 405.566C210.946 406.167 209.592 407.341 208.713 409.087 207.834 410.833 207.395 413.027 207.395 415.667 207.395 418.402 207.834 420.656 208.713 422.429 209.592 424.202 210.934 425.39 212.739 425.991L212.457 426.894C210.168 426.292 208.414 424.997 207.196 423.009 205.977 421.021 205.368 418.613 205.368 415.784 205.368 412.964 205.979 410.556 207.202 408.56 208.424 406.564 210.176 405.265 212.457 404.663Z" fill-rule="evenodd"/><text font-family="Cambria Math,Cambria Math_MSFontService,sans-serif" font-weight="400" font-size="24" transform="translate(213.218 423)">𝑖</text><text font-family="Cambria Math,Cambria Math_MSFontService,sans-serif" font-weight="400" font-size="24" transform="translate(221.645 423)">,</text><text font-family="Cambria Math,Cambria Math_MSFontService,sans-serif" font-weight="400" font-size="24" transform="translate(230.645 423)">𝑏</text><text font-family="Cambria Math,Cambria Math_MSFontService,sans-serif" font-weight="400" font-size="24" transform="translate(260.798 423)">=</text><text font-family="Cambria Math,Cambria Math_MSFontService,sans-serif" font-weight="400" font-size="24" transform="translate(285.465 423)">1</text><text font-family="Cambria Math,Cambria Math_MSFontService,sans-serif" font-weight="400" font-size="24" transform="translate(298.798 423)">,</text><text font-family="Cambria Math,Cambria Math_MSFontService,sans-serif" font-weight="400" font-size="24" transform="translate(307.798 423)">𝑦</text><path d="M340.86 404.663C343.141 405.265 344.893 406.564 346.116 408.56 347.338 410.556 347.95 412.964 347.95 415.784 347.95 418.613 347.34 421.021 346.122 423.009 344.903 424.997 343.149 426.292 340.86 426.894L340.579 425.991C342.383 425.39 343.725 424.202 344.604 422.429 345.483 420.656 345.922 418.402 345.922 415.667 345.922 413.027 345.485 410.833 344.61 409.087 343.735 407.341 342.379 406.167 340.544 405.566ZM330.911 404.663 331.227 405.566C329.399 406.167 328.046 407.341 327.167 409.087 326.288 410.833 325.848 413.027 325.848 415.667 325.848 418.402 326.288 420.656 327.167 422.429 328.046 424.202 329.387 425.39 331.192 425.991L330.911 426.894C328.622 426.292 326.868 424.997 325.649 423.009 324.43 421.021 323.821 418.613 323.821 415.784 323.821 412.964 324.432 410.556 325.655 408.56 326.878 406.564 328.63 405.265 330.911 404.663Z" fill-rule="evenodd"/><text font-family="Cambria Math,Cambria Math_MSFontService,sans-serif" font-weight="400" font-size="24" transform="translate(331.672 423)">𝑖</text><text font-family="Cambria Math,Cambria Math_MSFontService,sans-serif" font-weight="400" font-size="24" transform="translate(356.725 423)">=</text><text font-family="Cambria Math,Cambria Math_MSFontService,sans-serif" font-weight="400" font-size="24" transform="translate(381.392 423)">1</text><text font-family="Cambria Math,Cambria Math_MSFontService,sans-serif" font-weight="400" font-size="24" transform="translate(394.725 423)">,</text><text font-family="Cambria Math,Cambria Math_MSFontService,sans-serif" font-weight="400" font-size="24" transform="translate(403.725 423)">𝑦</text><path d="M478.787 404.663C481.068 405.265 482.82 406.564 484.042 408.56 485.265 410.556 485.876 412.964 485.876 415.784 485.876 418.613 485.267 421.021 484.048 423.009 482.83 424.997 481.076 426.292 478.787 426.894L478.505 425.991C480.31 425.39 481.652 424.202 482.531 422.429 483.41 420.656 483.849 418.402 483.849 415.667 483.849 413.027 483.412 410.833 482.537 409.087 481.662 407.341 480.306 406.167 478.47 405.566ZM426.837 404.663 427.154 405.566C425.326 406.167 423.972 407.341 423.093 409.087 422.214 410.833 421.775 413.027 421.775 415.667 421.775 418.402 422.214 420.656 423.093 422.429 423.972 424.202 425.314 425.39 427.119 425.991L426.837 426.894C424.548 426.292 422.794 424.997 421.576 423.009 420.357 421.021 419.748 418.613 419.748 415.784 419.748 412.964 420.359 410.556 421.582 408.56 422.804 406.564 424.556 405.265 426.837 404.663Z" fill-rule="evenodd"/><text font-family="Cambria Math,Cambria Math_MSFontService,sans-serif" font-weight="400" font-size="24" transform="translate(427.598 423)">𝑖</text><text font-family="Cambria Math,Cambria Math_MSFontService,sans-serif" font-weight="400" font-size="24" transform="translate(441.358 423)">+</text><text font-family="Cambria Math,Cambria Math_MSFontService,sans-serif" font-weight="400" font-size="24" transform="translate(464.692 423)">1</text><text font-family="Cambria Math,Cambria Math_MSFontService,sans-serif" font-weight="400" font-size="24" transform="translate(494.652 423)">=</text><text fill="#FF0000" font-family="Cambria Math,Cambria Math_MSFontService,sans-serif" font-weight="400" font-size="24" transform="translate(519.318 423)">1</text><text font-family="Cambria Math,Cambria Math_MSFontService,sans-serif" font-weight="400" font-size="24" transform="translate(532.652 423)">,</text><text font-family="Cambria Math,Cambria Math_MSFontService,sans-serif" font-weight="400" font-size="24" transform="translate(541.652 423)">𝑧</text><path d="M578.18 404.663C580.461 405.265 582.213 406.564 583.436 408.56 584.658 410.556 585.27 412.964 585.27 415.784 585.27 418.613 584.66 421.021 583.442 423.009 582.223 424.997 580.469 426.292 578.18 426.894L577.899 425.991C579.703 425.39 581.045 424.202 581.924 422.429 582.803 420.656 583.242 418.402 583.242 415.667 583.242 413.027 582.805 410.833 581.93 409.087 581.055 407.341 579.699 406.167 577.864 405.566ZM562.931 404.663 563.247 405.566C561.419 406.167 560.066 407.341 559.187 409.087 558.308 410.833 557.868 413.027 557.868 415.667 557.868 418.402 558.308 420.656 559.187 422.429 560.066 424.202 561.407 425.39 563.212 425.991L562.931 426.894C560.642 426.292 558.888 424.997 557.669 423.009 556.45 421.021 555.841 418.613 555.841 415.784 555.841 412.964 556.452 410.556 557.675 408.56 558.898 406.564 560.65 405.265 562.931 404.663Z" fill-rule="evenodd"/><text font-family="Cambria Math,Cambria Math_MSFontService,sans-serif" font-weight="400" font-size="24" transform="translate(563.692 423)">𝑞</text><text font-family="Cambria Math,Cambria Math_MSFontService,sans-serif" font-weight="400" font-size="24" transform="translate(594.045 423)">=</text><text font-family="Cambria Math,Cambria Math_MSFontService,sans-serif" font-weight="400" font-size="24" transform="translate(618.712 423)">1</text><text font-family="Cambria Math,Cambria Math_MSFontService,sans-serif" font-weight="400" font-size="24" transform="translate(632.045 423)">,</text><text font-family="Cambria Math,Cambria Math_MSFontService,sans-serif" font-weight="400" font-size="24" transform="translate(641.045 423)">𝑧</text><path d="M684.733 404.663C687.015 405.265 688.766 406.564 689.989 408.56 691.212 410.556 691.823 412.964 691.823 415.784 691.823 418.613 691.214 421.021 689.995 423.009 688.776 424.997 687.022 426.292 684.733 426.894L684.452 425.991C686.257 425.39 687.599 424.202 688.477 422.429 689.356 420.656 689.796 418.402 689.796 415.667 689.796 413.027 689.358 410.833 688.483 409.087 687.608 407.341 686.253 406.167 684.417 405.566ZM662.324 404.663 662.641 405.566C660.812 406.167 659.459 407.341 658.58 409.087 657.701 410.833 657.262 413.027 657.262 415.667 657.262 418.402 657.701 420.656 658.58 422.429 659.459 424.202 660.801 425.39 662.605 425.991L662.324 426.894C660.035 426.292 658.281 424.997 657.062 423.009 655.844 421.021 655.234 418.613 655.234 415.784 655.234 412.964 655.846 410.556 657.068 408.56 658.291 406.564 660.043 405.265 662.324 404.663Z" fill-rule="evenodd"/><text font-family="Cambria Math,Cambria Math_MSFontService,sans-serif" font-weight="400" font-size="24" transform="translate(663.085 423)">𝑞</text><text font-family="Cambria Math,Cambria Math_MSFontService,sans-serif" font-weight="400" font-size="17.52" transform="translate(676.812 414)">′</text><text font-family="Cambria Math,Cambria Math_MSFontService,sans-serif" font-weight="400" font-size="24" transform="translate(700.598 423)">=</text><text font-family="Cambria Math,Cambria Math_MSFontService,sans-serif" font-weight="400" font-size="24" transform="translate(725.265 423)">0</text><path d="M176 295 176 324.815 174 324.815 174 295ZM179 323.481 175 331.481 171 323.481Z" fill="#5B9BD5"/><text font-family="Source Han Sans JP Medium,Source Han Sans JP Medium_MSFontService,sans-serif" font-weight="500" font-size="24" transform="translate(121.936 322)">flip</text><path d="M526 363 526 392.815 524 392.815 524 363ZM529 391.481 525 399.481 521 391.481Z" fill="#5B9BD5"/><text font-family="Source Han Sans JP Medium,Source Han Sans JP Medium_MSFontService,sans-serif" font-weight="500" font-size="24" transform="translate(471.82 390)">flip</text><text font-family="Cambria Math,Cambria Math_MSFontService,sans-serif" font-weight="400" font-size="24" transform="translate(577.125 596)">𝑦</text><path d="M610.187 577.844C612.469 578.445 614.22 579.744 615.443 581.74 616.666 583.736 617.277 586.144 617.277 588.965 617.277 591.793 616.668 594.201 615.449 596.189 614.23 598.178 612.476 599.472 610.187 600.074L609.906 599.172C611.711 598.57 613.052 597.383 613.931 595.609 614.81 593.836 615.25 591.582 615.25 588.847 615.25 586.207 614.812 584.013 613.937 582.267 613.062 580.521 611.707 579.347 609.871 578.746ZM600.238 577.844 600.555 578.746C598.726 579.347 597.373 580.521 596.494 582.267 595.615 584.013 595.176 586.207 595.176 588.847 595.176 591.582 595.615 593.836 596.494 595.609 597.373 597.383 598.715 598.57 600.519 599.172L600.238 600.074C597.949 599.472 596.195 598.178 594.976 596.189 593.758 594.201 593.148 591.793 593.148 588.965 593.148 586.144 593.76 583.736 594.982 581.74 596.205 579.744 597.957 578.445 600.238 577.844Z" fill-rule="evenodd"/><text font-family="Cambria Math,Cambria Math_MSFontService,sans-serif" font-weight="400" font-size="24" transform="translate(600.999 596)">𝑖</text><path d="M577.132 574.014 585.112 574.014 587.456 574.014 593.092 574.014 595.436 574.014 601.072 574.014 603.416 574.014 609.052 574.014 611.396 574.014 619.376 574.014 619.376 575.256 611.396 575.256 609.052 575.256 603.416 575.256 601.072 575.256 595.436 575.256 593.092 575.256 587.456 575.256 585.112 575.256 577.132 575.256Z" fill-rule="evenodd"/><text font-family="Cambria Math,Cambria Math_MSFontService,sans-serif" font-weight="400" font-size="24" transform="translate(624.719 596)">∨</text><text font-family="Cambria Math,Cambria Math_MSFontService,sans-serif" font-weight="400" font-size="24" transform="translate(644.219 596)">𝑦</text><path d="M719.281 577.844C721.562 578.445 723.314 579.744 724.536 581.74 725.759 583.736 726.37 586.144 726.37 588.965 726.37 591.793 725.761 594.201 724.542 596.189 723.324 598.178 721.57 599.472 719.281 600.074L718.999 599.172C720.804 598.57 722.146 597.383 723.025 595.609 723.904 593.836 724.343 591.582 724.343 588.847 724.343 586.207 723.906 584.013 723.031 582.267 722.156 580.521 720.8 579.347 718.964 578.746ZM667.331 577.844 667.648 578.746C665.82 579.347 664.466 580.521 663.587 582.267 662.708 584.013 662.269 586.207 662.269 588.847 662.269 591.582 662.708 593.836 663.587 595.609 664.466 597.383 665.808 598.57 667.613 599.172L667.331 600.074C665.042 599.472 663.288 598.178 662.07 596.189 660.851 594.201 660.242 591.793 660.242 588.965 660.242 586.144 660.853 583.736 662.076 581.74 663.298 579.744 665.05 578.445 667.331 577.844Z" fill-rule="evenodd"/><text font-family="Cambria Math,Cambria Math_MSFontService,sans-serif" font-weight="400" font-size="24" transform="translate(668.092 596)">𝑖</text><text font-family="Cambria Math,Cambria Math_MSFontService,sans-serif" font-weight="400" font-size="24" transform="translate(681.852 596)">+</text><text font-family="Cambria Math,Cambria Math_MSFontService,sans-serif" font-weight="400" font-size="24" transform="translate(705.185 596)">1</text><path d="M644.226 574.014 651.619 574.014 654.55 574.014 659.012 574.014 661.943 574.014 666.406 574.014 669.336 574.014 673.799 574.014 676.73 574.014 681.192 574.014 684.123 574.014 688.586 574.014 691.516 574.014 695.979 574.014 698.91 574.014 703.372 574.014 706.303 574.014 710.759 574.014 713.696 574.014 718.146 574.014 721.083 574.014 728.47 574.014 728.47 575.256 721.083 575.256 718.146 575.256 713.696 575.256 710.759 575.256 706.303 575.256 703.372 575.256 698.91 575.256 695.979 575.256 691.516 575.256 688.586 575.256 684.123 575.256 681.192 575.256 676.73 575.256 673.799 575.256 669.336 575.256 666.406 575.256 661.943 575.256 659.012 575.256 654.55 575.256 651.619 575.256 644.226 575.256Z" fill-rule="evenodd"/><text font-family="Cambria Math,Cambria Math_MSFontService,sans-serif" font-weight="400" font-size="24" transform="translate(733.812 596)">∨</text><path d="M33.7383-29.7656 18.6328 16.0547 15.2109 16.0547 0.703125-29.7656 4.13672-29.7656 17.1445 11.9414 30.4688-29.7656Z" transform="translate(771.466 596)"/><text fill="#000000" fill-opacity="0" font-family="Arial,Arial_MSFontService,sans-serif" font-size="45.8203" x="0.703125" y="10.3271">ሧ</text><text font-family="Cambria Math,Cambria Math_MSFontService,sans-serif" font-weight="400" font-size="24" transform="translate(828.065 596)">𝑡</text><text font-family="Cambria Math,Cambria Math_MSFontService,sans-serif" font-weight="400" font-size="24" transform="translate(838.152 596)">(</text><text font-family="Cambria Math,Cambria Math_MSFontService,sans-serif" font-weight="400" font-size="24" transform="translate(848.152 596)">𝑖</text><text font-family="Cambria Math,Cambria Math_MSFontService,sans-serif" font-weight="400" font-size="24" transform="translate(856.579 596)">,</text><text font-family="Cambria Math,Cambria Math_MSFontService,sans-serif" font-weight="400" font-size="24" transform="translate(865.579 596)">𝑞</text><text font-family="Cambria Math,Cambria Math_MSFontService,sans-serif" font-weight="400" font-size="24" transform="translate(879.306 596)">,</text><text font-family="Cambria Math,Cambria Math_MSFontService,sans-serif" font-weight="400" font-size="24" transform="translate(888.306 596)">𝑎</text><text font-family="Cambria Math,Cambria Math_MSFontService,sans-serif" font-weight="400" font-size="24" transform="translate(902.226 596)">)</text><text font-family="Cambria Math,Cambria Math_MSFontService,sans-serif" font-weight="400" font-size="17.52" transform="translate(753.312 626)">𝑎</text><text font-family="Cambria Math,Cambria Math_MSFontService,sans-serif" font-weight="400" font-size="17.52" transform="translate(764.739 626)">∈</text><text font-family="Cambria Math,Cambria Math_MSFontService,sans-serif" font-weight="400" font-size="17.52" transform="translate(775.572 626)">Γ</text><text font-family="Cambria Math,Cambria Math_MSFontService,sans-serif" font-weight="400" font-size="17.52" transform="translate(785.906 626)">,</text><text font-family="Cambria Math,Cambria Math_MSFontService,sans-serif" font-weight="400" font-size="17.52" transform="translate(789.572 626)">𝑞</text><text font-family="Cambria Math,Cambria Math_MSFontService,sans-serif" font-weight="400" font-size="17.52" transform="translate(800.599 626)">∈</text><text font-family="Cambria Math,Cambria Math_MSFontService,sans-serif" font-weight="400" font-size="17.52" transform="translate(811.432 626)">𝑄</text></g></svg>