<svg width="960" height="720" xmlns="http://www.w3.org/2000/svg" xmlns:xlink="http://www.w3.org/1999/xlink" overflow="hidden"><defs><clipPath id="clip0"><rect x="0" y="0" width="960" height="720"/></clipPath></defs><g clip-path="url(#clip0)"><rect x="0" y="0" width="960" height="720" fill="#FFFFFF"/><rect x="0.500053" y="0.500053" width="960" height="76" stroke="#DEEBF7" stroke-width="1.33333" stroke-miterlimit="8" fill="#DEEBF7"/><text fill="#898989" font-family="Source Han Sans JP Medium,Source Han Sans JP Medium_MSFontService,sans-serif" font-weight="500" font-size="16" transform="translate(865.933 692)">42</text><text font-family="Cambria Math,Cambria Math_MSFontService,sans-serif" font-weight="400" font-size="42.6667" transform="translate(75.6 55)">SAT</text><text font-family="Source Han Sans JP Medium,Source Han Sans JP Medium_MSFontService,sans-serif" font-weight="500" font-size="42.6667" transform="translate(148.767 55)">-</text><text font-family="Cambria Math,Cambria Math_MSFontService,sans-serif" font-weight="400" font-size="42.6667" transform="translate(163.933 55)">RECONF</text><text font-family="Source Han Sans JP Medium,Source Han Sans JP Medium_MSFontService,sans-serif" font-weight="500" font-size="42.6667" transform="translate(328.267 55)">is</text><text font-family="Cambria Math,Cambria Math_MSFontService,sans-serif" font-weight="400" font-size="42.6667" transform="translate(370.6 55)">PSPACE</text><text font-family="Source Han Sans JP Medium,Source Han Sans JP Medium_MSFontService,sans-serif" font-weight="500" font-size="42.6667" transform="translate(515.267 55)">-</text><text font-family="Source Han Sans JP Medium,Source Han Sans JP Medium_MSFontService,sans-serif" font-weight="500" font-size="42.6667" transform="translate(530.433 55)">complete</text><text font-family="Cambria Math,Cambria Math_MSFontService,sans-serif" font-weight="400" font-size="24" transform="translate(71.726 116)">𝛿</text><path d="M132.868 97.6768C135.149 98.2784 136.901 99.5772 138.124 101.573 139.346 103.569 139.958 105.978 139.958 108.798 139.958 111.626 139.348 114.034 138.129 116.023 136.911 118.011 135.157 119.306 132.868 119.907L132.586 119.005C134.391 118.403 135.733 117.216 136.612 115.442 137.491 113.669 137.93 111.415 137.93 108.681 137.93 106.04 137.493 103.847 136.618 102.101 135.743 100.355 134.387 99.1808 132.551 98.5792ZM94.6985 97.6768 95.0149 98.5792C93.1868 99.1808 91.8333 100.355 90.9544 102.101 90.0755 103.847 89.636 106.04 89.636 108.681 89.636 111.415 90.0755 113.669 90.9544 115.442 91.8333 117.216 93.1751 118.403 94.9798 119.005L94.6985 119.907C92.4095 119.306 90.6556 118.011 89.4368 116.023 88.2181 114.034 87.6087 111.626 87.6087 108.798 87.6087 105.978 88.22 103.569 89.4427 101.573 90.6653 99.5772 92.4173 98.2784 94.6985 97.6768Z" fill-rule="evenodd"/><text font-family="Cambria Math,Cambria Math_MSFontService,sans-serif" font-weight="400" font-size="24" transform="translate(95.4593 116)">𝑞</text><text font-family="Cambria Math,Cambria Math_MSFontService,sans-serif" font-weight="400" font-size="24" transform="translate(109.186 116)">,</text><text font-family="Cambria Math,Cambria Math_MSFontService,sans-serif" font-weight="400" font-size="24" transform="translate(118.186 116)">𝑎</text><text font-family="Cambria Math,Cambria Math_MSFontService,sans-serif" font-weight="400" font-size="24" transform="translate(148.733 116)">=</text><text font-family="Cambria Math,Cambria Math_MSFontService,sans-serif" font-weight="400" font-size="24" transform="translate(173.399 116)">(</text><text font-family="Cambria Math,Cambria Math_MSFontService,sans-serif" font-weight="400" font-size="24" transform="translate(183.399 116)">𝑞</text><text font-family="Cambria Math,Cambria Math_MSFontService,sans-serif" font-weight="400" font-size="17.52" transform="translate(197.126 107)">′</text><text font-family="Cambria Math,Cambria Math_MSFontService,sans-serif" font-weight="400" font-size="24" transform="translate(204.286 116)">,</text><text font-family="Cambria Math,Cambria Math_MSFontService,sans-serif" font-weight="400" font-size="24" transform="translate(213.286 116)">𝑏</text><text font-family="Cambria Math,Cambria Math_MSFontService,sans-serif" font-weight="400" font-size="24" transform="translate(226.813 116)">,</text><text font-family="Cambria Math,Cambria Math_MSFontService,sans-serif" font-weight="400" font-size="24" transform="translate(235.813 116)">R</text><text font-family="Cambria Math,Cambria Math_MSFontService,sans-serif" font-weight="400" font-size="24" transform="translate(250.646 116)">)</text><text font-family="Cambria Math,Cambria Math_MSFontService,sans-serif" font-weight="400" font-size="24" transform="translate(71.2049 212)">𝑥</text><path d="M126.833 193.695C129.115 194.297 130.866 195.596 132.089 197.592 133.312 199.588 133.923 201.996 133.923 204.816 133.923 207.644 133.314 210.053 132.095 212.041 130.876 214.029 129.122 215.324 126.833 215.926L126.552 215.023C128.357 214.422 129.699 213.234 130.577 211.461 131.456 209.687 131.896 207.433 131.896 204.699 131.896 202.058 131.458 199.865 130.583 198.119 129.708 196.373 128.353 195.199 126.517 194.597ZM93.9641 193.695 94.2805 194.597C92.4524 195.199 91.0989 196.373 90.22 198.119 89.341 199.865 88.9016 202.058 88.9016 204.699 88.9016 207.433 89.341 209.687 90.22 211.461 91.0989 213.234 92.4407 214.422 94.2453 215.023L93.9641 215.926C91.675 215.324 89.9211 214.029 88.7024 212.041 87.4836 210.053 86.8743 207.644 86.8743 204.816 86.8743 201.996 87.4856 199.588 88.7082 197.592 89.9309 195.596 91.6828 194.297 93.9641 193.695Z" fill-rule="evenodd"/><text font-family="Cambria Math,Cambria Math_MSFontService,sans-serif" font-weight="400" font-size="24" transform="translate(94.7249 212)">𝑖</text><text font-family="Cambria Math,Cambria Math_MSFontService,sans-serif" font-weight="400" font-size="24" transform="translate(103.152 212)">,</text><text font-family="Cambria Math,Cambria Math_MSFontService,sans-serif" font-weight="400" font-size="24" transform="translate(112.152 212)">𝑎</text><text font-family="Cambria Math,Cambria Math_MSFontService,sans-serif" font-weight="400" font-size="24" transform="translate(142.698 212)">=</text><text font-family="Cambria Math,Cambria Math_MSFontService,sans-serif" font-weight="400" font-size="24" transform="translate(167.365 212)">1</text><text font-family="Cambria Math,Cambria Math_MSFontService,sans-serif" font-weight="400" font-size="24" transform="translate(180.698 212)">,</text><text font-family="Cambria Math,Cambria Math_MSFontService,sans-serif" font-weight="400" font-size="24" transform="translate(189.698 212)">𝑥</text><path d="M244.933 193.695C247.215 194.297 248.966 195.596 250.189 197.592 251.412 199.588 252.023 201.996 252.023 204.816 252.023 207.644 251.414 210.053 250.195 212.041 248.976 214.029 247.222 215.324 244.933 215.926L244.652 215.023C246.457 214.422 247.798 213.234 248.677 211.461 249.556 209.687 249.996 207.433 249.996 204.699 249.996 202.058 249.558 199.865 248.683 198.119 247.808 196.373 246.453 195.199 244.617 194.597ZM212.457 193.695 212.774 194.597C210.946 195.199 209.592 196.373 208.713 198.119 207.834 199.865 207.395 202.058 207.395 204.699 207.395 207.433 207.834 209.687 208.713 211.461 209.592 213.234 210.934 214.422 212.739 215.023L212.457 215.926C210.168 215.324 208.414 214.029 207.196 212.041 205.977 210.053 205.368 207.644 205.368 204.816 205.368 201.996 205.979 199.588 207.202 197.592 208.424 195.596 210.176 194.297 212.457 193.695Z" fill-rule="evenodd"/><text font-family="Cambria Math,Cambria Math_MSFontService,sans-serif" font-weight="400" font-size="24" transform="translate(213.218 212)">𝑖</text><text font-family="Cambria Math,Cambria Math_MSFontService,sans-serif" font-weight="400" font-size="24" transform="translate(221.645 212)">,</text><text font-family="Cambria Math,Cambria Math_MSFontService,sans-serif" font-weight="400" font-size="24" transform="translate(230.645 212)">𝑏</text><text font-family="Cambria Math,Cambria Math_MSFontService,sans-serif" font-weight="400" font-size="24" transform="translate(260.798 212)">=</text><text font-family="Cambria Math,Cambria Math_MSFontService,sans-serif" font-weight="400" font-size="24" transform="translate(285.465 212)">0</text><text font-family="Cambria Math,Cambria Math_MSFontService,sans-serif" font-weight="400" font-size="24" transform="translate(298.798 212)">,</text><text font-family="Cambria Math,Cambria Math_MSFontService,sans-serif" font-weight="400" font-size="24" transform="translate(307.798 212)">𝑦</text><path d="M340.86 193.695C343.141 194.297 344.893 195.596 346.116 197.592 347.338 199.588 347.95 201.996 347.95 204.816 347.95 207.644 347.34 210.053 346.122 212.041 344.903 214.029 343.149 215.324 340.86 215.926L340.579 215.023C342.383 214.422 343.725 213.234 344.604 211.461 345.483 209.687 345.922 207.433 345.922 204.699 345.922 202.058 345.485 199.865 344.61 198.119 343.735 196.373 342.379 195.199 340.544 194.597ZM330.911 193.695 331.227 194.597C329.399 195.199 328.046 196.373 327.167 198.119 326.288 199.865 325.848 202.058 325.848 204.699 325.848 207.433 326.288 209.687 327.167 211.461 328.046 213.234 329.387 214.422 331.192 215.023L330.911 215.926C328.622 215.324 326.868 214.029 325.649 212.041 324.43 210.053 323.821 207.644 323.821 204.816 323.821 201.996 324.432 199.588 325.655 197.592 326.878 195.596 328.63 194.297 330.911 193.695Z" fill-rule="evenodd"/><text font-family="Cambria Math,Cambria Math_MSFontService,sans-serif" font-weight="400" font-size="24" transform="translate(331.672 212)">𝑖</text><text font-family="Cambria Math,Cambria Math_MSFontService,sans-serif" font-weight="400" font-size="24" transform="translate(356.725 212)">=</text><text font-family="Cambria Math,Cambria Math_MSFontService,sans-serif" font-weight="400" font-size="24" transform="translate(381.392 212)">1</text><text font-family="Cambria Math,Cambria Math_MSFontService,sans-serif" font-weight="400" font-size="24" transform="translate(394.725 212)">,</text><text font-family="Cambria Math,Cambria Math_MSFontService,sans-serif" font-weight="400" font-size="24" transform="translate(403.725 212)">𝑦</text><path d="M478.787 193.695C481.068 194.297 482.82 195.596 484.042 197.592 485.265 199.588 485.876 201.996 485.876 204.816 485.876 207.644 485.267 210.053 484.048 212.041 482.83 214.029 481.076 215.324 478.787 215.926L478.505 215.023C480.31 214.422 481.652 213.234 482.531 211.461 483.41 209.687 483.849 207.433 483.849 204.699 483.849 202.058 483.412 199.865 482.537 198.119 481.662 196.373 480.306 195.199 478.47 194.597ZM426.837 193.695 427.154 194.597C425.326 195.199 423.972 196.373 423.093 198.119 422.214 199.865 421.775 202.058 421.775 204.699 421.775 207.433 422.214 209.687 423.093 211.461 423.972 213.234 425.314 214.422 427.119 215.023L426.837 215.926C424.548 215.324 422.794 214.029 421.576 212.041 420.357 210.053 419.748 207.644 419.748 204.816 419.748 201.996 420.359 199.588 421.582 197.592 422.804 195.596 424.556 194.297 426.837 193.695Z" fill-rule="evenodd"/><text font-family="Cambria Math,Cambria Math_MSFontService,sans-serif" font-weight="400" font-size="24" transform="translate(427.598 212)">𝑖</text><text font-family="Cambria Math,Cambria Math_MSFontService,sans-serif" font-weight="400" font-size="24" transform="translate(441.358 212)">+</text><text font-family="Cambria Math,Cambria Math_MSFontService,sans-serif" font-weight="400" font-size="24" transform="translate(464.692 212)">1</text><text font-family="Cambria Math,Cambria Math_MSFontService,sans-serif" font-weight="400" font-size="24" transform="translate(494.652 212)">=</text><text font-family="Cambria Math,Cambria Math_MSFontService,sans-serif" font-weight="400" font-size="24" transform="translate(519.318 212)">0</text><text font-family="Cambria Math,Cambria Math_MSFontService,sans-serif" font-weight="400" font-size="24" transform="translate(532.652 212)">,</text><text font-family="Cambria Math,Cambria Math_MSFontService,sans-serif" font-weight="400" font-size="24" transform="translate(541.652 212)">𝑧</text><path d="M578.18 193.695C580.461 194.297 582.213 195.596 583.436 197.592 584.658 199.588 585.27 201.996 585.27 204.816 585.27 207.644 584.66 210.053 583.442 212.041 582.223 214.029 580.469 215.324 578.18 215.926L577.899 215.023C579.703 214.422 581.045 213.234 581.924 211.461 582.803 209.687 583.242 207.433 583.242 204.699 583.242 202.058 582.805 199.865 581.93 198.119 581.055 196.373 579.699 195.199 577.864 194.597ZM562.931 193.695 563.247 194.597C561.419 195.199 560.066 196.373 559.187 198.119 558.308 199.865 557.868 202.058 557.868 204.699 557.868 207.433 558.308 209.687 559.187 211.461 560.066 213.234 561.407 214.422 563.212 215.023L562.931 215.926C560.642 215.324 558.888 214.029 557.669 212.041 556.45 210.053 555.841 207.644 555.841 204.816 555.841 201.996 556.452 199.588 557.675 197.592 558.898 195.596 560.65 194.297 562.931 193.695Z" fill-rule="evenodd"/><text font-family="Cambria Math,Cambria Math_MSFontService,sans-serif" font-weight="400" font-size="24" transform="translate(563.692 212)">𝑞</text><text font-family="Cambria Math,Cambria Math_MSFontService,sans-serif" font-weight="400" font-size="24" transform="translate(594.045 212)">=</text><text font-family="Cambria Math,Cambria Math_MSFontService,sans-serif" font-weight="400" font-size="24" transform="translate(618.712 212)">1</text><text font-family="Cambria Math,Cambria Math_MSFontService,sans-serif" font-weight="400" font-size="24" transform="translate(632.045 212)">,</text><text font-family="Cambria Math,Cambria Math_MSFontService,sans-serif" font-weight="400" font-size="24" transform="translate(641.045 212)">𝑧</text><path d="M684.733 193.695C687.015 194.297 688.766 195.596 689.989 197.592 691.212 199.588 691.823 201.996 691.823 204.816 691.823 207.644 691.214 210.053 689.995 212.041 688.776 214.029 687.022 215.324 684.733 215.926L684.452 215.023C686.257 214.422 687.599 213.234 688.477 211.461 689.356 209.687 689.796 207.433 689.796 204.699 689.796 202.058 689.358 199.865 688.483 198.119 687.608 196.373 686.253 195.199 684.417 194.597ZM662.324 193.695 662.641 194.597C660.812 195.199 659.459 196.373 658.58 198.119 657.701 199.865 657.262 202.058 657.262 204.699 657.262 207.433 657.701 209.687 658.58 211.461 659.459 213.234 660.801 214.422 662.605 215.023L662.324 215.926C660.035 215.324 658.281 214.029 657.062 212.041 655.844 210.053 655.234 207.644 655.234 204.816 655.234 201.996 655.846 199.588 657.068 197.592 658.291 195.596 660.043 194.297 662.324 193.695Z" fill-rule="evenodd"/><text font-family="Cambria Math,Cambria Math_MSFontService,sans-serif" font-weight="400" font-size="24" transform="translate(663.085 212)">𝑞</text><text font-family="Cambria Math,Cambria Math_MSFontService,sans-serif" font-weight="400" font-size="17.52" transform="translate(676.812 203)">′</text><text font-family="Cambria Math,Cambria Math_MSFontService,sans-serif" font-weight="400" font-size="24" transform="translate(700.598 212)">=</text><text font-family="Cambria Math,Cambria Math_MSFontService,sans-serif" font-weight="400" font-size="24" transform="translate(725.265 212)">0</text><text font-family="Cambria Math,Cambria Math_MSFontService,sans-serif" font-weight="400" font-size="24" transform="translate(71.2049 674)">𝑥</text><path d="M126.833 656.134C129.115 656.735 130.866 658.034 132.089 660.03 133.312 662.026 133.923 664.434 133.923 667.255 133.923 670.083 133.314 672.491 132.095 674.479 130.876 676.468 129.122 677.762 126.833 678.364L126.552 677.462C128.357 676.86 129.699 675.673 130.577 673.899 131.456 672.126 131.896 669.872 131.896 667.137 131.896 664.497 131.458 662.303 130.583 660.557 129.708 658.811 128.353 657.637 126.517 657.036ZM93.9641 656.134 94.2805 657.036C92.4524 657.637 91.0989 658.811 90.22 660.557 89.341 662.303 88.9016 664.497 88.9016 667.137 88.9016 669.872 89.341 672.126 90.22 673.899 91.0989 675.673 92.4407 676.86 94.2453 677.462L93.9641 678.364C91.675 677.762 89.9211 676.468 88.7024 674.479 87.4836 672.491 86.8743 670.083 86.8743 667.255 86.8743 664.434 87.4856 662.026 88.7082 660.03 89.9309 658.034 91.6828 656.735 93.9641 656.134Z" fill-rule="evenodd"/><text font-family="Cambria Math,Cambria Math_MSFontService,sans-serif" font-weight="400" font-size="24" transform="translate(94.7249 674)">𝑖</text><text font-family="Cambria Math,Cambria Math_MSFontService,sans-serif" font-weight="400" font-size="24" transform="translate(103.152 674)">,</text><text font-family="Cambria Math,Cambria Math_MSFontService,sans-serif" font-weight="400" font-size="24" transform="translate(112.152 674)">𝑎</text><text font-family="Cambria Math,Cambria Math_MSFontService,sans-serif" font-weight="400" font-size="24" transform="translate(142.698 674)">=</text><text font-family="Cambria Math,Cambria Math_MSFontService,sans-serif" font-weight="400" font-size="24" transform="translate(167.365 674)">0</text><text font-family="Cambria Math,Cambria Math_MSFontService,sans-serif" font-weight="400" font-size="24" transform="translate(180.698 674)">,</text><text font-family="Cambria Math,Cambria Math_MSFontService,sans-serif" font-weight="400" font-size="24" transform="translate(189.698 674)">𝑥</text><path d="M244.933 656.134C247.215 656.735 248.966 658.034 250.189 660.03 251.412 662.026 252.023 664.434 252.023 667.255 252.023 670.083 251.414 672.491 250.195 674.479 248.976 676.468 247.222 677.762 244.933 678.364L244.652 677.462C246.457 676.86 247.798 675.673 248.677 673.899 249.556 672.126 249.996 669.872 249.996 667.137 249.996 664.497 249.558 662.303 248.683 660.557 247.808 658.811 246.453 657.637 244.617 657.036ZM212.457 656.134 212.774 657.036C210.946 657.637 209.592 658.811 208.713 660.557 207.834 662.303 207.395 664.497 207.395 667.137 207.395 669.872 207.834 672.126 208.713 673.899 209.592 675.673 210.934 676.86 212.739 677.462L212.457 678.364C210.168 677.762 208.414 676.468 207.196 674.479 205.977 672.491 205.368 670.083 205.368 667.255 205.368 664.434 205.979 662.026 207.202 660.03 208.424 658.034 210.176 656.735 212.457 656.134Z" fill-rule="evenodd"/><text font-family="Cambria Math,Cambria Math_MSFontService,sans-serif" font-weight="400" font-size="24" transform="translate(213.218 674)">𝑖</text><text font-family="Cambria Math,Cambria Math_MSFontService,sans-serif" font-weight="400" font-size="24" transform="translate(221.645 674)">,</text><text font-family="Cambria Math,Cambria Math_MSFontService,sans-serif" font-weight="400" font-size="24" transform="translate(230.645 674)">𝑏</text><text font-family="Cambria Math,Cambria Math_MSFontService,sans-serif" font-weight="400" font-size="24" transform="translate(260.798 674)">=</text><text font-family="Cambria Math,Cambria Math_MSFontService,sans-serif" font-weight="400" font-size="24" transform="translate(285.465 674)">1</text><text font-family="Cambria Math,Cambria Math_MSFontService,sans-serif" font-weight="400" font-size="24" transform="translate(298.798 674)">,</text><text font-family="Cambria Math,Cambria Math_MSFontService,sans-serif" font-weight="400" font-size="24" transform="translate(307.798 674)">𝑦</text><path d="M340.86 656.134C343.141 656.735 344.893 658.034 346.116 660.03 347.338 662.026 347.95 664.434 347.95 667.255 347.95 670.083 347.34 672.491 346.122 674.479 344.903 676.468 343.149 677.762 340.86 678.364L340.579 677.462C342.383 676.86 343.725 675.673 344.604 673.899 345.483 672.126 345.922 669.872 345.922 667.137 345.922 664.497 345.485 662.303 344.61 660.557 343.735 658.811 342.379 657.637 340.544 657.036ZM330.911 656.134 331.227 657.036C329.399 657.637 328.046 658.811 327.167 660.557 326.288 662.303 325.848 664.497 325.848 667.137 325.848 669.872 326.288 672.126 327.167 673.899 328.046 675.673 329.387 676.86 331.192 677.462L330.911 678.364C328.622 677.762 326.868 676.468 325.649 674.479 324.43 672.491 323.821 670.083 323.821 667.255 323.821 664.434 324.432 662.026 325.655 660.03 326.878 658.034 328.63 656.735 330.911 656.134Z" fill-rule="evenodd"/><text font-family="Cambria Math,Cambria Math_MSFontService,sans-serif" font-weight="400" font-size="24" transform="translate(331.672 674)">𝑖</text><text font-family="Cambria Math,Cambria Math_MSFontService,sans-serif" font-weight="400" font-size="24" transform="translate(356.725 674)">=</text><text font-family="Cambria Math,Cambria Math_MSFontService,sans-serif" font-weight="400" font-size="24" transform="translate(381.392 674)">0</text><text font-family="Cambria Math,Cambria Math_MSFontService,sans-serif" font-weight="400" font-size="24" transform="translate(394.725 674)">,</text><text font-family="Cambria Math,Cambria Math_MSFontService,sans-serif" font-weight="400" font-size="24" transform="translate(403.725 674)">𝑦</text><path d="M478.787 656.134C481.068 656.735 482.82 658.034 484.042 660.03 485.265 662.026 485.876 664.434 485.876 667.255 485.876 670.083 485.267 672.491 484.048 674.479 482.83 676.468 481.076 677.762 478.787 678.364L478.505 677.462C480.31 676.86 481.652 675.673 482.531 673.899 483.41 672.126 483.849 669.872 483.849 667.137 483.849 664.497 483.412 662.303 482.537 660.557 481.662 658.811 480.306 657.637 478.47 657.036ZM426.837 656.134 427.154 657.036C425.326 657.637 423.972 658.811 423.093 660.557 422.214 662.303 421.775 664.497 421.775 667.137 421.775 669.872 422.214 672.126 423.093 673.899 423.972 675.673 425.314 676.86 427.119 677.462L426.837 678.364C424.548 677.762 422.794 676.468 421.576 674.479 420.357 672.491 419.748 670.083 419.748 667.255 419.748 664.434 420.359 662.026 421.582 660.03 422.804 658.034 424.556 656.735 426.837 656.134Z" fill-rule="evenodd"/><text font-family="Cambria Math,Cambria Math_MSFontService,sans-serif" font-weight="400" font-size="24" transform="translate(427.598 674)">𝑖</text><text font-family="Cambria Math,Cambria Math_MSFontService,sans-serif" font-weight="400" font-size="24" transform="translate(441.358 674)">+</text><text font-family="Cambria Math,Cambria Math_MSFontService,sans-serif" font-weight="400" font-size="24" transform="translate(464.692 674)">1</text><text font-family="Cambria Math,Cambria Math_MSFontService,sans-serif" font-weight="400" font-size="24" transform="translate(494.652 674)">=</text><text font-family="Cambria Math,Cambria Math_MSFontService,sans-serif" font-weight="400" font-size="24" transform="translate(519.318 674)">1</text><text font-family="Cambria Math,Cambria Math_MSFontService,sans-serif" font-weight="400" font-size="24" transform="translate(532.652 674)">,</text><text font-family="Cambria Math,Cambria Math_MSFontService,sans-serif" font-weight="400" font-size="24" transform="translate(541.652 674)">𝑧</text><path d="M578.18 656.134C580.461 656.735 582.213 658.034 583.436 660.03 584.658 662.026 585.27 664.434 585.27 667.255 585.27 670.083 584.66 672.491 583.442 674.479 582.223 676.468 580.469 677.762 578.18 678.364L577.899 677.462C579.703 676.86 581.045 675.673 581.924 673.899 582.803 672.126 583.242 669.872 583.242 667.137 583.242 664.497 582.805 662.303 581.93 660.557 581.055 658.811 579.699 657.637 577.864 657.036ZM562.931 656.134 563.247 657.036C561.419 657.637 560.066 658.811 559.187 660.557 558.308 662.303 557.868 664.497 557.868 667.137 557.868 669.872 558.308 672.126 559.187 673.899 560.066 675.673 561.407 676.86 563.212 677.462L562.931 678.364C560.642 677.762 558.888 676.468 557.669 674.479 556.45 672.491 555.841 670.083 555.841 667.255 555.841 664.434 556.452 662.026 557.675 660.03 558.898 658.034 560.65 656.735 562.931 656.134Z" fill-rule="evenodd"/><text font-family="Cambria Math,Cambria Math_MSFontService,sans-serif" font-weight="400" font-size="24" transform="translate(563.692 674)">𝑞</text><text font-family="Cambria Math,Cambria Math_MSFontService,sans-serif" font-weight="400" font-size="24" transform="translate(594.045 674)">=</text><text font-family="Cambria Math,Cambria Math_MSFontService,sans-serif" font-weight="400" font-size="24" transform="translate(618.712 674)">0</text><text font-family="Cambria Math,Cambria Math_MSFontService,sans-serif" font-weight="400" font-size="24" transform="translate(632.045 674)">,</text><text font-family="Cambria Math,Cambria Math_MSFontService,sans-serif" font-weight="400" font-size="24" transform="translate(641.045 674)">𝑧</text><path d="M684.733 656.134C687.015 656.735 688.766 658.034 689.989 660.03 691.212 662.026 691.823 664.434 691.823 667.255 691.823 670.083 691.214 672.491 689.995 674.479 688.776 676.468 687.022 677.762 684.733 678.364L684.452 677.462C686.257 676.86 687.599 675.673 688.477 673.899 689.356 672.126 689.796 669.872 689.796 667.137 689.796 664.497 689.358 662.303 688.483 660.557 687.608 658.811 686.253 657.637 684.417 657.036ZM662.324 656.134 662.641 657.036C660.812 657.637 659.459 658.811 658.58 660.557 657.701 662.303 657.262 664.497 657.262 667.137 657.262 669.872 657.701 672.126 658.58 673.899 659.459 675.673 660.801 676.86 662.605 677.462L662.324 678.364C660.035 677.762 658.281 676.468 657.062 674.479 655.844 672.491 655.234 670.083 655.234 667.255 655.234 664.434 655.846 662.026 657.068 660.03 658.291 658.034 660.043 656.735 662.324 656.134Z" fill-rule="evenodd"/><text font-family="Cambria Math,Cambria Math_MSFontService,sans-serif" font-weight="400" font-size="24" transform="translate(663.085 674)">𝑞</text><text font-family="Cambria Math,Cambria Math_MSFontService,sans-serif" font-weight="400" font-size="17.52" transform="translate(676.812 665)">′</text><text font-family="Cambria Math,Cambria Math_MSFontService,sans-serif" font-weight="400" font-size="24" transform="translate(700.598 674)">=</text><text font-family="Cambria Math,Cambria Math_MSFontService,sans-serif" font-weight="400" font-size="24" transform="translate(725.265 674)">1</text><text font-family="Cambria Math,Cambria Math_MSFontService,sans-serif" font-weight="400" font-size="24" transform="translate(71.2049 284)">𝑥</text><path d="M126.833 266.049C129.115 266.651 130.866 267.95 132.089 269.946 133.312 271.942 133.923 274.35 133.923 277.17 133.923 279.998 133.314 282.407 132.095 284.395 130.876 286.383 129.122 287.678 126.833 288.28L126.552 287.377C128.357 286.776 129.699 285.588 130.577 283.815 131.456 282.041 131.896 279.787 131.896 277.053 131.896 274.412 131.458 272.219 130.583 270.473 129.708 268.727 128.353 267.553 126.517 266.951ZM93.9641 266.049 94.2805 266.951C92.4524 267.553 91.0989 268.727 90.22 270.473 89.341 272.219 88.9016 274.412 88.9016 277.053 88.9016 279.787 89.341 282.041 90.22 283.815 91.0989 285.588 92.4407 286.776 94.2453 287.377L93.9641 288.28C91.675 287.678 89.9211 286.383 88.7024 284.395 87.4836 282.407 86.8743 279.998 86.8743 277.17 86.8743 274.35 87.4856 271.942 88.7082 269.946 89.9309 267.95 91.6828 266.651 93.9641 266.049Z" fill-rule="evenodd"/><text font-family="Cambria Math,Cambria Math_MSFontService,sans-serif" font-weight="400" font-size="24" transform="translate(94.7249 284)">𝑖</text><text font-family="Cambria Math,Cambria Math_MSFontService,sans-serif" font-weight="400" font-size="24" transform="translate(103.152 284)">,</text><text font-family="Cambria Math,Cambria Math_MSFontService,sans-serif" font-weight="400" font-size="24" transform="translate(112.152 284)">𝑎</text><text font-family="Cambria Math,Cambria Math_MSFontService,sans-serif" font-weight="400" font-size="24" transform="translate(142.698 284)">=</text><text font-family="Cambria Math,Cambria Math_MSFontService,sans-serif" font-weight="400" font-size="24" transform="translate(167.365 284)">1</text><text font-family="Cambria Math,Cambria Math_MSFontService,sans-serif" font-weight="400" font-size="24" transform="translate(180.698 284)">,</text><text font-family="Cambria Math,Cambria Math_MSFontService,sans-serif" font-weight="400" font-size="24" transform="translate(189.698 284)">𝑥</text><path d="M244.933 266.049C247.215 266.651 248.966 267.95 250.189 269.946 251.412 271.942 252.023 274.35 252.023 277.17 252.023 279.998 251.414 282.407 250.195 284.395 248.976 286.383 247.222 287.678 244.933 288.28L244.652 287.377C246.457 286.776 247.798 285.588 248.677 283.815 249.556 282.041 249.996 279.787 249.996 277.053 249.996 274.412 249.558 272.219 248.683 270.473 247.808 268.727 246.453 267.553 244.617 266.951ZM212.457 266.049 212.774 266.951C210.946 267.553 209.592 268.727 208.713 270.473 207.834 272.219 207.395 274.412 207.395 277.053 207.395 279.787 207.834 282.041 208.713 283.815 209.592 285.588 210.934 286.776 212.739 287.377L212.457 288.28C210.168 287.678 208.414 286.383 207.196 284.395 205.977 282.407 205.368 279.998 205.368 277.17 205.368 274.35 205.979 271.942 207.202 269.946 208.424 267.95 210.176 266.651 212.457 266.049Z" fill-rule="evenodd"/><text font-family="Cambria Math,Cambria Math_MSFontService,sans-serif" font-weight="400" font-size="24" transform="translate(213.218 284)">𝑖</text><text font-family="Cambria Math,Cambria Math_MSFontService,sans-serif" font-weight="400" font-size="24" transform="translate(221.645 284)">,</text><text font-family="Cambria Math,Cambria Math_MSFontService,sans-serif" font-weight="400" font-size="24" transform="translate(230.645 284)">𝑏</text><text font-family="Cambria Math,Cambria Math_MSFontService,sans-serif" font-weight="400" font-size="24" transform="translate(260.798 284)">=</text><text fill="#FF0000" font-family="Cambria Math,Cambria Math_MSFontService,sans-serif" font-weight="400" font-size="24" transform="translate(285.465 284)">1</text><text font-family="Cambria Math,Cambria Math_MSFontService,sans-serif" font-weight="400" font-size="24" transform="translate(298.798 284)">,</text><text font-family="Cambria Math,Cambria Math_MSFontService,sans-serif" font-weight="400" font-size="24" transform="translate(307.798 284)">𝑦</text><path d="M340.86 266.049C343.141 266.651 344.893 267.95 346.116 269.946 347.338 271.942 347.95 274.35 347.95 277.17 347.95 279.998 347.34 282.407 346.122 284.395 344.903 286.383 343.149 287.678 340.86 288.28L340.579 287.377C342.383 286.776 343.725 285.588 344.604 283.815 345.483 282.041 345.922 279.787 345.922 277.053 345.922 274.412 345.485 272.219 344.61 270.473 343.735 268.727 342.379 267.553 340.544 266.951ZM330.911 266.049 331.227 266.951C329.399 267.553 328.046 268.727 327.167 270.473 326.288 272.219 325.848 274.412 325.848 277.053 325.848 279.787 326.288 282.041 327.167 283.815 328.046 285.588 329.387 286.776 331.192 287.377L330.911 288.28C328.622 287.678 326.868 286.383 325.649 284.395 324.43 282.407 323.821 279.998 323.821 277.17 323.821 274.35 324.432 271.942 325.655 269.946 326.878 267.95 328.63 266.651 330.911 266.049Z" fill-rule="evenodd"/><text font-family="Cambria Math,Cambria Math_MSFontService,sans-serif" font-weight="400" font-size="24" transform="translate(331.672 284)">𝑖</text><text font-family="Cambria Math,Cambria Math_MSFontService,sans-serif" font-weight="400" font-size="24" transform="translate(356.725 284)">=</text><text font-family="Cambria Math,Cambria Math_MSFontService,sans-serif" font-weight="400" font-size="24" transform="translate(381.392 284)">1</text><text font-family="Cambria Math,Cambria Math_MSFontService,sans-serif" font-weight="400" font-size="24" transform="translate(394.725 284)">,</text><text font-family="Cambria Math,Cambria Math_MSFontService,sans-serif" font-weight="400" font-size="24" transform="translate(403.725 284)">𝑦</text><path d="M478.787 266.049C481.068 266.651 482.82 267.95 484.042 269.946 485.265 271.942 485.876 274.35 485.876 277.17 485.876 279.998 485.267 282.407 484.048 284.395 482.83 286.383 481.076 287.678 478.787 288.28L478.505 287.377C480.31 286.776 481.652 285.588 482.531 283.815 483.41 282.041 483.849 279.787 483.849 277.053 483.849 274.412 483.412 272.219 482.537 270.473 481.662 268.727 480.306 267.553 478.47 266.951ZM426.837 266.049 427.154 266.951C425.326 267.553 423.972 268.727 423.093 270.473 422.214 272.219 421.775 274.412 421.775 277.053 421.775 279.787 422.214 282.041 423.093 283.815 423.972 285.588 425.314 286.776 427.119 287.377L426.837 288.28C424.548 287.678 422.794 286.383 421.576 284.395 420.357 282.407 419.748 279.998 419.748 277.17 419.748 274.35 420.359 271.942 421.582 269.946 422.804 267.95 424.556 266.651 426.837 266.049Z" fill-rule="evenodd"/><text font-family="Cambria Math,Cambria Math_MSFontService,sans-serif" font-weight="400" font-size="24" transform="translate(427.598 284)">𝑖</text><text font-family="Cambria Math,Cambria Math_MSFontService,sans-serif" font-weight="400" font-size="24" transform="translate(441.358 284)">+</text><text font-family="Cambria Math,Cambria Math_MSFontService,sans-serif" font-weight="400" font-size="24" transform="translate(464.692 284)">1</text><text font-family="Cambria Math,Cambria Math_MSFontService,sans-serif" font-weight="400" font-size="24" transform="translate(494.652 284)">=</text><text font-family="Cambria Math,Cambria Math_MSFontService,sans-serif" font-weight="400" font-size="24" transform="translate(519.318 284)">0</text><text font-family="Cambria Math,Cambria Math_MSFontService,sans-serif" font-weight="400" font-size="24" transform="translate(532.652 284)">,</text><text font-family="Cambria Math,Cambria Math_MSFontService,sans-serif" font-weight="400" font-size="24" transform="translate(541.652 284)">𝑧</text><path d="M578.18 266.049C580.461 266.651 582.213 267.95 583.436 269.946 584.658 271.942 585.27 274.35 585.27 277.17 585.27 279.998 584.66 282.407 583.442 284.395 582.223 286.383 580.469 287.678 578.18 288.28L577.899 287.377C579.703 286.776 581.045 285.588 581.924 283.815 582.803 282.041 583.242 279.787 583.242 277.053 583.242 274.412 582.805 272.219 581.93 270.473 581.055 268.727 579.699 267.553 577.864 266.951ZM562.931 266.049 563.247 266.951C561.419 267.553 560.066 268.727 559.187 270.473 558.308 272.219 557.868 274.412 557.868 277.053 557.868 279.787 558.308 282.041 559.187 283.815 560.066 285.588 561.407 286.776 563.212 287.377L562.931 288.28C560.642 287.678 558.888 286.383 557.669 284.395 556.45 282.407 555.841 279.998 555.841 277.17 555.841 274.35 556.452 271.942 557.675 269.946 558.898 267.95 560.65 266.651 562.931 266.049Z" fill-rule="evenodd"/><text font-family="Cambria Math,Cambria Math_MSFontService,sans-serif" font-weight="400" font-size="24" transform="translate(563.692 284)">𝑞</text><text font-family="Cambria Math,Cambria Math_MSFontService,sans-serif" font-weight="400" font-size="24" transform="translate(594.045 284)">=</text><text font-family="Cambria Math,Cambria Math_MSFontService,sans-serif" font-weight="400" font-size="24" transform="translate(618.712 284)">1</text><text font-family="Cambria Math,Cambria Math_MSFontService,sans-serif" font-weight="400" font-size="24" transform="translate(632.045 284)">,</text><text font-family="Cambria Math,Cambria Math_MSFontService,sans-serif" font-weight="400" font-size="24" transform="translate(641.045 284)">𝑧</text><path d="M684.733 266.049C687.015 266.651 688.766 267.95 689.989 269.946 691.212 271.942 691.823 274.35 691.823 277.17 691.823 279.998 691.214 282.407 689.995 284.395 688.776 286.383 687.022 287.678 684.733 288.28L684.452 287.377C686.257 286.776 687.599 285.588 688.477 283.815 689.356 282.041 689.796 279.787 689.796 277.053 689.796 274.412 689.358 272.219 688.483 270.473 687.608 268.727 686.253 267.553 684.417 266.951ZM662.324 266.049 662.641 266.951C660.812 267.553 659.459 268.727 658.58 270.473 657.701 272.219 657.262 274.412 657.262 277.053 657.262 279.787 657.701 282.041 658.58 283.815 659.459 285.588 660.801 286.776 662.605 287.377L662.324 288.28C660.035 287.678 658.281 286.383 657.062 284.395 655.844 282.407 655.234 279.998 655.234 277.17 655.234 274.35 655.846 271.942 657.068 269.946 658.291 267.95 660.043 266.651 662.324 266.049Z" fill-rule="evenodd"/><text font-family="Cambria Math,Cambria Math_MSFontService,sans-serif" font-weight="400" font-size="24" transform="translate(663.085 284)">𝑞</text><text font-family="Cambria Math,Cambria Math_MSFontService,sans-serif" font-weight="400" font-size="17.52" transform="translate(676.812 275)">′</text><text font-family="Cambria Math,Cambria Math_MSFontService,sans-serif" font-weight="400" font-size="24" transform="translate(700.598 284)">=</text><text font-family="Cambria Math,Cambria Math_MSFontService,sans-serif" font-weight="400" font-size="24" transform="translate(725.265 284)">0</text><text font-family="Cambria Math,Cambria Math_MSFontService,sans-serif" font-weight="400" font-size="24" transform="translate(734.151 133)">𝑡</text><path d="M809.033 115.501C811.314 116.103 813.066 117.401 814.289 119.398 815.511 121.394 816.123 123.802 816.123 126.622 816.123 129.45 815.513 131.859 814.295 133.847 813.076 135.835 811.322 137.13 809.033 137.732L808.752 136.829C810.556 136.228 811.898 135.04 812.777 133.267 813.656 131.493 814.095 129.239 814.095 126.505 814.095 123.864 813.658 121.671 812.783 119.925 811.908 118.179 810.552 117.005 808.716 116.403ZM753.437 115.501 753.753 116.403C751.925 117.005 750.572 118.179 749.693 119.925 748.814 121.671 748.375 123.864 748.375 126.505 748.375 129.239 748.814 131.493 749.693 133.267 750.572 135.04 751.914 136.228 753.718 136.829L753.437 137.732C751.148 137.13 749.394 135.835 748.175 133.847 746.957 131.859 746.347 129.45 746.347 126.622 746.347 123.802 746.959 121.394 748.181 119.398 749.404 117.401 751.156 116.103 753.437 115.501Z" fill-rule="evenodd"/><text font-family="Cambria Math,Cambria Math_MSFontService,sans-serif" font-weight="400" font-size="24" transform="translate(754.198 133)">𝑖</text><text font-family="Cambria Math,Cambria Math_MSFontService,sans-serif" font-weight="400" font-size="24" transform="translate(762.625 133)">,</text><text font-family="Cambria Math,Cambria Math_MSFontService,sans-serif" font-weight="400" font-size="24" transform="translate(771.625 133)">𝑞</text><text font-family="Cambria Math,Cambria Math_MSFontService,sans-serif" font-weight="400" font-size="24" transform="translate(785.351 133)">,</text><text font-family="Cambria Math,Cambria Math_MSFontService,sans-serif" font-weight="400" font-size="24" transform="translate(794.351 133)">𝑎</text><text font-family="Cambria Math,Cambria Math_MSFontService,sans-serif" font-weight="400" font-size="24" transform="translate(824.898 133)">=</text><text font-family="Cambria Math,Cambria Math_MSFontService,sans-serif" font-weight="400" font-size="24" transform="translate(849.565 133)">1</text><text font-family="Source Han Sans JP Medium,Source Han Sans JP Medium_MSFontService,sans-serif" font-weight="500" font-size="24" transform="translate(646.778 161)">The other values of</text><text font-family="Cambria Math,Cambria Math_MSFontService,sans-serif" font-weight="400" font-size="24" transform="translate(869.125 161)">𝑡</text><text font-family="Source Han Sans JP Medium,Source Han Sans JP Medium_MSFontService,sans-serif" font-weight="500" font-size="24" transform="translate(884.544 161)">are</text><text font-family="Cambria Math,Cambria Math_MSFontService,sans-serif" font-weight="400" font-size="24" transform="translate(926.778 161)">0</text><text font-family="Source Han Sans JP Medium,Source Han Sans JP Medium_MSFontService,sans-serif" font-weight="500" font-size="24" transform="translate(940.111 161)">.</text><path d="M292 223 292 252.815 290 252.815 290 223ZM295 251.481 291 259.481 287 251.481Z" fill="#5B9BD5"/><text font-family="Source Han Sans JP Medium,Source Han Sans JP Medium_MSFontService,sans-serif" font-weight="500" font-size="24" transform="translate(204.453 248)">we flip</text><text font-family="Cambria Math,Cambria Math_MSFontService,sans-serif" font-weight="400" font-size="24" transform="translate(71.2049 353)">𝑥</text><path d="M126.833 335.397C129.115 335.999 130.866 337.298 132.089 339.294 133.312 341.29 133.923 343.698 133.923 346.519 133.923 349.347 133.314 351.755 132.095 353.743 130.876 355.731 129.122 357.026 126.833 357.628L126.552 356.726C128.357 356.124 129.699 354.937 130.577 353.163 131.456 351.39 131.896 349.136 131.896 346.401 131.896 343.761 131.458 341.567 130.583 339.821 129.708 338.075 128.353 336.901 126.517 336.3ZM93.9641 335.397 94.2805 336.3C92.4524 336.901 91.0989 338.075 90.22 339.821 89.341 341.567 88.9016 343.761 88.9016 346.401 88.9016 349.136 89.341 351.39 90.22 353.163 91.0989 354.937 92.4407 356.124 94.2453 356.726L93.9641 357.628C91.675 357.026 89.9211 355.731 88.7024 353.743 87.4836 351.755 86.8743 349.347 86.8743 346.519 86.8743 343.698 87.4856 341.29 88.7082 339.294 89.9309 337.298 91.6828 335.999 93.9641 335.397Z" fill-rule="evenodd"/><text font-family="Cambria Math,Cambria Math_MSFontService,sans-serif" font-weight="400" font-size="24" transform="translate(94.7249 353)">𝑖</text><text font-family="Cambria Math,Cambria Math_MSFontService,sans-serif" font-weight="400" font-size="24" transform="translate(103.152 353)">,</text><text font-family="Cambria Math,Cambria Math_MSFontService,sans-serif" font-weight="400" font-size="24" transform="translate(112.152 353)">𝑎</text><text font-family="Cambria Math,Cambria Math_MSFontService,sans-serif" font-weight="400" font-size="24" transform="translate(142.698 353)">=</text><text fill="#FF0000" font-family="Cambria Math,Cambria Math_MSFontService,sans-serif" font-weight="400" font-size="24" transform="translate(167.365 353)">0</text><text font-family="Cambria Math,Cambria Math_MSFontService,sans-serif" font-weight="400" font-size="24" transform="translate(180.698 353)">,</text><text font-family="Cambria Math,Cambria Math_MSFontService,sans-serif" font-weight="400" font-size="24" transform="translate(189.698 353)">𝑥</text><path d="M244.933 335.397C247.215 335.999 248.966 337.298 250.189 339.294 251.412 341.29 252.023 343.698 252.023 346.519 252.023 349.347 251.414 351.755 250.195 353.743 248.976 355.731 247.222 357.026 244.933 357.628L244.652 356.726C246.457 356.124 247.798 354.937 248.677 353.163 249.556 351.39 249.996 349.136 249.996 346.401 249.996 343.761 249.558 341.567 248.683 339.821 247.808 338.075 246.453 336.901 244.617 336.3ZM212.457 335.397 212.774 336.3C210.946 336.901 209.592 338.075 208.713 339.821 207.834 341.567 207.395 343.761 207.395 346.401 207.395 349.136 207.834 351.39 208.713 353.163 209.592 354.937 210.934 356.124 212.739 356.726L212.457 357.628C210.168 357.026 208.414 355.731 207.196 353.743 205.977 351.755 205.368 349.347 205.368 346.519 205.368 343.698 205.979 341.29 207.202 339.294 208.424 337.298 210.176 335.999 212.457 335.397Z" fill-rule="evenodd"/><text font-family="Cambria Math,Cambria Math_MSFontService,sans-serif" font-weight="400" font-size="24" transform="translate(213.218 353)">𝑖</text><text font-family="Cambria Math,Cambria Math_MSFontService,sans-serif" font-weight="400" font-size="24" transform="translate(221.645 353)">,</text><text font-family="Cambria Math,Cambria Math_MSFontService,sans-serif" font-weight="400" font-size="24" transform="translate(230.645 353)">𝑏</text><text font-family="Cambria Math,Cambria Math_MSFontService,sans-serif" font-weight="400" font-size="24" transform="translate(260.798 353)">=</text><text font-family="Cambria Math,Cambria Math_MSFontService,sans-serif" font-weight="400" font-size="24" transform="translate(285.465 353)">1</text><text font-family="Cambria Math,Cambria Math_MSFontService,sans-serif" font-weight="400" font-size="24" transform="translate(298.798 353)">,</text><text font-family="Cambria Math,Cambria Math_MSFontService,sans-serif" font-weight="400" font-size="24" transform="translate(307.798 353)">𝑦</text><path d="M340.86 335.397C343.141 335.999 344.893 337.298 346.116 339.294 347.338 341.29 347.95 343.698 347.95 346.519 347.95 349.347 347.34 351.755 346.122 353.743 344.903 355.731 343.149 357.026 340.86 357.628L340.579 356.726C342.383 356.124 343.725 354.937 344.604 353.163 345.483 351.39 345.922 349.136 345.922 346.401 345.922 343.761 345.485 341.567 344.61 339.821 343.735 338.075 342.379 336.901 340.544 336.3ZM330.911 335.397 331.227 336.3C329.399 336.901 328.046 338.075 327.167 339.821 326.288 341.567 325.848 343.761 325.848 346.401 325.848 349.136 326.288 351.39 327.167 353.163 328.046 354.937 329.387 356.124 331.192 356.726L330.911 357.628C328.622 357.026 326.868 355.731 325.649 353.743 324.43 351.755 323.821 349.347 323.821 346.519 323.821 343.698 324.432 341.29 325.655 339.294 326.878 337.298 328.63 335.999 330.911 335.397Z" fill-rule="evenodd"/><text font-family="Cambria Math,Cambria Math_MSFontService,sans-serif" font-weight="400" font-size="24" transform="translate(331.672 353)">𝑖</text><text font-family="Cambria Math,Cambria Math_MSFontService,sans-serif" font-weight="400" font-size="24" transform="translate(356.725 353)">=</text><text font-family="Cambria Math,Cambria Math_MSFontService,sans-serif" font-weight="400" font-size="24" transform="translate(381.392 353)">1</text><text font-family="Cambria Math,Cambria Math_MSFontService,sans-serif" font-weight="400" font-size="24" transform="translate(394.725 353)">,</text><text font-family="Cambria Math,Cambria Math_MSFontService,sans-serif" font-weight="400" font-size="24" transform="translate(403.725 353)">𝑦</text><path d="M478.787 335.397C481.068 335.999 482.82 337.298 484.042 339.294 485.265 341.29 485.876 343.698 485.876 346.519 485.876 349.347 485.267 351.755 484.048 353.743 482.83 355.731 481.076 357.026 478.787 357.628L478.505 356.726C480.31 356.124 481.652 354.937 482.531 353.163 483.41 351.39 483.849 349.136 483.849 346.401 483.849 343.761 483.412 341.567 482.537 339.821 481.662 338.075 480.306 336.901 478.47 336.3ZM426.837 335.397 427.154 336.3C425.326 336.901 423.972 338.075 423.093 339.821 422.214 341.567 421.775 343.761 421.775 346.401 421.775 349.136 422.214 351.39 423.093 353.163 423.972 354.937 425.314 356.124 427.119 356.726L426.837 357.628C424.548 357.026 422.794 355.731 421.576 353.743 420.357 351.755 419.748 349.347 419.748 346.519 419.748 343.698 420.359 341.29 421.582 339.294 422.804 337.298 424.556 335.999 426.837 335.397Z" fill-rule="evenodd"/><text font-family="Cambria Math,Cambria Math_MSFontService,sans-serif" font-weight="400" font-size="24" transform="translate(427.598 353)">𝑖</text><text font-family="Cambria Math,Cambria Math_MSFontService,sans-serif" font-weight="400" font-size="24" transform="translate(441.358 353)">+</text><text font-family="Cambria Math,Cambria Math_MSFontService,sans-serif" font-weight="400" font-size="24" transform="translate(464.692 353)">1</text><text font-family="Cambria Math,Cambria Math_MSFontService,sans-serif" font-weight="400" font-size="24" transform="translate(494.652 353)">=</text><text font-family="Cambria Math,Cambria Math_MSFontService,sans-serif" font-weight="400" font-size="24" transform="translate(519.318 353)">0</text><text font-family="Cambria Math,Cambria Math_MSFontService,sans-serif" font-weight="400" font-size="24" transform="translate(532.652 353)">,</text><text font-family="Cambria Math,Cambria Math_MSFontService,sans-serif" font-weight="400" font-size="24" transform="translate(541.652 353)">𝑧</text><path d="M578.18 335.397C580.461 335.999 582.213 337.298 583.436 339.294 584.658 341.29 585.27 343.698 585.27 346.519 585.27 349.347 584.66 351.755 583.442 353.743 582.223 355.731 580.469 357.026 578.18 357.628L577.899 356.726C579.703 356.124 581.045 354.937 581.924 353.163 582.803 351.39 583.242 349.136 583.242 346.401 583.242 343.761 582.805 341.567 581.93 339.821 581.055 338.075 579.699 336.901 577.864 336.3ZM562.931 335.397 563.247 336.3C561.419 336.901 560.066 338.075 559.187 339.821 558.308 341.567 557.868 343.761 557.868 346.401 557.868 349.136 558.308 351.39 559.187 353.163 560.066 354.937 561.407 356.124 563.212 356.726L562.931 357.628C560.642 357.026 558.888 355.731 557.669 353.743 556.45 351.755 555.841 349.347 555.841 346.519 555.841 343.698 556.452 341.29 557.675 339.294 558.898 337.298 560.65 335.999 562.931 335.397Z" fill-rule="evenodd"/><text font-family="Cambria Math,Cambria Math_MSFontService,sans-serif" font-weight="400" font-size="24" transform="translate(563.692 353)">𝑞</text><text font-family="Cambria Math,Cambria Math_MSFontService,sans-serif" font-weight="400" font-size="24" transform="translate(594.045 353)">=</text><text font-family="Cambria Math,Cambria Math_MSFontService,sans-serif" font-weight="400" font-size="24" transform="translate(618.712 353)">1</text><text font-family="Cambria Math,Cambria Math_MSFontService,sans-serif" font-weight="400" font-size="24" transform="translate(632.045 353)">,</text><text font-family="Cambria Math,Cambria Math_MSFontService,sans-serif" font-weight="400" font-size="24" transform="translate(641.045 353)">𝑧</text><path d="M684.733 335.397C687.015 335.999 688.766 337.298 689.989 339.294 691.212 341.29 691.823 343.698 691.823 346.519 691.823 349.347 691.214 351.755 689.995 353.743 688.776 355.731 687.022 357.026 684.733 357.628L684.452 356.726C686.257 356.124 687.599 354.937 688.477 353.163 689.356 351.39 689.796 349.136 689.796 346.401 689.796 343.761 689.358 341.567 688.483 339.821 687.608 338.075 686.253 336.901 684.417 336.3ZM662.324 335.397 662.641 336.3C660.812 336.901 659.459 338.075 658.58 339.821 657.701 341.567 657.262 343.761 657.262 346.401 657.262 349.136 657.701 351.39 658.58 353.163 659.459 354.937 660.801 356.124 662.605 356.726L662.324 357.628C660.035 357.026 658.281 355.731 657.062 353.743 655.844 351.755 655.234 349.347 655.234 346.519 655.234 343.698 655.846 341.29 657.068 339.294 658.291 337.298 660.043 335.999 662.324 335.397Z" fill-rule="evenodd"/><text font-family="Cambria Math,Cambria Math_MSFontService,sans-serif" font-weight="400" font-size="24" transform="translate(663.085 353)">𝑞</text><text font-family="Cambria Math,Cambria Math_MSFontService,sans-serif" font-weight="400" font-size="17.52" transform="translate(676.812 345)">′</text><text font-family="Cambria Math,Cambria Math_MSFontService,sans-serif" font-weight="400" font-size="24" transform="translate(700.598 353)">=</text><text font-family="Cambria Math,Cambria Math_MSFontService,sans-serif" font-weight="400" font-size="24" transform="translate(725.265 353)">0</text><text font-family="Cambria Math,Cambria Math_MSFontService,sans-serif" font-weight="400" font-size="24" transform="translate(71.2049 423)">𝑥</text><path d="M126.833 404.663C129.115 405.265 130.866 406.564 132.089 408.56 133.312 410.556 133.923 412.964 133.923 415.784 133.923 418.613 133.314 421.021 132.095 423.009 130.876 424.997 129.122 426.292 126.833 426.894L126.552 425.991C128.357 425.39 129.699 424.202 130.577 422.429 131.456 420.656 131.896 418.402 131.896 415.667 131.896 413.027 131.458 410.833 130.583 409.087 129.708 407.341 128.353 406.167 126.517 405.566ZM93.9641 404.663 94.2805 405.566C92.4524 406.167 91.0989 407.341 90.22 409.087 89.341 410.833 88.9016 413.027 88.9016 415.667 88.9016 418.402 89.341 420.656 90.22 422.429 91.0989 424.202 92.4407 425.39 94.2453 425.991L93.9641 426.894C91.675 426.292 89.9211 424.997 88.7024 423.009 87.4836 421.021 86.8743 418.613 86.8743 415.784 86.8743 412.964 87.4856 410.556 88.7082 408.56 89.9309 406.564 91.6828 405.265 93.9641 404.663Z" fill-rule="evenodd"/><text font-family="Cambria Math,Cambria Math_MSFontService,sans-serif" font-weight="400" font-size="24" transform="translate(94.7249 423)">𝑖</text><text font-family="Cambria Math,Cambria Math_MSFontService,sans-serif" font-weight="400" font-size="24" transform="translate(103.152 423)">,</text><text font-family="Cambria Math,Cambria Math_MSFontService,sans-serif" font-weight="400" font-size="24" transform="translate(112.152 423)">𝑎</text><text font-family="Cambria Math,Cambria Math_MSFontService,sans-serif" font-weight="400" font-size="24" transform="translate(142.698 423)">=</text><text font-family="Cambria Math,Cambria Math_MSFontService,sans-serif" font-weight="400" font-size="24" transform="translate(167.365 423)">0</text><text font-family="Cambria Math,Cambria Math_MSFontService,sans-serif" font-weight="400" font-size="24" transform="translate(180.698 423)">,</text><text font-family="Cambria Math,Cambria Math_MSFontService,sans-serif" font-weight="400" font-size="24" transform="translate(189.698 423)">𝑥</text><path d="M244.933 404.663C247.215 405.265 248.966 406.564 250.189 408.56 251.412 410.556 252.023 412.964 252.023 415.784 252.023 418.613 251.414 421.021 250.195 423.009 248.976 424.997 247.222 426.292 244.933 426.894L244.652 425.991C246.457 425.39 247.798 424.202 248.677 422.429 249.556 420.656 249.996 418.402 249.996 415.667 249.996 413.027 249.558 410.833 248.683 409.087 247.808 407.341 246.453 406.167 244.617 405.566ZM212.457 404.663 212.774 405.566C210.946 406.167 209.592 407.341 208.713 409.087 207.834 410.833 207.395 413.027 207.395 415.667 207.395 418.402 207.834 420.656 208.713 422.429 209.592 424.202 210.934 425.39 212.739 425.991L212.457 426.894C210.168 426.292 208.414 424.997 207.196 423.009 205.977 421.021 205.368 418.613 205.368 415.784 205.368 412.964 205.979 410.556 207.202 408.56 208.424 406.564 210.176 405.265 212.457 404.663Z" fill-rule="evenodd"/><text font-family="Cambria Math,Cambria Math_MSFontService,sans-serif" font-weight="400" font-size="24" transform="translate(213.218 423)">𝑖</text><text font-family="Cambria Math,Cambria Math_MSFontService,sans-serif" font-weight="400" font-size="24" transform="translate(221.645 423)">,</text><text font-family="Cambria Math,Cambria Math_MSFontService,sans-serif" font-weight="400" font-size="24" transform="translate(230.645 423)">𝑏</text><text font-family="Cambria Math,Cambria Math_MSFontService,sans-serif" font-weight="400" font-size="24" transform="translate(260.798 423)">=</text><text font-family="Cambria Math,Cambria Math_MSFontService,sans-serif" font-weight="400" font-size="24" transform="translate(285.465 423)">1</text><text font-family="Cambria Math,Cambria Math_MSFontService,sans-serif" font-weight="400" font-size="24" transform="translate(298.798 423)">,</text><text font-family="Cambria Math,Cambria Math_MSFontService,sans-serif" font-weight="400" font-size="24" transform="translate(307.798 423)">𝑦</text><path d="M340.86 404.663C343.141 405.265 344.893 406.564 346.116 408.56 347.338 410.556 347.95 412.964 347.95 415.784 347.95 418.613 347.34 421.021 346.122 423.009 344.903 424.997 343.149 426.292 340.86 426.894L340.579 425.991C342.383 425.39 343.725 424.202 344.604 422.429 345.483 420.656 345.922 418.402 345.922 415.667 345.922 413.027 345.485 410.833 344.61 409.087 343.735 407.341 342.379 406.167 340.544 405.566ZM330.911 404.663 331.227 405.566C329.399 406.167 328.046 407.341 327.167 409.087 326.288 410.833 325.848 413.027 325.848 415.667 325.848 418.402 326.288 420.656 327.167 422.429 328.046 424.202 329.387 425.39 331.192 425.991L330.911 426.894C328.622 426.292 326.868 424.997 325.649 423.009 324.43 421.021 323.821 418.613 323.821 415.784 323.821 412.964 324.432 410.556 325.655 408.56 326.878 406.564 328.63 405.265 330.911 404.663Z" fill-rule="evenodd"/><text font-family="Cambria Math,Cambria Math_MSFontService,sans-serif" font-weight="400" font-size="24" transform="translate(331.672 423)">𝑖</text><text font-family="Cambria Math,Cambria Math_MSFontService,sans-serif" font-weight="400" font-size="24" transform="translate(356.725 423)">=</text><text font-family="Cambria Math,Cambria Math_MSFontService,sans-serif" font-weight="400" font-size="24" transform="translate(381.392 423)">1</text><text font-family="Cambria Math,Cambria Math_MSFontService,sans-serif" font-weight="400" font-size="24" transform="translate(394.725 423)">,</text><text font-family="Cambria Math,Cambria Math_MSFontService,sans-serif" font-weight="400" font-size="24" transform="translate(403.725 423)">𝑦</text><path d="M478.787 404.663C481.068 405.265 482.82 406.564 484.042 408.56 485.265 410.556 485.876 412.964 485.876 415.784 485.876 418.613 485.267 421.021 484.048 423.009 482.83 424.997 481.076 426.292 478.787 426.894L478.505 425.991C480.31 425.39 481.652 424.202 482.531 422.429 483.41 420.656 483.849 418.402 483.849 415.667 483.849 413.027 483.412 410.833 482.537 409.087 481.662 407.341 480.306 406.167 478.47 405.566ZM426.837 404.663 427.154 405.566C425.326 406.167 423.972 407.341 423.093 409.087 422.214 410.833 421.775 413.027 421.775 415.667 421.775 418.402 422.214 420.656 423.093 422.429 423.972 424.202 425.314 425.39 427.119 425.991L426.837 426.894C424.548 426.292 422.794 424.997 421.576 423.009 420.357 421.021 419.748 418.613 419.748 415.784 419.748 412.964 420.359 410.556 421.582 408.56 422.804 406.564 424.556 405.265 426.837 404.663Z" fill-rule="evenodd"/><text font-family="Cambria Math,Cambria Math_MSFontService,sans-serif" font-weight="400" font-size="24" transform="translate(427.598 423)">𝑖</text><text font-family="Cambria Math,Cambria Math_MSFontService,sans-serif" font-weight="400" font-size="24" transform="translate(441.358 423)">+</text><text font-family="Cambria Math,Cambria Math_MSFontService,sans-serif" font-weight="400" font-size="24" transform="translate(464.692 423)">1</text><text font-family="Cambria Math,Cambria Math_MSFontService,sans-serif" font-weight="400" font-size="24" transform="translate(494.652 423)">=</text><text fill="#FF0000" font-family="Cambria Math,Cambria Math_MSFontService,sans-serif" font-weight="400" font-size="24" transform="translate(519.318 423)">1</text><text font-family="Cambria Math,Cambria Math_MSFontService,sans-serif" font-weight="400" font-size="24" transform="translate(532.652 423)">,</text><text font-family="Cambria Math,Cambria Math_MSFontService,sans-serif" font-weight="400" font-size="24" transform="translate(541.652 423)">𝑧</text><path d="M578.18 404.663C580.461 405.265 582.213 406.564 583.436 408.56 584.658 410.556 585.27 412.964 585.27 415.784 585.27 418.613 584.66 421.021 583.442 423.009 582.223 424.997 580.469 426.292 578.18 426.894L577.899 425.991C579.703 425.39 581.045 424.202 581.924 422.429 582.803 420.656 583.242 418.402 583.242 415.667 583.242 413.027 582.805 410.833 581.93 409.087 581.055 407.341 579.699 406.167 577.864 405.566ZM562.931 404.663 563.247 405.566C561.419 406.167 560.066 407.341 559.187 409.087 558.308 410.833 557.868 413.027 557.868 415.667 557.868 418.402 558.308 420.656 559.187 422.429 560.066 424.202 561.407 425.39 563.212 425.991L562.931 426.894C560.642 426.292 558.888 424.997 557.669 423.009 556.45 421.021 555.841 418.613 555.841 415.784 555.841 412.964 556.452 410.556 557.675 408.56 558.898 406.564 560.65 405.265 562.931 404.663Z" fill-rule="evenodd"/><text font-family="Cambria Math,Cambria Math_MSFontService,sans-serif" font-weight="400" font-size="24" transform="translate(563.692 423)">𝑞</text><text font-family="Cambria Math,Cambria Math_MSFontService,sans-serif" font-weight="400" font-size="24" transform="translate(594.045 423)">=</text><text font-family="Cambria Math,Cambria Math_MSFontService,sans-serif" font-weight="400" font-size="24" transform="translate(618.712 423)">1</text><text font-family="Cambria Math,Cambria Math_MSFontService,sans-serif" font-weight="400" font-size="24" transform="translate(632.045 423)">,</text><text font-family="Cambria Math,Cambria Math_MSFontService,sans-serif" font-weight="400" font-size="24" transform="translate(641.045 423)">𝑧</text><path d="M684.733 404.663C687.015 405.265 688.766 406.564 689.989 408.56 691.212 410.556 691.823 412.964 691.823 415.784 691.823 418.613 691.214 421.021 689.995 423.009 688.776 424.997 687.022 426.292 684.733 426.894L684.452 425.991C686.257 425.39 687.599 424.202 688.477 422.429 689.356 420.656 689.796 418.402 689.796 415.667 689.796 413.027 689.358 410.833 688.483 409.087 687.608 407.341 686.253 406.167 684.417 405.566ZM662.324 404.663 662.641 405.566C660.812 406.167 659.459 407.341 658.58 409.087 657.701 410.833 657.262 413.027 657.262 415.667 657.262 418.402 657.701 420.656 658.58 422.429 659.459 424.202 660.801 425.39 662.605 425.991L662.324 426.894C660.035 426.292 658.281 424.997 657.062 423.009 655.844 421.021 655.234 418.613 655.234 415.784 655.234 412.964 655.846 410.556 657.068 408.56 658.291 406.564 660.043 405.265 662.324 404.663Z" fill-rule="evenodd"/><text font-family="Cambria Math,Cambria Math_MSFontService,sans-serif" font-weight="400" font-size="24" transform="translate(663.085 423)">𝑞</text><text font-family="Cambria Math,Cambria Math_MSFontService,sans-serif" font-weight="400" font-size="17.52" transform="translate(676.812 414)">′</text><text font-family="Cambria Math,Cambria Math_MSFontService,sans-serif" font-weight="400" font-size="24" transform="translate(700.598 423)">=</text><text font-family="Cambria Math,Cambria Math_MSFontService,sans-serif" font-weight="400" font-size="24" transform="translate(725.265 423)">0</text><path d="M176 295 176 324.815 174 324.815 174 295ZM179 323.481 175 331.481 171 323.481Z" fill="#5B9BD5"/><text font-family="Source Han Sans JP Medium,Source Han Sans JP Medium_MSFontService,sans-serif" font-weight="500" font-size="24" transform="translate(121.936 322)">flip</text><path d="M526 363 526 392.815 524 392.815 524 363ZM529 391.481 525 399.481 521 391.481Z" fill="#5B9BD5"/><text font-family="Source Han Sans JP Medium,Source Han Sans JP Medium_MSFontService,sans-serif" font-weight="500" font-size="24" transform="translate(471.82 390)">flip</text><text font-family="Cambria Math,Cambria Math_MSFontService,sans-serif" font-weight="400" font-size="24" transform="translate(71.2049 511)">𝑥</text><path d="M126.833 492.918C129.115 493.519 130.866 494.818 132.089 496.814 133.312 498.81 133.923 501.218 133.923 504.039 133.923 506.867 133.314 509.275 132.095 511.263 130.876 513.252 129.122 514.547 126.833 515.148L126.552 514.246C128.357 513.644 129.699 512.457 130.577 510.683 131.456 508.91 131.896 506.656 131.896 503.922 131.896 501.281 131.458 499.088 130.583 497.341 129.708 495.595 128.353 494.422 126.517 493.82ZM93.9641 492.918 94.2805 493.82C92.4524 494.422 91.0989 495.595 90.22 497.341 89.341 499.088 88.9016 501.281 88.9016 503.922 88.9016 506.656 89.341 508.91 90.22 510.683 91.0989 512.457 92.4407 513.644 94.2453 514.246L93.9641 515.148C91.675 514.547 89.9211 513.252 88.7024 511.263 87.4836 509.275 86.8743 506.867 86.8743 504.039 86.8743 501.218 87.4856 498.81 88.7082 496.814 89.9309 494.818 91.6828 493.519 93.9641 492.918Z" fill-rule="evenodd"/><text font-family="Cambria Math,Cambria Math_MSFontService,sans-serif" font-weight="400" font-size="24" transform="translate(94.7249 511)">𝑖</text><text font-family="Cambria Math,Cambria Math_MSFontService,sans-serif" font-weight="400" font-size="24" transform="translate(103.152 511)">,</text><text font-family="Cambria Math,Cambria Math_MSFontService,sans-serif" font-weight="400" font-size="24" transform="translate(112.152 511)">𝑎</text><text font-family="Cambria Math,Cambria Math_MSFontService,sans-serif" font-weight="400" font-size="24" transform="translate(142.698 511)">=</text><text font-family="Cambria Math,Cambria Math_MSFontService,sans-serif" font-weight="400" font-size="24" transform="translate(167.365 511)">0</text><text font-family="Cambria Math,Cambria Math_MSFontService,sans-serif" font-weight="400" font-size="24" transform="translate(180.698 511)">,</text><text font-family="Cambria Math,Cambria Math_MSFontService,sans-serif" font-weight="400" font-size="24" transform="translate(189.698 511)">𝑥</text><path d="M244.933 492.918C247.215 493.519 248.966 494.818 250.189 496.814 251.412 498.81 252.023 501.218 252.023 504.039 252.023 506.867 251.414 509.275 250.195 511.263 248.976 513.252 247.222 514.547 244.933 515.148L244.652 514.246C246.457 513.644 247.798 512.457 248.677 510.683 249.556 508.91 249.996 506.656 249.996 503.922 249.996 501.281 249.558 499.088 248.683 497.341 247.808 495.595 246.453 494.422 244.617 493.82ZM212.457 492.918 212.774 493.82C210.946 494.422 209.592 495.595 208.713 497.341 207.834 499.088 207.395 501.281 207.395 503.922 207.395 506.656 207.834 508.91 208.713 510.683 209.592 512.457 210.934 513.644 212.739 514.246L212.457 515.148C210.168 514.547 208.414 513.252 207.196 511.263 205.977 509.275 205.368 506.867 205.368 504.039 205.368 501.218 205.979 498.81 207.202 496.814 208.424 494.818 210.176 493.519 212.457 492.918Z" fill-rule="evenodd"/><text font-family="Cambria Math,Cambria Math_MSFontService,sans-serif" font-weight="400" font-size="24" transform="translate(213.218 511)">𝑖</text><text font-family="Cambria Math,Cambria Math_MSFontService,sans-serif" font-weight="400" font-size="24" transform="translate(221.645 511)">,</text><text font-family="Cambria Math,Cambria Math_MSFontService,sans-serif" font-weight="400" font-size="24" transform="translate(230.645 511)">𝑏</text><text font-family="Cambria Math,Cambria Math_MSFontService,sans-serif" font-weight="400" font-size="24" transform="translate(260.798 511)">=</text><text font-family="Cambria Math,Cambria Math_MSFontService,sans-serif" font-weight="400" font-size="24" transform="translate(285.465 511)">1</text><text font-family="Cambria Math,Cambria Math_MSFontService,sans-serif" font-weight="400" font-size="24" transform="translate(298.798 511)">,</text><text font-family="Cambria Math,Cambria Math_MSFontService,sans-serif" font-weight="400" font-size="24" transform="translate(307.798 511)">𝑦</text><path d="M340.86 492.918C343.141 493.519 344.893 494.818 346.116 496.814 347.338 498.81 347.95 501.218 347.95 504.039 347.95 506.867 347.34 509.275 346.122 511.263 344.903 513.252 343.149 514.547 340.86 515.148L340.579 514.246C342.383 513.644 343.725 512.457 344.604 510.683 345.483 508.91 345.922 506.656 345.922 503.922 345.922 501.281 345.485 499.088 344.61 497.341 343.735 495.595 342.379 494.422 340.544 493.82ZM330.911 492.918 331.227 493.82C329.399 494.422 328.046 495.595 327.167 497.341 326.288 499.088 325.848 501.281 325.848 503.922 325.848 506.656 326.288 508.91 327.167 510.683 328.046 512.457 329.387 513.644 331.192 514.246L330.911 515.148C328.622 514.547 326.868 513.252 325.649 511.263 324.43 509.275 323.821 506.867 323.821 504.039 323.821 501.218 324.432 498.81 325.655 496.814 326.878 494.818 328.63 493.519 330.911 492.918Z" fill-rule="evenodd"/><text font-family="Cambria Math,Cambria Math_MSFontService,sans-serif" font-weight="400" font-size="24" transform="translate(331.672 511)">𝑖</text><text font-family="Cambria Math,Cambria Math_MSFontService,sans-serif" font-weight="400" font-size="24" transform="translate(356.725 511)">=</text><text font-family="Cambria Math,Cambria Math_MSFontService,sans-serif" font-weight="400" font-size="24" transform="translate(381.392 511)">0</text><text font-family="Cambria Math,Cambria Math_MSFontService,sans-serif" font-weight="400" font-size="24" transform="translate(394.725 511)">,</text><text font-family="Cambria Math,Cambria Math_MSFontService,sans-serif" font-weight="400" font-size="24" transform="translate(403.725 511)">𝑦</text><path d="M478.787 492.918C481.068 493.519 482.82 494.818 484.042 496.814 485.265 498.81 485.876 501.218 485.876 504.039 485.876 506.867 485.267 509.275 484.048 511.263 482.83 513.252 481.076 514.547 478.787 515.148L478.505 514.246C480.31 513.644 481.652 512.457 482.531 510.683 483.41 508.91 483.849 506.656 483.849 503.922 483.849 501.281 483.412 499.088 482.537 497.341 481.662 495.595 480.306 494.422 478.47 493.82ZM426.837 492.918 427.154 493.82C425.326 494.422 423.972 495.595 423.093 497.341 422.214 499.088 421.775 501.281 421.775 503.922 421.775 506.656 422.214 508.91 423.093 510.683 423.972 512.457 425.314 513.644 427.119 514.246L426.837 515.148C424.548 514.547 422.794 513.252 421.576 511.263 420.357 509.275 419.748 506.867 419.748 504.039 419.748 501.218 420.359 498.81 421.582 496.814 422.804 494.818 424.556 493.519 426.837 492.918Z" fill-rule="evenodd"/><text font-family="Cambria Math,Cambria Math_MSFontService,sans-serif" font-weight="400" font-size="24" transform="translate(427.598 511)">𝑖</text><text font-family="Cambria Math,Cambria Math_MSFontService,sans-serif" font-weight="400" font-size="24" transform="translate(441.358 511)">+</text><text font-family="Cambria Math,Cambria Math_MSFontService,sans-serif" font-weight="400" font-size="24" transform="translate(464.692 511)">1</text><text font-family="Cambria Math,Cambria Math_MSFontService,sans-serif" font-weight="400" font-size="24" transform="translate(494.652 511)">=</text><text font-family="Cambria Math,Cambria Math_MSFontService,sans-serif" font-weight="400" font-size="24" transform="translate(519.318 511)">1</text><text font-family="Cambria Math,Cambria Math_MSFontService,sans-serif" font-weight="400" font-size="24" transform="translate(532.652 511)">,</text><text font-family="Cambria Math,Cambria Math_MSFontService,sans-serif" font-weight="400" font-size="24" transform="translate(541.652 511)">𝑧</text><path d="M578.18 492.918C580.461 493.519 582.213 494.818 583.436 496.814 584.658 498.81 585.27 501.218 585.27 504.039 585.27 506.867 584.66 509.275 583.442 511.263 582.223 513.252 580.469 514.547 578.18 515.148L577.899 514.246C579.703 513.644 581.045 512.457 581.924 510.683 582.803 508.91 583.242 506.656 583.242 503.922 583.242 501.281 582.805 499.088 581.93 497.341 581.055 495.595 579.699 494.422 577.864 493.82ZM562.931 492.918 563.247 493.82C561.419 494.422 560.066 495.595 559.187 497.341 558.308 499.088 557.868 501.281 557.868 503.922 557.868 506.656 558.308 508.91 559.187 510.683 560.066 512.457 561.407 513.644 563.212 514.246L562.931 515.148C560.642 514.547 558.888 513.252 557.669 511.263 556.45 509.275 555.841 506.867 555.841 504.039 555.841 501.218 556.452 498.81 557.675 496.814 558.898 494.818 560.65 493.519 562.931 492.918Z" fill-rule="evenodd"/><text font-family="Cambria Math,Cambria Math_MSFontService,sans-serif" font-weight="400" font-size="24" transform="translate(563.692 511)">𝑞</text><text font-family="Cambria Math,Cambria Math_MSFontService,sans-serif" font-weight="400" font-size="24" transform="translate(594.045 511)">=</text><text font-family="Cambria Math,Cambria Math_MSFontService,sans-serif" font-weight="400" font-size="24" transform="translate(618.712 511)">1</text><text font-family="Cambria Math,Cambria Math_MSFontService,sans-serif" font-weight="400" font-size="24" transform="translate(632.045 511)">,</text><text font-family="Cambria Math,Cambria Math_MSFontService,sans-serif" font-weight="400" font-size="24" transform="translate(641.045 511)">𝑧</text><path d="M684.733 492.918C687.015 493.519 688.766 494.818 689.989 496.814 691.212 498.81 691.823 501.218 691.823 504.039 691.823 506.867 691.214 509.275 689.995 511.263 688.776 513.252 687.022 514.547 684.733 515.148L684.452 514.246C686.257 513.644 687.599 512.457 688.477 510.683 689.356 508.91 689.796 506.656 689.796 503.922 689.796 501.281 689.358 499.088 688.483 497.341 687.608 495.595 686.253 494.422 684.417 493.82ZM662.324 492.918 662.641 493.82C660.812 494.422 659.459 495.595 658.58 497.341 657.701 499.088 657.262 501.281 657.262 503.922 657.262 506.656 657.701 508.91 658.58 510.683 659.459 512.457 660.801 513.644 662.605 514.246L662.324 515.148C660.035 514.547 658.281 513.252 657.062 511.263 655.844 509.275 655.234 506.867 655.234 504.039 655.234 501.218 655.846 498.81 657.068 496.814 658.291 494.818 660.043 493.519 662.324 492.918Z" fill-rule="evenodd"/><text font-family="Cambria Math,Cambria Math_MSFontService,sans-serif" font-weight="400" font-size="24" transform="translate(663.085 511)">𝑞</text><text font-family="Cambria Math,Cambria Math_MSFontService,sans-serif" font-weight="400" font-size="17.52" transform="translate(676.812 502)">′</text><text font-family="Cambria Math,Cambria Math_MSFontService,sans-serif" font-weight="400" font-size="24" transform="translate(700.598 511)">=</text><text font-family="Cambria Math,Cambria Math_MSFontService,sans-serif" font-weight="400" font-size="24" transform="translate(725.265 511)">0</text><text font-family="Cambria Math,Cambria Math_MSFontService,sans-serif" font-weight="400" font-size="24" transform="translate(71.2049 591)">𝑥</text><path d="M126.833 573.173C129.115 573.774 130.866 575.073 132.089 577.069 133.312 579.065 133.923 581.474 133.923 584.294 133.923 587.122 133.314 589.53 132.095 591.519 130.876 593.507 129.122 594.802 126.833 595.403L126.552 594.501C128.357 593.899 129.699 592.712 130.577 590.939 131.456 589.165 131.896 586.911 131.896 584.177 131.896 581.536 131.458 579.343 130.583 577.597 129.708 575.851 128.353 574.677 126.517 574.075ZM93.9641 573.173 94.2805 574.075C92.4524 574.677 91.0989 575.851 90.22 577.597 89.341 579.343 88.9016 581.536 88.9016 584.177 88.9016 586.911 89.341 589.165 90.22 590.939 91.0989 592.712 92.4407 593.899 94.2453 594.501L93.9641 595.403C91.675 594.802 89.9211 593.507 88.7024 591.519 87.4836 589.53 86.8743 587.122 86.8743 584.294 86.8743 581.474 87.4856 579.065 88.7082 577.069 89.9309 575.073 91.6828 573.774 93.9641 573.173Z" fill-rule="evenodd"/><text font-family="Cambria Math,Cambria Math_MSFontService,sans-serif" font-weight="400" font-size="24" transform="translate(94.7249 591)">𝑖</text><text font-family="Cambria Math,Cambria Math_MSFontService,sans-serif" font-weight="400" font-size="24" transform="translate(103.152 591)">,</text><text font-family="Cambria Math,Cambria Math_MSFontService,sans-serif" font-weight="400" font-size="24" transform="translate(112.152 591)">𝑎</text><text font-family="Cambria Math,Cambria Math_MSFontService,sans-serif" font-weight="400" font-size="24" transform="translate(142.698 591)">=</text><text font-family="Cambria Math,Cambria Math_MSFontService,sans-serif" font-weight="400" font-size="24" transform="translate(167.365 591)">0</text><text font-family="Cambria Math,Cambria Math_MSFontService,sans-serif" font-weight="400" font-size="24" transform="translate(180.698 591)">,</text><text font-family="Cambria Math,Cambria Math_MSFontService,sans-serif" font-weight="400" font-size="24" transform="translate(189.698 591)">𝑥</text><path d="M244.933 573.173C247.215 573.774 248.966 575.073 250.189 577.069 251.412 579.065 252.023 581.474 252.023 584.294 252.023 587.122 251.414 589.53 250.195 591.519 248.976 593.507 247.222 594.802 244.933 595.403L244.652 594.501C246.457 593.899 247.798 592.712 248.677 590.939 249.556 589.165 249.996 586.911 249.996 584.177 249.996 581.536 249.558 579.343 248.683 577.597 247.808 575.851 246.453 574.677 244.617 574.075ZM212.457 573.173 212.774 574.075C210.946 574.677 209.592 575.851 208.713 577.597 207.834 579.343 207.395 581.536 207.395 584.177 207.395 586.911 207.834 589.165 208.713 590.939 209.592 592.712 210.934 593.899 212.739 594.501L212.457 595.403C210.168 594.802 208.414 593.507 207.196 591.519 205.977 589.53 205.368 587.122 205.368 584.294 205.368 581.474 205.979 579.065 207.202 577.069 208.424 575.073 210.176 573.774 212.457 573.173Z" fill-rule="evenodd"/><text font-family="Cambria Math,Cambria Math_MSFontService,sans-serif" font-weight="400" font-size="24" transform="translate(213.218 591)">𝑖</text><text font-family="Cambria Math,Cambria Math_MSFontService,sans-serif" font-weight="400" font-size="24" transform="translate(221.645 591)">,</text><text font-family="Cambria Math,Cambria Math_MSFontService,sans-serif" font-weight="400" font-size="24" transform="translate(230.645 591)">𝑏</text><text font-family="Cambria Math,Cambria Math_MSFontService,sans-serif" font-weight="400" font-size="24" transform="translate(260.798 591)">=</text><text font-family="Cambria Math,Cambria Math_MSFontService,sans-serif" font-weight="400" font-size="24" transform="translate(285.465 591)">1</text><text font-family="Cambria Math,Cambria Math_MSFontService,sans-serif" font-weight="400" font-size="24" transform="translate(298.798 591)">,</text><text font-family="Cambria Math,Cambria Math_MSFontService,sans-serif" font-weight="400" font-size="24" transform="translate(307.798 591)">𝑦</text><path d="M340.86 573.173C343.141 573.774 344.893 575.073 346.116 577.069 347.338 579.065 347.95 581.474 347.95 584.294 347.95 587.122 347.34 589.53 346.122 591.519 344.903 593.507 343.149 594.802 340.86 595.403L340.579 594.501C342.383 593.899 343.725 592.712 344.604 590.939 345.483 589.165 345.922 586.911 345.922 584.177 345.922 581.536 345.485 579.343 344.61 577.597 343.735 575.851 342.379 574.677 340.544 574.075ZM330.911 573.173 331.227 574.075C329.399 574.677 328.046 575.851 327.167 577.597 326.288 579.343 325.848 581.536 325.848 584.177 325.848 586.911 326.288 589.165 327.167 590.939 328.046 592.712 329.387 593.899 331.192 594.501L330.911 595.403C328.622 594.802 326.868 593.507 325.649 591.519 324.43 589.53 323.821 587.122 323.821 584.294 323.821 581.474 324.432 579.065 325.655 577.069 326.878 575.073 328.63 573.774 330.911 573.173Z" fill-rule="evenodd"/><text font-family="Cambria Math,Cambria Math_MSFontService,sans-serif" font-weight="400" font-size="24" transform="translate(331.672 591)">𝑖</text><text font-family="Cambria Math,Cambria Math_MSFontService,sans-serif" font-weight="400" font-size="24" transform="translate(356.725 591)">=</text><text font-family="Cambria Math,Cambria Math_MSFontService,sans-serif" font-weight="400" font-size="24" transform="translate(381.392 591)">0</text><text font-family="Cambria Math,Cambria Math_MSFontService,sans-serif" font-weight="400" font-size="24" transform="translate(394.725 591)">,</text><text font-family="Cambria Math,Cambria Math_MSFontService,sans-serif" font-weight="400" font-size="24" transform="translate(403.725 591)">𝑦</text><path d="M478.787 573.173C481.068 573.774 482.82 575.073 484.042 577.069 485.265 579.065 485.876 581.474 485.876 584.294 485.876 587.122 485.267 589.53 484.048 591.519 482.83 593.507 481.076 594.802 478.787 595.403L478.505 594.501C480.31 593.899 481.652 592.712 482.531 590.939 483.41 589.165 483.849 586.911 483.849 584.177 483.849 581.536 483.412 579.343 482.537 577.597 481.662 575.851 480.306 574.677 478.47 574.075ZM426.837 573.173 427.154 574.075C425.326 574.677 423.972 575.851 423.093 577.597 422.214 579.343 421.775 581.536 421.775 584.177 421.775 586.911 422.214 589.165 423.093 590.939 423.972 592.712 425.314 593.899 427.119 594.501L426.837 595.403C424.548 594.802 422.794 593.507 421.576 591.519 420.357 589.53 419.748 587.122 419.748 584.294 419.748 581.474 420.359 579.065 421.582 577.069 422.804 575.073 424.556 573.774 426.837 573.173Z" fill-rule="evenodd"/><text font-family="Cambria Math,Cambria Math_MSFontService,sans-serif" font-weight="400" font-size="24" transform="translate(427.598 591)">𝑖</text><text font-family="Cambria Math,Cambria Math_MSFontService,sans-serif" font-weight="400" font-size="24" transform="translate(441.358 591)">+</text><text font-family="Cambria Math,Cambria Math_MSFontService,sans-serif" font-weight="400" font-size="24" transform="translate(464.692 591)">1</text><text font-family="Cambria Math,Cambria Math_MSFontService,sans-serif" font-weight="400" font-size="24" transform="translate(494.652 591)">=</text><text font-family="Cambria Math,Cambria Math_MSFontService,sans-serif" font-weight="400" font-size="24" transform="translate(519.318 591)">1</text><text font-family="Cambria Math,Cambria Math_MSFontService,sans-serif" font-weight="400" font-size="24" transform="translate(532.652 591)">,</text><text font-family="Cambria Math,Cambria Math_MSFontService,sans-serif" font-weight="400" font-size="24" transform="translate(541.652 591)">𝑧</text><path d="M578.18 573.173C580.461 573.774 582.213 575.073 583.436 577.069 584.658 579.065 585.27 581.474 585.27 584.294 585.27 587.122 584.66 589.53 583.442 591.519 582.223 593.507 580.469 594.802 578.18 595.403L577.899 594.501C579.703 593.899 581.045 592.712 581.924 590.939 582.803 589.165 583.242 586.911 583.242 584.177 583.242 581.536 582.805 579.343 581.93 577.597 581.055 575.851 579.699 574.677 577.864 574.075ZM562.931 573.173 563.247 574.075C561.419 574.677 560.066 575.851 559.187 577.597 558.308 579.343 557.868 581.536 557.868 584.177 557.868 586.911 558.308 589.165 559.187 590.939 560.066 592.712 561.407 593.899 563.212 594.501L562.931 595.403C560.642 594.802 558.888 593.507 557.669 591.519 556.45 589.53 555.841 587.122 555.841 584.294 555.841 581.474 556.452 579.065 557.675 577.069 558.898 575.073 560.65 573.774 562.931 573.173Z" fill-rule="evenodd"/><text font-family="Cambria Math,Cambria Math_MSFontService,sans-serif" font-weight="400" font-size="24" transform="translate(563.692 591)">𝑞</text><text font-family="Cambria Math,Cambria Math_MSFontService,sans-serif" font-weight="400" font-size="24" transform="translate(594.045 591)">=</text><text font-family="Cambria Math,Cambria Math_MSFontService,sans-serif" font-weight="400" font-size="24" transform="translate(618.712 591)">1</text><text font-family="Cambria Math,Cambria Math_MSFontService,sans-serif" font-weight="400" font-size="24" transform="translate(632.045 591)">,</text><text font-family="Cambria Math,Cambria Math_MSFontService,sans-serif" font-weight="400" font-size="24" transform="translate(641.045 591)">𝑧</text><path d="M684.733 573.173C687.015 573.774 688.766 575.073 689.989 577.069 691.212 579.065 691.823 581.474 691.823 584.294 691.823 587.122 691.214 589.53 689.995 591.519 688.776 593.507 687.022 594.802 684.733 595.403L684.452 594.501C686.257 593.899 687.599 592.712 688.477 590.939 689.356 589.165 689.796 586.911 689.796 584.177 689.796 581.536 689.358 579.343 688.483 577.597 687.608 575.851 686.253 574.677 684.417 574.075ZM662.324 573.173 662.641 574.075C660.812 574.677 659.459 575.851 658.58 577.597 657.701 579.343 657.262 581.536 657.262 584.177 657.262 586.911 657.701 589.165 658.58 590.939 659.459 592.712 660.801 593.899 662.605 594.501L662.324 595.403C660.035 594.802 658.281 593.507 657.062 591.519 655.844 589.53 655.234 587.122 655.234 584.294 655.234 581.474 655.846 579.065 657.068 577.069 658.291 575.073 660.043 573.774 662.324 573.173Z" fill-rule="evenodd"/><text font-family="Cambria Math,Cambria Math_MSFontService,sans-serif" font-weight="400" font-size="24" transform="translate(663.085 591)">𝑞</text><text font-family="Cambria Math,Cambria Math_MSFontService,sans-serif" font-weight="400" font-size="17.52" transform="translate(676.812 582)">′</text><text font-family="Cambria Math,Cambria Math_MSFontService,sans-serif" font-weight="400" font-size="24" transform="translate(700.598 591)">=</text><text font-family="Cambria Math,Cambria Math_MSFontService,sans-serif" font-weight="400" font-size="24" transform="translate(725.265 591)">1</text><path d="M390 447 390 476.815 388 476.815 388 447ZM393 475.481 389 483.481 385 475.481Z" fill="#5B9BD5"/><path d="M730 527 730 556.815 728 556.815 728 527ZM733 555.481 729 563.481 725 555.481Z" fill="#5B9BD5"/><path d="M625 610 625 639.815 623 639.815 623 610ZM628 638.481 624 646.481 620 638.481Z" fill="#5B9BD5"/></g></svg>